<svg width="44" height="44" viewBox="0 0 44 44" xmlns="http://www.w3.org/2000/svg">
    <g fill="none" fill-rule="evenodd">
        <circle fill="#EE5632" cx="22" cy="22" r="22"/>
        <path d="M26.813 9.167c4.429 0 8.02 3.591 8.02 8.02v9.625c0 4.43-3.591 8.021-8.02 8.021h-9.625a8.022 8.022 0 0 1-8.021-8.02v-9.625c0-4.43 3.591-8.021 8.02-8.021zm0 2.406h-9.625a5.62 5.62 0 0 0-5.615 5.614v9.625a5.62 5.62 0 0 0 5.614 5.615h9.625a5.62 5.62 0 0 0 5.615-5.614v-9.625a5.62 5.62 0 0 0-5.614-5.615zM22 15.583a6.417 6.417 0 1 1 0 12.834 6.417 6.417 0 0 1 0-12.834zm0 2.407A4.015 4.015 0 0 0 17.99 22c0 2.21 1.8 4.01 4.01 4.01s4.01-1.8 4.01-4.01c0-2.212-1.8-4.01-4.01-4.01zm6.898-3.743a.855.855 0 1 1 0 1.71.855.855 0 0 1 0-1.71z" fill="#FFF" fill-rule="nonzero"/>
    </g>
</svg>
