<svg width="294" height="262" viewBox="0 0 294 262" xmlns="http://www.w3.org/2000/svg">
    <g fill="none" fill-rule="evenodd">
        <path d="M218.295 64.303c.063-.058.12-.122.189-.173.307-.233.613-.469.928-.691.393-.278.789-.553 1.194-.813.515-.33 1.028-.666 1.565-.96a15.098 15.098 0 0 1 2.359-1.017c.326-.112.648-.237.977-.341.201-.065.314-.279.143-.499a12.97 12.97 0 0 0-1.005-1.161 44.856 44.856 0 0 1-.684-.714c-.316-.336-.63-.673-.943-1.012a25.625 25.625 0 0 1-1.425-1.707c-.011-.014-.018-.031-.042-.075.096.028.167.048.237.07.718.24 1.44.465 2.183.622.735.154 1.47.31 2.203.471.194.042.384.1.576.15.068.016.138.035.209.04.135.01.223-.082.183-.208-.163-.518-.082-1.028.04-1.533.258-1.07.629-2.104 1.021-3.128.181-.475.368-.948.552-1.422l.057-.134c.018.056.033.09.04.127l.707 3.309c.177.836.41 1.656.66 2.472.18.582.328 1.174.49 1.76.02.07.039.138.06.206.056.182.155.239.334.18a4.03 4.03 0 0 0 .398-.154c.681-.308 1.392-.535 2.103-.759.46-.145.917-.302 1.384-.417.542-.133 1.094-.225 1.641-.334.014-.004.03.001.067.003-.12.135-.225.264-.342.38-.237.235-.477.467-.723.694-.344.314-.699.617-1.04.933-.348.32-.71.621-1.084.91-.273.211-.543.426-.817.637-.1.077-.203.152-.312.218-.193.117-.193.302.023.42.452.244.878.527 1.286.84.511.393 1.004.81 1.439 1.286.26.284.524.567.727.899.074.12.171.228.252.345.25.358.488.724.744 1.078.216.3.45.59.674.886.087.116.168.24.24.382-.054-.018-.11-.034-.164-.055-.702-.282-1.406-.56-2.105-.85a46.346 46.346 0 0 0-3.029-1.121c-.318-.106-.627-.239-.941-.354a2.743 2.743 0 0 0-.409-.122c-.228-.046-.325.03-.343.261-.012.152-.002.306-.024.457a32.1 32.1 0 0 1-.21 1.323c-.214 1.15-.547 2.271-.9 3.386-.184.584-.416 1.156-.625 1.733-.102.282-.201.565-.302.847-.015.043-.032.085-.06.158-.035-.087-.06-.146-.08-.207-.345-1.07-.638-2.154-.781-3.271-.158-1.22-.31-2.44-.455-3.661-.036-.302-.041-.61-.06-.913a3.053 3.053 0 0 0-.138-.732.37.37 0 0 0-.296-.275 2.419 2.419 0 0 0-.392-.04 6.35 6.35 0 0 0-1.585.188c-1.154.27-2.326.43-3.5.574-.393.049-.786.101-1.178.157a8.07 8.07 0 0 0-1.183.287c-.228.068-.458.13-.687.193l-.021-.029" fill="#FBD905"/>
        <path d="M182.093 66.522c-1.59-1.665-3.986-3.258-5.242-3.441.137.888.287 1.75.48 2.601.527 2.32 1.536 4.394 3.101 6.208 1.62 1.877 3.512 3.417 5.595 4.742.086.054.175.102.273.15-.817.258-1.612.602-2.382 1.043-1.312.753-2.636 1.485-3.95 2.236a20.326 20.326 0 0 1-3.013 1.422c-1.392.516-2.812.699-4.275.358-.174-.04-.354-.055-.573-.087l-.382.942c.325.281.706.302 1.061.363 2.319.393 4.564.146 6.667-.948.956-.498 1.857-1.101 2.774-1.671.864-.537 1.69-1.143 2.58-1.633 3.036-1.672 6.203-1.99 9.468-.776 2.385.888 4.408 2.325 6.096 4.211 1.724 1.928 2.705 4.238 3.276 6.731.472 2.062.472 4.154.23 6.245-.145 1.253-.35 2.5-.54 3.747-.385 2.502-.595 5.011-.436 7.545.357 5.701 2.28 10.791 5.884 15.235 1.128 1.39 2.446 2.596 3.73 3.831.1.095.222.164.373.274.117-.301.212-.526.289-.756.038-.114.043-.24.06-.344-.045-.07-.067-.133-.11-.172-1.656-1.493-3.014-3.243-4.325-5.027-1.293-1.76-2.202-3.688-2.887-5.706 1.08-.434 2.016-1.01 2.92-1.64 1.603-1.12 3.025-2.437 4.12-4.061.987-1.462 1.688-3.064 2.205-4.753.678-2.22.856-4.51 1.055-6.799.004-.054-.07-.115-.122-.198-1.623 1.343-3.19 2.66-4.782 3.948-1.644 1.33-3.013 2.873-3.95 4.782-1.135 2.313-1.783 4.734-1.897 7.274a41.073 41.073 0 0 1-.548-2.146c-.447-1.963-.462-3.973-.272-5.974.143-1.5.349-2.996.56-4.489.313-2.228.537-4.46.54-6.713.006-3.844-1.066-7.338-3.266-10.487-1.68-2.404-3.799-4.268-6.58-5.305-1.83-.682-3.706-1.162-5.685-1.12a14.251 14.251 0 0 0-3.402.469c-.428-3.673-2.23-7.504-4.718-10.111" fill="#1E7DA7"/>
        <path d="M169.633 76.807c.825.526 1.464 1.1 1.941 1.82.715 1.076.921 2.245.474 3.509-.342.967-1.044 1.544-2.055 1.773-.839.188-1.635.056-2.406-.243-1.339-.52-2.394-1.402-3.325-2.437-.286-.318-.541-.663-.809-.996-.096-.12-.177-.25-.282-.361-.382-.403-.782-.355-1.056.154-.252.468-.45.961-.68 1.44-.585 1.22-1.501 2.159-2.649 2.898-.923.595-1.94.791-3.005.69-1.086-.101-1.874-.643-2.336-1.595-.476-.98-.501-1.996-.114-3.04.59-1.589 1.594-2.899 2.892-4.016.264-.228.535-.453.766-.71.302-.336.201-.732-.222-.886a5.796 5.796 0 0 0-.907-.236c-1.369-.259-2.502-.928-3.513-1.81-.784-.682-1.293-1.554-1.608-2.52-.38-1.164-.192-2.306.489-3.365.505-.787 1.28-1.21 2.19-1.39.997-.197 1.951-.07 2.864.32.78.333 1.48.778 2.09 1.35.314.294.62.595.934.887.202.187.422.222.595.122.196-.115.204-.306.211-.486.008-.215-.01-.429-.017-.644-.048-1.545.306-3 1.206-4.318.86-1.26 1.998-2.193 3.5-2.631 1.5-.438 2.372.032 2.77 1.485.228.831.282 1.691.21 2.555-.065.766-.183 1.53-.273 2.294-.029.244-.068.492-.055.733.017.309.33.471.627.328.227-.11.443-.25.645-.402.91-.687 1.92-.806 2.979-.566.994.225 1.764.768 2.257 1.633.658 1.156.837 2.411.58 3.731-.167.858-.667 1.538-1.358 2.087a5.2 5.2 0 0 1-2.33 1.042c-.5.09-1.002.168-1.503.254-.291.05-.572.137-.669.45-.1.326.125.51.355.677.224.164.454.32.597.42" fill="#FBCCC2"/>
        <path d="M161.656 74.927a3.345 3.345 0 0 1-1.128-1.096c-.678-1.076-.368-2.34.729-3.098 1.727-1.193 4.77-.547 5.239 2.057.337 1.87-1.187 3.172-2.897 2.962a3.673 3.673 0 0 1-1.943-.825" fill="#F6981E"/>
        <path d="M204.893 100.232c-2.257 2.29-4.068 4.869-5.241 7.871-.706 1.803-1.094 3.65-1.078 5.575.033 3.974.107 7.946.678 11.883.638 4.401 1.02 8.825 1.193 13.272.152 3.886-.124 7.735-.93 11.553-1.627 7.698-4.894 14.63-9.952 20.724-1.552 1.87-3.252 3.606-4.995 5.3-2.238 2.175-4.621 4.18-7.091 6.085-2.361 1.82-4.788 3.551-7.313 5.14a265.817 265.817 0 0 1-5.245 3.244 39.37 39.37 0 0 1-5.617 2.772c-1.569.626-3.216.954-4.872 1.233a3.27 3.27 0 0 1-.614.041c-.706-.017-1.073-.379-1.026-1.094.029-.435.13-.875.263-1.292.242-.75.642-1.427 1.093-2.075 1.138-1.63 2.448-3.12 3.87-4.506 1.617-1.577 3.281-3.106 4.92-4.661.197-.187.396-.388.53-.62a.856.856 0 0 0 .087-.565c-.048-.225-.289-.277-.498-.268-.306.014-.611.076-.918.094-.51.032-1.03.106-1.533.055-1.4-.142-1.77-.832-1.167-2.097.384-.806.905-1.527 1.482-2.205.708-.833 1.446-1.642 2.166-2.465.27-.31.54-.62.784-.948.119-.16.196-.357.257-.548.071-.231-.108-.52-.345-.53a3.106 3.106 0 0 0-.809.06c-.768.173-1.53.38-2.296.56-.467.108-.937.206-1.41.277a2.95 2.95 0 0 1-.816.012c-.58-.077-.919-.468-.867-1.056.035-.4.116-.82.287-1.18.38-.798.764-1.609 1.267-2.332 1.13-1.625 2.336-3.197 3.507-4.795.97-1.323 1.902-2.674 2.648-4.135.323-.636.615-1.296.838-1.971.444-1.346.036-2.486-1.005-3.386-1.238-1.07-2.72-1.511-4.354-1.467-1.273.034-2.515.293-3.738.641-2.604.743-4.943 2.005-7.095 3.632-1.78 1.345-3.44 2.828-5.027 4.39a246.731 246.731 0 0 0-4.926 4.945 233.223 233.223 0 0 0-4.743 5.116c-2.021 2.232-4.04 4.467-6.29 6.477-2.02 1.805-4.134 3.497-6.593 4.697-.553.27-1.126.505-1.704.714-.318.116-.665.18-1.002.206-.949.068-1.283-.313-1.05-1.208.093-.358.228-.722.422-1.036.322-.52.706-1.002 1.064-1.5.1-.137.227-.26.3-.408.141-.286-.118-.674-.433-.636a2.79 2.79 0 0 0-.682.199c-1.24.493-2.474 1.004-3.717 1.492-.445.174-.904.325-1.369.438a4.34 4.34 0 0 1-1.016.106c-.455 0-.646-.246-.497-.657.15-.413.324-.83.563-1.197.39-.599.82-1.176 1.273-1.73.649-.795 1.338-1.556 1.997-2.342.218-.26.433-.534.584-.833.19-.376-.087-.786-.513-.777a3.441 3.441 0 0 0-.804.137c-.695.185-1.38.405-2.078.576a7.058 7.058 0 0 1-1.215.173c-.187.012-.38-.082-.578-.13-.027-.457.185-.773.42-1.057.612-.735 1.216-1.48 1.88-2.168.88-.91 1.795-1.787 2.73-2.642 1.061-.97 2.162-1.896 3.242-2.845 2.238-1.966 4.494-3.912 6.704-5.909a159.07 159.07 0 0 0 5.236-4.923c3.366-3.33 6.453-6.888 8.863-10.978.905-1.535 1.662-3.133 2.12-4.858.21-.793.362-1.596.341-2.417-.065-2.498-1.237-4.115-3.64-4.957-.942-.331-1.933-.421-2.93-.423-2.215-.003-4.345.465-6.426 1.216-2.26.816-4.424 1.85-6.61 2.835-1.717.774-3.418 1.587-5.203 2.2-1.039.355-2.085.686-3.18.815-.369.044-.752.05-1.12.004-.437-.055-.659-.353-.586-.795.06-.364.176-.729.33-1.065.448-.974 1.125-1.788 1.9-2.522.323-.306.685-.57 1.016-.868.148-.134.285-.293.387-.464.118-.196-.11-.544-.333-.503-.229.042-.46.124-.667.232-1.367.713-2.72 1.452-4.094 2.153-1.648.842-3.326 1.625-5.103 2.162-.686.208-1.393.356-2.098.488-.433.081-.884.106-1.315-.16-.161-.405-.002-.788.137-1.168.34-.935.838-1.79 1.415-2.598.376-.528.798-1.023 1.206-1.528.171-.213.361-.41.539-.619.124-.145.139-.308.039-.467-.105-.167-.352-.216-.546-.1a5.498 5.498 0 0 0-.504.352c-.383.29-.755.594-1.143.876-2.661 1.936-5.397 3.76-8.24 5.421-1.006.588-2.002 1.194-3.022 1.755-.478.262-.995.46-1.51.642-.314.11-.652.226-1.065.053-.011-.163-.08-.37-.028-.541.17-.551.348-1.105.59-1.628.837-1.802 1.964-3.432 3.118-5.043 2.153-3.003 4.534-5.824 7.045-8.536a205.952 205.952 0 0 1 5.608-5.855c1.743-1.74 3.563-3.405 5.363-5.088 1.902-1.777 3.866-3.49 5.958-5.043 1.924-1.428 3.894-2.799 5.873-4.153a108.604 108.604 0 0 1 4.654-3.025c5.872-3.591 12.016-6.59 18.707-8.339 6.675-1.744 13.29-1.515 19.831.553 2.163.684 4.14 1.74 6.071 2.89 1.344.802 2.673 1.626 4.018 2.424 1.173.695 2.41 1.263 3.68 1.764 3.184 1.258 6.44 1.467 9.752.513 1.48-.426 2.923-.976 4.387-1.455.911-.298 1.823-.597 2.75-.84 1.073-.281 2.168-.287 3.262-.125.989.148 3.931 1.004 5.084 1.495-.677.646-1.308 1.217-1.904 1.822z" fill="#FDF2E0"/>
        <path d="M196.797 103.524c-.461-.542-.428-1.184-.092-1.838.205-.4.613-.651 1.12-.67 1.085-.043 1.933 1.102 1.493 2.022-.231.482-.613.84-1.201.973-.613.138-1.009-.103-1.32-.487" fill="#1E7DA7"/>
        <path d="M155.62 123.423c-.11-.626-.1-1.252.083-1.87.243-.817.764-1.385 1.62-1.637.693-.205 1.39-.22 2.093-.127.92.121 1.798.378 2.648.723 2.004.81 3.792 1.956 5.466 3.28.099.078.173.22.365.135l-.374-.918c-.504-1.229-.988-2.464-1.267-3.77-.23-1.077-.323-2.167-.198-3.274.09-.795.317-1.549.832-2.2.523-.662 1.19-1.078 2.052-1.144a4.32 4.32 0 0 1 2.053.333c1.241.528 2.094 1.456 2.748 2.57.585.999.959 2.091 1.308 3.19.604 1.9 1.06 3.84 1.542 5.774a63.504 63.504 0 0 1 1.861 12.82c.017.41.02.823.023 1.235 0 .113-.027.226-.038.319-.195.095-.3-.006-.417-.073-.821-.474-1.634-.96-2.464-1.417-2.372-1.309-4.779-2.554-7.268-3.65a72.09 72.09 0 0 1-3.11-1.484c-1.97-.983-3.859-2.092-5.627-3.386-1.15-.841-2.19-1.79-2.949-3.001-.47-.752-.825-1.55-.981-2.428" fill="#E86748"/>
        <path d="M160.28 129.405c1.763 1.33 3.646 2.476 5.605 3.494a73.188 73.188 0 0 0 3.095 1.54c2.475 1.14 4.87 2.43 7.233 3.784.826.473 1.637.975 2.454 1.464.116.069.223.173.413.079.01-.094.036-.208.034-.322a36.37 36.37 0 0 0-.038-1.25 66.316 66.316 0 0 0-2.001-12.99c-.502-1.962-.977-3.93-1.597-5.86-.36-1.115-.742-2.225-1.334-3.242-.66-1.136-1.515-2.085-2.75-2.634a4.243 4.243 0 0 0-2.034-.363c-.851.056-1.506.469-2.014 1.131-.502.652-.717 1.412-.796 2.215-.11 1.118-.004 2.222.237 3.314.292 1.325.787 2.58 1.3 3.83l.382.933c-.19.083-.264-.062-.363-.142-1.672-1.36-3.454-2.54-5.447-3.386a10.706 10.706 0 0 0-2.627-.764c-.696-.103-1.386-.096-2.07.102-.841.244-1.35.812-1.58 1.636-.174.622-.176 1.255-.058 1.89.166.89.527 1.702 1 2.468.766 1.235 1.808 2.208 2.955 3.073m-13.505-6.902c-.008-.01.001-.033.01-.133.203.09.367.158.526.236a74.46 74.46 0 0 1 5.187 2.785c.205.121.407.248.62.354.121.061.259.103.394.12.187.025.359-.155.316-.336a1.348 1.348 0 0 0-.184-.429c-.33-.493-.689-.969-1.01-1.468-.526-.816-1.055-1.63-1.54-2.47-.949-1.648-1.796-3.353-2.82-4.957-.651-1.02-1.314-2.031-2.127-2.933-1.235-1.37-2.556-2.654-3.87-3.947a52.15 52.15 0 0 1-1.203-1.233c-.054-.057-.168-.12-.069-.264.25.12.5.232.743.36 1.449.757 2.97 1.312 4.557 1.717 1.23.314 2.448.682 3.66 1.06 1.824.567 3.571 1.322 5.26 2.213.192.102.382.21.577.309.087.045.182.105.274.106a.385.385 0 0 0 .252-.111c.04-.041.042-.158.013-.217a1.663 1.663 0 0 0-.238-.336c-.798-.908-1.613-1.802-2.394-2.723a26.31 26.31 0 0 1-1.498-1.92c-1.307-1.866-2.588-3.749-3.878-5.626-.052-.076-.14-.148-.053-.287.102.027.217.043.32.087 1.006.424 2.018.833 3.011 1.284 1.355.614 2.707 1.233 4.1 1.762a16.15 16.15 0 0 0 3.276.864c.785.121 1.569.252 2.355.365 1.695.244 3.256.856 4.743 1.68.522.289 1.019.614 1.445 1.036.07.07.138.151.224.192.08.038.197.062.271.03.123-.053.14-.184.097-.307-.046-.13-.1-.258-.156-.385-.957-2.198-2.014-4.349-3.12-6.475-.512-.983-1.053-1.951-1.577-2.928-.013-.023.015-.067.033-.136.108.056.212.103.31.162 1.69 1.009 3.28 2.154 4.723 3.493.728.675 1.418 1.394 2.003 2.191 1.067 1.454 2.083 2.943 3.002 4.496.857 1.45 1.697 2.91 2.431 4.426.836 1.73 1.657 3.466 2.46 5.211.896 1.943 1.734 3.911 2.412 5.942.677 2.024 1.08 4.097 1.072 6.242-.006 1.45-.138 2.89-.322 4.328-.174 1.357-.323 2.717-.489 4.076-.098.807-.207 1.613-.318 2.418-.015.11-.063.216-.1.339-.115-.032-.192-.045-.263-.074a14.682 14.682 0 0 0-2.743-.793 94.643 94.643 0 0 0-3.408-.563c-1.807-.274-3.614-.54-5.404-.912-1.538-.32-3.054-.718-4.498-1.348-2.555-1.114-4.81-2.673-6.82-4.593-1.192-1.137-2.298-2.355-3.385-3.588-1.232-1.396-2.43-2.823-3.645-4.232-.945-1.095-1.898-2.183-2.841-3.279-.246-.285-.471-.586-.704-.88" fill="#F6981E"/>
        <path d="m129.697 125.08-.141.03c.033.04.072.083.135.155-.053.009-.106.031-.114.017-.032-.05-.079-.14-.065-.161.035-.055.098-.08.15-.117l.035.075m.33 1.85-.06-.105.146-.186c.099.14.099.14-.086.292m-.466-1.543-.252-.07c.01-.113-.05-.272.094-.23l.158.3m-.512-.297c.057-.12.11-.26.184-.379.02-.032.101-.004.185-.002l-.184.37.228-.058.02.071c-.07.045-.12.14-.244.005-.034-.037-.116-.006-.189-.007m.53 1.505c-.034-.035-.066-.071-.11-.12l.146-.103c.057.317-.012.483-.27.62l-.114-.283.3.115-.063-.225c.037.01.07.02.102.031l.008-.035m-3.14-3.602c.016.043.027.085.047.118.02.033.05.059.076.088-.02.018-.038.04-.06.053-.096.052-.213-.05-.32-.077-.022-.007-.045-.023-.067-.036l-.172-.1c.02-.09-.038-.241.063-.27.085-.024.177.01.234.13.078.164.135.148.198.094m-.727-.022.132.222c-.046.014-.12.036-.192.06l-.047-.06.111-.22-.223-.13.008-.227c.108.106.264.158.21.355m.119 2.208c-.103-.045-.092-.125-.09-.203l.03-.016c.037.076.073.153.108.229.066-.11.116-.098.281.057-.007.045-.014.087-.02.136-.066.04-.14.088-.217.136.033.049.06.083.082.122.038.065.068.137.124.051.007-.01.062.029.098.046l.027-.086.034.014-.007.153c.123.012.227.133.253.287.006.035.021.09.04.103.131.082.263.154.406.235l.018-.182.11.016c-.028.065-.085.14-.067.176.032.065.108.108.165.16l.083-.168.124.057c-.093.09-.016.152.036.21l-.022.153.293.119a9.34 9.34 0 0 1 .056-.112l.045.108.046-.108c.212.046.077.23.13.31l.246.023a68.533 68.533 0 0 1-.125-.248c.17.019.133.239.26.32l.082-.119c.133.149.114-.114.215-.086l.041.134c.046.056.142-.027.136.123 0 .01.028.038.038.036.016-.001.032-.016.04-.033.008-.02.007-.047.01-.067.127.048.224.207.363.135.102-.052.234-.045.348-.063.018-.038.026-.1.056-.113.132-.057.27-.101.407-.15a11.8 11.8 0 0 1-.065-.079c.227-.239.25-.284.217-.417l-.133.027c.015-.064.015-.127.041-.158.06-.07.08-.217.016-.286-.076-.079-.156-.102-.197.024l-.045-.24.108-.04-.073-.145c.033.01.048.012.062.02.04.024.078.05.117.075-.027-.062-.045-.131-.08-.186-.041-.062-.097-.112-.173-.197l.117.044a18.38 18.38 0 0 0-.022-.117l-.24-.003c.014-.035.025-.073.045-.102.02-.031.05-.054.102-.11l-.301-.064.049-.206.04-.016c-.067-.058-.133-.144-.2-.163-.046-.014-.093.065-.14.103l-.03-.038.126-.195c-.078-.097-.154-.196-.233-.29-.123-.143-.256-.275-.367-.43-.079-.108-.22-.096-.261-.259-.003-.012-.03-.023-.045-.032l-.167-.082.006-.022c-.09-.055-.173-.102-.253-.155-.055-.037-.108-.108-.16-.12-.078-.016-.117-.048-.136-.141-.017-.09-.054-.123-.127-.097-.035.013-.09-.025-.154-.047-.03.043-.124.008-.186-.087a.39.39 0 0 0-.126-.135c-.143-.071-.29-.126-.436-.189l-.015.115c-.088-.262-.127-.3-.234-.262-.068-.099-.125-.207-.2-.286-.089-.092-.196-.155-.29-.238a1.01 1.01 0 0 1-.174-.189c-.09-.133-.216-.177-.294-.081l.101.149-.015.042c-.027-.021-.065-.036-.08-.064-.067-.121-.114-.14-.184-.071-.023.022-.062.027-.096.03-.031.002-.066-.01-.108-.017.045.093.092.162.107.232.017.072.001.146 0 .219l.028.008.01-.13.044.128.123-.022-.084.174c-.03.012-.067.032-.067.063-.003.124-.042.174-.152.124-.014-.006-.034-.006-.044.003-.078.069-.154.14-.235.216.11.106.181.22.103.358l-.105-.11.026.27c.074.045.192.011.162.18l-.083-.086-.151.09c.148.171-.052.402.158.587.001.001-.002.009-.002.014.008.2.094.38.19.565.023 0 .048-.002.083-.004l-.034.082c.115.202.218.097.33.094l-.22.152c.048.044.09.083.115.104.014.054.019.095.035.13.084.176.18.073.273.09M131.695 119.395l-.103-.073c-.038-.084-.034-.234-.196-.287-.055-.018-.103-.165-.156-.255l-.066.06c.202.135.195.291.113.497-.072-.235-.325-.3-.31-.57-.264-.251-.38-.692-.226-.83l-.135-.416c.04-.125.073-.212.093-.304.002-.014-.054-.06-.094-.102l.132-.034-.044-.056c.048-.063.095-.128.146-.19.038-.047.072-.086.14.01.015.022.11.004.141-.03.093-.1.238-.095.353.026.044.047.096.079.164.133l-.013-.161c.005 0 .011 0 .012.002.095.17.23.238.374.301.09.039.175.107.262.163.126.081.253.16.376.247.084.058.164.127.259.202l.084-.09-.022.107c.068.007.165-.112.185.097.188-.032.34.122.454.48.003-.05.003-.074.006-.096.003-.022.004-.05.016-.062.014-.015.04-.016.073-.028-.009.139.014.233.148.228.022-.001.057.063.087.096.022.025.048.066.068.067.12.009.163.125.219.23a.262.262 0 0 0 .078.088c.066.044.161.06.2.122.142.234.354.356.515.554.077.095.133.215.206.316.06.081.127.19.198.218.153.06.159.266.302.345l-.085.035.008.03.131-.005c.086.109.146.223.226.279.119.083.102.15.053.258l.096-.07.187.27-.102.005c.076.129.309.168.188.386.032.02.055.03.075.045.016.013.039.034.04.048 0 .02-.014.04-.026.051-.03.028-.065.05-.09.078-.083.043-.076-.217-.193-.11-.02-.066-.04-.132-.064-.205l.08-.045-.103-.111c-.012.028-.03.053-.036.085a.123.123 0 0 0 .019.073c.066.105.048.18.006.218l.068.194.086-.079.054.191c-.18.098-.369.072-.569.029-.074-.017-.145.086-.236.147l-.06-.17a.325.325 0 0 0-.286-.016c-.045.019-.121-.016-.181-.044-.082-.039-.16-.095-.24-.143l.009-.036.15.061-.042-.216a75.33 75.33 0 0 0-.328.142c-.043-.16-.053-.275.016-.368.01-.014-.018-.069-.022-.084l-.282.257c-.138-.111-.293-.24-.451-.36-.043-.033-.098-.038-.147-.054l-.305-.098c-.015-.139 0-.232.133-.218.017-.048-.115-.175.076-.145l-.168-.133c.03.29-.122.034-.186.08l.062.151c-.168-.103-.303-.081-.457-.154-.176-.083-.29-.312-.475-.326-.017-.002-.056-.056-.055-.073.003-.027.032-.044.032-.044.026-.21-.05-.389-.163-.567l-.066.044.1.102-.013.028-.165-.086.005.176v-.005l-.152.004-.021-.173.138-.156a.787.787 0 0 0-.019-.023l-.454.069-.012-.04.183-.182.085.091.028-.149.078.113c.065-.05.157-.081.063-.205-.057.005-.106.027-.153.012-.144-.044-.144-.049-.107.136M128.802 101.054l.002.442-.157.058.092-.515.063.015m1.052-1.166c-.038.022-.083.059-.134.074-.039.012-.086-.002-.13-.004l.009-.156c.146.026.029-.101.085-.15l.135.025.035.211m1.548 5.14.143-.148c-.004.196-.099.307-.238.324-.054.006-.13-.138-.202-.22l.14-.145c.05.063.102.123.157.189m-1.58-3.772c.254.238-.004.358-.035.545l-.15-.272.02-.249.085.15.08-.174m-.441 3.496v-.005l.338-.059-.223.163c.179.104.239-.032.33-.117.01.066.028.15-.002.18-.118.116-.042.21.026.31.016.022.048.032.073.048.006-.039.023-.08.014-.115-.004-.024-.045-.04-.07-.06l.024-.041.181.12c-.17.127-.12.277-.062.44l.102-.11c.04.25.2.223.34.197l.18-.146c.029.053.047.117.088.15.061.049.125.039.154-.05.003-.006.04-.002.06 0 .054.007.108.025.16.022.122-.007.243-.025.374-.04.005-.016.004-.079.032-.098.134-.091.128-.253.164-.386.067-.242.102-.495.154-.76l-.077-.103.043-.005a12.119 12.119 0 0 1-.004-.131l-.209.04c.231-.177.192-.09.122-.4-.01-.045.01-.095.013-.125-.028-.037-.067-.066-.067-.093-.002-.071.024-.142.02-.214a2.273 2.273 0 0 0-.045-.387c-.024-.106-.08-.204-.13-.328l-.23.11a10.84 10.84 0 0 1-.02-.036l.056-.142.149-.004c-.127-.077-.07-.178-.062-.259.011-.104-.05-.223-.133-.253-.024.04-.04.083-.07.108-.016.013-.056-.005-.086-.01.006-.043.007-.088.019-.129.009-.03.04-.053.046-.082.01-.047.024-.105.006-.144-.03-.064-.084-.116-.127-.173.027-.03.05-.057.091-.107l-.277-.052c0-.163.137-.336-.048-.497l-.04.117-.035-.012.052-.194-.112-.037c-.01-.047-.006-.096-.029-.119-.098-.102-.204-.196-.308-.292-.027-.026-.072-.044-.081-.074-.044-.143-.108-.117-.184-.022l-.06-.137c.05-.007.084-.012.13-.017a61.57 61.57 0 0 1-.256-.19l-.074.046c-.003-.231-.097-.413-.306-.487-.166-.06-.339-.087-.448-.228.001-.047.017-.103 0-.118-.031-.027-.096-.053-.121-.038-.167.102-.428.008-.525.256-.008.021-.056.025-.097.042l.052.263-.213.02c.022.08.048.131.048.181 0 .092-.003.18-.042.272-.042.098-.024.226-.033.342h.072c-.017.185-.033.357.112.491l-.105.148c.056.06.131.125.125.136-.084.146.024.293-.012.436l.05.014.11-.306.062.024-.045.165c.034.06.07.158.041.186-.114.112-.054.178.044.24-.027.06-.083.124-.07.172.039.156.103.307.159.463l.144-.058-.055.099c-.066.117-.103.235-.034.375.035.07.051.148.068.225.012.053.012.109.018.181l.202-.098c.023.074.075.157.055.198-.08.156-.12-.127-.206-.038.025.101-.04.267.173.232-.112.144-.112.144.025.353l-.02-.175.224.11c-.067.091-.059.162.025.23.029.024.04.07.06.107l-.034.027.133-.029-.056.291M137.762 114.69l-.302-.122c.164-.108.221-.095.302.121m-2.67-1.27.088-.054.183.189c-.075.101-.098.092-.272-.135m.736-.3c.03.05.061.099.089.15.008.014.006.035.004.022-.085.015-.161.035-.24.036-.027 0-.06-.049-.092-.076l.075-.042.164-.09m.272-.656.309-.37.036.278-.345.092m-2.648-1.748c-.104-.063-.291.043-.29.153-.065-.091-.065-.091.102-.212l.26-.183c.024.042.098.145.088.156a.635.635 0 0 1-.286.193l.126-.107m.064-.898-.07.205-.158-.042-.029.238c-.135-.117-.133-.284-.004-.423.083-.088.184-.112.261.022m1.814 4.36c-.027-.26.161-.238.248-.328l.179.36c-.182.087-.182.087-.29-.098l-.137.066m3.023.69v.006l-.115-.154c.11-.034.17-.148.131-.3l.08-.018c-.186-.127-.268.002-.35.133a1.805 1.805 0 0 1-.032-.037l.108-.156-.069-.204.196-.07-.367-.499a.287.287 0 0 0-.063-.067c-.006-.004-.043.025-.043.041 0 .032.012.068.028.097.013.02.04.031.057.044l-.14.179-.01-.148c0-.056.019-.122-.004-.166-.048-.092-.087-.173-.06-.28.007-.026-.046-.082-.077-.117a8.171 8.171 0 0 0-.256-.265c-.06-.06-.125-.116-.222-.206l-.274-.372c-.02.03-.039.059-.057.089l-.05.085c-.023-.033-.07-.076-.066-.097.018-.065.055-.123.088-.193l-.222-.153-.149.104-.184-.365.206.153a.524.524 0 0 0-.113-.177c-.031-.034-.068-.062-.107-.096l-.056.107c-.094-.039-.22-.05-.26-.118-.04-.064.01-.186.025-.317-.081.004-.169-.004-.247.017-.082.022-.154.071-.23.109l-.034-.036c.128-.127-.008-.228-.04-.34l-.122.038c-.081-.08-.156-.203-.252-.24-.106-.04-.152-.09-.172-.182l.2.05c.09.225.17.245.339.063-.154-.12-.274-.313-.472-.274-.045-.06-.076-.122-.12-.16-.209-.175-.422-.344-.634-.514-.005-.005-.017 0-.032 0l.05.117-.313-.094a14.419 14.419 0 0 0-.004-.12c-.065.01-.128.018-.19.026l-.008-.04.109-.037c-.42-.12-.955.02-1.051.28l.24-.06.012.03-.1.074c.033.097.181.181.06.277-.024.02-.113-.055-.202-.101l-.13.36c-.003.009.014.027.02.04.075.155.153.309.221.466.02.045.012.102.017.154l-.042.001c-.006-.013-.01-.028-.02-.038-.028-.034-.059-.066-.088-.098-.005.044-.026.09-.015.13.024.084.07.162.095.246.03.1.09.11.167.1.092-.01.185-.014.286-.021l.05.212.025.12.096-.067c.039.03.08.065.107.086l-.08.202.046-.018c.083.065.2.113.239.197.043.096.014.224.017.348l.13.069.056-.104.134.1c-.008.085-.03.157-.015.223.009.04.096.112.11.103.117-.074.195-.102.166.11-.001.005.024.015.036.025l.233.195.243-.203.034.213.133-.06.277.27-.13.109.347.109-.057.193c.044.053.082.08.086.108.013.112.102.205.172.207l.351.478c.006-.06.024-.115.013-.166-.034-.158-.039-.158.06-.272l-.072.158.124.126-.051.066.144.036c-.025.028-.034.042-.047.05-.064.046-.037.08.024.09a.238.238 0 0 0 .14-.018c.049-.025.128-.09.12-.11-.083-.203.071-.235.171-.309l-.047.14c.04.026.08.04.105.07.028.031.044.077.064.117l.064-.07c.11-.013.224.01.26-.039.104-.143.135.004.19.04l-.216.049-.001.053.26.183.028-.09c.07.106.238.177.135.356.058-.049.116-.098.192-.16l-.026-.084.109-.034c.054.112.052.105.155.074.044-.014.098.005.114.007l.133-.19c.014.012.028.022.042.032l-.086.216c.022-.007.04-.014.056-.018.084-.02.184-.025.128-.175-.003-.008.024-.026.038-.039M128.23 112.67c.014.062.03.13.044.198-.08-.002-.212.133-.206-.095l.162-.103m-2.354-.809-.136-.39c.019-.005.037-.01.055-.017.013.091.235.11.08.264-.006.006.04.078.061.12l-.06.023m1.627 3.072.055-.241.217.303-.027.033c-.074-.03-.15-.058-.245-.095m-1.98-3.303-.142-.044.1-.338.076.03-.034.352m2.093 3.03c.01-.106.02-.189.031-.31l.264.138-.295.171m.119-.477c.04-.135.004-.29.178-.288l.006.259-.184.029m.778.466-.125.182-.043-.024.084-.266c-.067.005-.11.008-.158.01l.065-.29.177.388m-2.689-3.35c.072-.028-.06-.208.105-.18.074.013.119-.082.12.084.001.013.088.038.137.089l-.362.008m.026-.566c.135-.118.116-.254-.013-.414l.27.075c-.136.391-.136.391-.257.339m2.679 2.608-.16.034-.045-.194c-.091-.07-.171-.129-.244-.195-.017-.015-.016-.065-.013-.096.002-.01.044-.021.056-.011.017.015.019.054.035.072.035.04.074.076.115.108.092.073.186.143.28.215l-.024.067m-1.058.036c-.18-.185-.196-.258-.087-.481l.16.251-.073.23m1.348 1.143-.281.133c-.05-.07-.112-.149-.162-.236-.007-.012.04-.061.063-.093.1.146.223.204.377.121l.003.075m-2.005-1.837c-.014.173-.033.291-.027.413.002.028.083.066.142.11l-.086.187c-.038-.081-.071-.166-.118-.24-.058-.096-.128-.183-.224-.317l.19.084.123-.237m-.5-.023-.064.172-.481-.056c0-.012.002-.023.003-.035l.048.014.04-.282c.12.24.276.211.455.187m.456-.543c.049.145.12.057.189-.002.025.134.025.134-.156.148l.199.185c-.138.053-.237.094-.34.127-.066.022-.133-.063-.136-.182l.176.085.019-.045-.16-.135c.06-.052.133-.116.21-.181m1.568 2.175-.082.042-.017-.03c.041-.088.078-.18.126-.26.017-.03.058-.039.092-.042.028-.003.062.017.094.027l-.045-.13c-.006-.018-.007-.037-.017-.092l.155.066c-.001.123.011.244-.007.348-.013.08-.05.168-.105.197-.032.018-.117-.074-.194-.126m-1.824-2.622.183-.145-.093.467c-.047.11-.132.114-.226.035.056-.087.133-.177.061-.29l-.076.176-.048.009c-.004-.134.011-.277-.175-.334.217.026.311-.1.394-.244l.054.034c-.027.053-.042.115-.084.156-.084.082-.044.112.01.136m.883 3.929h.006c.049-.015.098-.038.143-.056.07-.026.055-.06.11.01.017.022.038.039.063.063l.014-.316.175.296.066-.138.086.094c.048-.054.138-.103.133-.16-.01-.134.089-.118.12-.186l.04.024-.07.307.284-.017.128-.03-.09-.365c.158.164.26.004.392.026.009-.114.009-.231.028-.34.028-.149.002-.2-.16-.238.032-.042.055-.073.08-.103l.077-.09-.106-.368c-.058-.027-.183.007-.126-.157l.11.052a51.745 51.745 0 0 1-.073-.192l-.177-.03.083-.211.038.144c.03-.128-.011-.175-.119-.154-.03.005-.07-.018-.105-.033-.004-.002-.001-.036-.001-.055l.114.039c.076-.217-.188-.168-.22-.33.04.03.064.05.117.092-.006-.088.004-.154-.019-.208-.041-.1-.101-.194-.153-.29l-.026.277c.018.058.045.118.052.176.004.033-.016.08-.039.095-.018.011-.059-.018-.087-.028l.079-.242-.097-.153c.01-.048.013-.096.029-.134.005-.012.044 0 .068.003a.339.339 0 0 0-.131-.294l-.03.021.052.082-.159.1c.017-.085.012-.144.036-.171.103-.12.093-.208-.034-.35-.06-.066-.101-.154-.15-.233-.034-.056-.062-.119-.1-.17-.064-.083-.135-.16-.202-.239l.019-.024-.17-.005c.04-.182-.026-.274-.173-.307-.017-.004-.032-.047-.05-.069-.103-.12-.17-.3-.35-.28-.09.01-.154-.07-.192-.178-.02-.06-.056-.116-.085-.173l-.094.003.034.137-.104-.042.052-.151c-.052-.014-.103-.03-.155-.041-.022-.005-.043-.002-.065-.002l.085.056-.146.18c-.012-.109-.184-.114-.137-.24.077-.069.152.193.203.005-.032-.044-.07-.125-.094-.125-.109-.001-.213.028-.321.034-.088.004-.17-.007-.07.145.013.022-.013.076-.022.12-.041-.033-.068-.055-.099-.078l-.047.125-.013-.047-.317-.006-.11.16c.013.042.03.108.053.172.045.124.102.15.18.076.025-.024.031-.073.046-.11.034.008.067.019.1.026.032.007.064.01.103.017-.044.047-.114.091-.106.118.02.07.076.132.118.197l-.007.035c-.058-.041-.115-.085-.174-.124-.027-.018-.062-.044-.083-.037-.045.014-.083.046-.126.072l-.02.293-.071.02c.052.055.115.093.128.14.054.187.173.258.312.311.022.008.042.03.063.047l-.057.05.248.355-.107.16-.267-.109.001-.053.255-.037-.114-.146-.166.129c.012-.1.034-.16.023-.217-.01-.06-.053-.117-.071-.154-.056.06-.094.139-.154.158-.099.03-.057.083-.024.151l.16-.055c-.036.075-.04.13.068.16l-.172.152a58.402 58.402 0 0 1-.174-.127l-.016.039.053.054-.086.146.109.11.01-.19.049.009.018.316-.03-.014-.05.192.636.27.085-.138.02.205c-.103.037-.203.064-.294.11-.047.024-.11.08-.106.127.008.077.064.157.1.236l.012-.009.042.22.05.008c.004-.121.04-.25.006-.362-.044-.149-.01-.205.075-.246l.074.126a32.87 32.87 0 0 1-.138.089c.068.031.107.05.145.066l-.014-.065c.086.02.128.077.108.18-.029.156-.11.25-.245.268l.074.205c.045.019.099.025.13.06.016.02-.005.085-.007.114l.208.17-.041-.345-.17-.062.034-.154.173.16.207-.15-.014.141.15.111-.107.096-.105-.228-.081.073c.042.088.074.149.1.213.01.029-.003.075.013.092.036.042.082.071.124.106l.062-.14-.117.007c.027-.058.083-.119.104-.103.108.08.117.008.135-.075.004-.015.049-.01.074-.015l-.073.287c.138.057.268.081.347-.084l.155.262-.034.02c-.012-.027-.022-.055-.037-.08-.017-.028-.038-.054-.056-.08l-.05.02.122.486.273-.162a4.864 4.864 0 0 0-.029-.05l.028-.02.077.133c-.029.015-.058.03-.087.047l.037.061c-.228.045-.228.045-.232.096l.212.08.057-.14.093.119c-.04.048-.07.123-.115.128-.122.014-.101.074-.04.167M115.256 115.61l-.147-.171.097-.178.042.104.083-.109a8.51 8.51 0 0 0 .047-.012c.015.064.06.135.038.191-.028.07-.112.126-.16.176m.835-2.123.045.017-.086.166.214-.076c-.042-.037-.082-.062-.109-.096-.034-.046-.066-.076-.137-.028a.055.055 0 0 1-.045.001c-.049-.029-.095-.06-.142-.092l-.102.18-.118-.16.143-.04c-.077-.054-.13-.107-.2-.135-.05-.021-.129.004-.182-.014-.14-.048-.094.068-.132.11a.068.068 0 0 1-.033.02c-.108.017-.23.065-.32.043-.118-.03-.197.065-.298.064-.009 0-.028.058-.041.09-.004.008-.004.02-.01.026l-.109.096c.124.005.135.052.102.116l.143.062-.013.02-.124-.01.06.105c-.166.069-.14.151-.075.211l-.086.218c-.068.023-.14.055-.03.131.028.02.035.09.017.127-.06.125-.006.244.115.298.058.026.077.107.113.163.006.015.054.015.075-.005.061-.06.057-.063.126-.026-.094.071-.044.114.005.136-.019.066-.06.153-.043.161.054.028.13.027.212.04-.063.086-.04.155.075.157.02.048.029.082.046.112.072.124.19-.004.273.012.031.049.067.096.119.109.035.008.092-.032.165-.06l.011.192c.086-.092.161-.156.058-.223-.007-.005.007-.036.015-.053.052-.098.191-.14.305-.107a.639.639 0 0 0 .273.033c.194-.034.364-.192.577-.159.017.003.047-.03.07-.045l-.015.031.342.101-.009-.154.088.06c.088-.096.166-.193.286-.162l-.001-.419-.132.039.038-.147-.035.018c-.02-.024-.055-.046-.06-.074-.024-.137-.05-.15-.22-.078-.004-.033-.011-.062-.01-.092.003-.105-.061-.163-.175-.17-.04-.004-.088-.02-.11-.047-.046-.06-.07-.135-.118-.194-.052-.063-.122-.115-.185-.171l.022-.027-.188.033.035-.113-.296-.062c.01-.037.016-.068.02-.087l-.483.112-.016-.038c.033-.04.08-.119.095-.115.119.026.162-.049.205-.131M117.553 109.632l.095-.183.168.01.014-.262.214.007.005-.05-.403-.134.076-.19c-.1.05-.155.086-.163-.047-.007-.12-.06-.235-.09-.353-.009-.038-.008-.08-.03-.109l-.064-.195.04-.017.205.262.02-.004c-.038-.143-.077-.285-.117-.428-.007-.025-.028-.054-.02-.073.044-.105-.034-.087-.144-.092l.134-.124c.012.008.024.017.035.027l-.014-.094.207-.048c-.053-.048-.084-.078-.135-.126.16-.113.349-.048.512-.126.01-.121.062-.15.325-.154.005.037.012.073.013.11.001.036-.005.071-.007.102h-.266c.106.075.182.139.267.188.089.052.182.11.28.127.073.012.155-.047.235-.058.029-.004.073.032.095.061.035.047.043.12.086.152.16.123.38.175.46.39.216.03.198.267.33.368.032.024.085.019.13.027.054.092.058.231.217.241.019.001.057.086.045.104-.027.04-.08.061-.137.1l.122.005-.035.14.197-.153h.003c.053.232.276.355.359.575.05.134.163.241.12.405-.027.1-.014.224-.072.296-.045.057-.171.054-.263.069-.032.005-.069-.016-.127-.03l.043-.07-.04-.012c-.018.023-.047.044-.05.069-.036.228-.218.267-.398.304-.07.014-.145 0-.216.01-.036.004-.07.044-.104.045-.111.003-.157-.063-.152-.192-.087.096-.155.184-.238.255-.033.028-.1.016-.152.022l-.007-.053.089-.021c-.02-.09-.07-.102-.137-.052-.086.064-.124.039-.163-.054-.023-.051-.092-.08-.134-.125-.04-.043-.105-.094-.102-.138.01-.124-.088-.135-.15-.138-.156-.008-.162-.005-.11-.194l-.26.16c-.016-.045-.033-.073-.034-.103-.005-.117-.083-.136-.178-.13-.125.007-.121.008-.142-.107-.008-.04-.039-.077-.06-.116l-.14.04-.086-.122v.006zM122.753 115.877l-.099.244c-.071-.061-.126-.103-.173-.15-.022-.024-.028-.057-.04-.086.033.007.066.019.102.018.05-.001.102-.012.21-.026m1.182 2.585c-.13.144-.218-.056-.379.01.032-.082.047-.138.079-.191a.166.166 0 0 1 .097-.058c.024-.002.042.034.06.055l.143.184m.568-.432.15-.288c.144.1.27.19.41.289l-.193.1c-.046-.06-.077-.122-.134-.162-.02-.014-.101.025-.233.061m.113-.032c.16-.137.14-.215-.038-.284-.156-.062-.156-.12.02-.289.08.128.161.249.234.374.039.068-.019.124-.216.199m.681-.614-.363.061-.022.057c.059.019.143.023.17.06.03.041.007.113.008.184l-.29.016c.145-.213.145-.213-.2-.184l.476-.322.221.128m-.175.727.304.19-.016.032a27.038 27.038 0 0 0-.232-.039l-.025.025.099.06-.098.09-.167.005-.012.102c-.12.01-.12.01-.085-.232.181.029.254-.043.232-.232l-.07-.223.148-.006a2.236 2.236 0 0 1-.014-.055l.266-.126c-.07-.032-.14-.041-.147-.07-.027-.117-.034-.24-.049-.36.068.006.134.028.156.011.038-.03.05-.082.083-.144l-.192.037c.257-.212.273-.322.063-.366l-.226.29-.02-.114-.165.156c-.007-.054-.026-.092-.011-.105.058-.052.135-.09.19-.144.051-.05.083-.11.124-.166l-.037-.01-.103.06.113-.238.12.02c-.017-.034-.052-.044-.085-.056-.03-.012-.082-.02-.084-.04-.01-.145-.154-.167-.286-.206l-.054.124-.047-.182.183-.018-.233-.249-.21.186-.048-.139-.3.112-.533-.39c-.048.006-.09.021-.11.012-.14-.063-.285-.12-.405-.202-.085-.058-.096-.026-.134.046-.02.04-.07.076-.104.111l-.05-.124c-.02.066-.029.09-.035.114-.008.03-.013.082-.022.084-.05.012-.117.028-.15.012-.12-.06-.229-.133-.366-.215l-.09.205c.196-.02.166.121.155.197-.008.06-.148.135-.23.203l-.024-.012.154-.238-.275.12.003.276c.071-.06.108-.09.14-.119l.126.236-.18.026c.02.07.037.136.056.21l.133-.09c.033.099.022.23.098.268.183.09.226.211.13.407l.268-.108s.014.02.005.033c-.078.11-.056.177.062.223.026.01.004.082.004.127l.148-.014c-.043.14-.195.063-.268.143.029.082-.051.214.113.271l.038-.172.267.037c-.034.064-.046.136-.095.172-.154.113-.087.15.013.183l.147-.113-.164.018.006-.051.316-.036-.04.053.085.166-.241.152.181.194.036-.018.024-.238.164.112-.167.26c.144.088.313.196.49.297.087.05.176.112.3-.039.04-.048.14-.07.219-.108l.05.094.136-.112-.005.035c.098-.014.198-.02.296-.045.092-.023.192-.045.261-.127a.197.197 0 0 1 .098-.048c.262-.053.268-.057.305-.252.003-.017.011-.035.013-.04-.044-.016-.11-.022-.11-.043-.01-.16-.143-.158-.307-.123M118.738 121.153l.054.188c-.139.008-.139.008-.054-.188m.257.306-.184.147-.186-.136.099-.078.271.067m.075.078-.06-.045c.015-.084.03-.167.044-.255l.113-.04c-.04-.121-.104-.15-.236-.113l.08.027c-.294.041-.318.04-.277-.013l.06.008.084-.162a22.56 22.56 0 0 0-.15-.087c-.083.174-.16.204-.348.144l-.194.2c.006-.03.006-.09.036-.147.032-.064.094-.124.156-.047.072-.076.09-.113.148-.287l-.67-.24-.024-.081-.06.08c-.069-.002-.16.009-.223-.012-.053-.017-.073-.072-.108-.11.12-.109-.094-.065-.09-.1-.053.026-.11.067-.153.069-.112.003-.218-.01-.3-.016l-.109.163c-.085-.019-.134-.09-.265.02l.124-.036-.251.243-.039-.078a1.328 1.328 0 0 1-.035.012v.132l.156.012c-.125.078-.29.125-.177.23.01.01-.01.043-.023.065-.013.024-.05.067-.046.069.04.014.083.03.132.029.042-.002.091-.026.137-.04a.322.322 0 0 1-.147.115c-.053.015-.109-.007-.163-.012-.015.144.07.23.194.2.02.203-.006.43.32.49l-.169.042.105.147.175-.078.06.263c-.134.096-.07.18 0 .296l.053-.129.37.007c-.045.027-.1.056-.153.088-.024.015-.046.034-.07.051l.061.02.086.032-.074.067.314.06c.003-.113.097-.259.181-.27.081-.013.158 0 .267.003l-.114.069.08.049c-.035.037-.069.068-.096.1-.07.083-.045.109.079.082l-.022.086.304-.271-.034.234c.127-.012.238-.045.25-.193l.08.09c.1-.105.338-.002.381-.208l.014.081.47-.119-.01-.288c-.109.061-.203.11-.178-.012.002-.01-.041-.014-.063-.022-.085.1-.155.01-.238.04.044-.03.09-.042.136-.059.113-.041.242-.04.327-.156.037-.05.23-.03.14-.148l.203-.067-.029-.081-.169.022.02.022c-.065.038-.129.075-.193.114a2.75 2.75 0 0 0-.05-.01c.02-.064.012-.14.063-.187.067-.062.18-.102.303-.168l-.162-.056-.117.132-.217-.062M122.348 105.882c-.519-.076-.545-.865-.181-1.192l-.3.094c-.073-.127.05-.352.3-.56-.1.04-.2.08-.32.13l.08-.337.419-.096c.015-.038.026-.057.022-.057-.184-.009-.216-.146-.417-.15-.069-.002-.1-.157-.077-.17.277-.16.207-.249.089-.34-.082.051-.343.083-.107.16.028.008.003.064.004.098l-.067.03-.149-.22.26-.136-.034-.203-.25-.014c.006-.014.015-.028.023-.042l.195-.072c-.24-.056-.044-.263-.088-.372.212-.13.417-.259.627-.382.035-.021.12-.039.137-.028.068.046.263.004.215.133-.003.008.11-.002.169-.003l.068-.073c.148.083.298.166.444.251.024.015.05.047.033.067-.218.264.106.109.228.11l-.013.163-.186.08c.035.024.068.05.107.07.151.078.304.154.456.23-.154.148.021.187.013.289.407-.13.08.18.259.19l-.255.167.18.154.116-.088c.232.02.072.198.137.32l-.209-.062c-.096.169-.034.24.15.24-.04.076-.078.137-.099.196-.011.031-.007.083.016.083.413-.012.087.28.134.418.013.043-.075.14-.206.107a.323.323 0 0 0-.149.053c-.061.14-.23.304-.091.401.02.014.045.031.04.053-.012.039-.045.082-.069.122l-.184-.048c.006.035.028.06.01.085a.419.419 0 0 1-.122.105c-.102-.008-.265.066-.301.063-.221-.024-.313.13-.46.218l.002-.348c-.098.078-.186.159-.291.228-.071.047-.165.078-.249.115.002-.038.004-.076.008-.115.004-.032.011-.065.015-.089l.235-.04c.006-.024.023-.068.018-.067-.104.01-.21.026-.315.04l-.02.04" fill="#1E7DA7"/>
        <path d="m123.431 115.817-.227-.089.016.13c-.031.009-.059.023-.08.02-.071-.006-.137-.025-.21-.027-.28-.008-.438-.143-.477-.365-.013-.079-.115-.13-.181-.198.116-.139.375-.227.51-.14.267.174.514.367.768.552l-.119.117M123.53 114.773l-.533-.074-.05-.282-.572.088c-.095-.135-.065-.343.096-.338.164.006.32-.078.51.08.181.151.37.284.556.424a8.456 8.456 0 0 1-.007.102" fill="#1E7DA7"/>
        <path d="M122.033 113.934c.008.159-.04.354.039.466.1.144.303.22.502.353l-.326.126-.006-.238c-.127.07-.242.424-.36-.079l-.179.433a27.705 27.705 0 0 1-.118-.004l.045-.477c.061-.01.157.001.197-.038a.388.388 0 0 0 .103-.222c.009-.098-.022-.196-.034-.293.045-.01.092-.018.137-.027M119.745 121.816l-.134-.141.34-.597c.085.082.23.169.287.295.052.113.053.364-.002.389-.14.067-.324.043-.491.054M122.508 114.25l.82.319c-.084.241-.203.33-.445.267-.291-.075-.289-.34-.43-.51l.055-.076M128.682 104.056l.598.828c-.223.086-.38.121-.45-.159-.044-.177-.157-.335-.22-.509-.015-.039.046-.106.073-.16zM119.615 122.862c.004-.211.008-.339.011-.534.106.115.177.193.257.278l.399-.313c-.005.154.026.329-.017.35-.196.094-.411.144-.65.219M117.207 109.667l-.272.213-.046-.04.098-.237a5.34 5.34 0 0 0-.06-.04l-.333.31.273-.608c-.023-.035-.047-.068-.071-.102l.482.064-.018.12-.316-.06.262.393v-.013M138.296 114.64l-.412.063-.351-.34c.401-.22.538.14.763.276" fill="#1E7DA7"/>
        <path d="M128.695 104.3c.122-.03.243-.06.372-.09l-.136.58-.163.015-.073-.505M118.132 121.471c.204.283-.084.252-.224.363-.114-.185-.218-.35-.321-.52.27-.137.227.497.545.157M124.853 105.58l.214.071-.093.167-.28-.149.333-.564c.155.305.155.305-.174.475M127.761 114.347l.012.001.413.15-.286.28-.315-.403.176-.028M127.268 113.578l-.098.145-.514-.085c-.021-.06-.053-.153-.106-.313.151.07.254.127.362.165.108.037.222.055.356.088M131.816 121.22l.395.436-.056.069c-.16-.085-.32-.17-.482-.254l.144-.26a.105.105 0 0 1-.001.008M128.09 104.788l-.277-.175-.14-.373.12-.038.277.316-.001-.01.02.28h.002zM138.716 114.48c.018-.023.03-.058.054-.069.078-.037.16-.07.243-.09.008-.002.073.12.056.142-.063.084-.148.15-.226.222l-.125-.217-.002.012M133.635 111.35l.477.118-.22.316-.257-.434M126.218 110.506c-.197-.238-.47.335-.62-.007.114-.04.237-.06.333-.124.164-.108.246-.062.287.13M125.929 111.35l.27.167c-.211.066-.35.11-.486.155l-.038-.087.254-.235" fill="#1E7DA7"/>
        <path d="M263.17 136.029c-.003.115.007.189-.007.258a5.665 5.665 0 0 1-.122.489c-.322 1.068-.639 2.138-.974 3.202-.104.335-.258.654-.389.98-.017.042-.038.084-.054.127-.068.181-.221.38-.047.552.197.192.397.01.577-.087.376-.201.747-.41 1.113-.63.522-.313 1.036-.64 1.557-.955.22-.133.44-.268.726-.367.001.103.015.173 0 .237a2.536 2.536 0 0 1-.111.35c-.597 1.512-1.283 2.978-2.228 4.31-.115.163-.22.332-.318.505a1.138 1.138 0 0 0-.116.298c-.048.203.043.376.241.423.143.033.3.04.447.022.615-.08 1.229-.17 1.842-.26.599-.09 1.197-.185 1.795-.273.118-.017.238-.02.338-.028.1.13.054.232.007.326-.212.425-.41.856-.647 1.266-.428.747-.96 1.418-1.534 2.056a2.74 2.74 0 0 0-.335.435c-.158.265-.07.488.219.561.174.043.357.064.537.065 1.208.015 2.416.021 3.623-.102a4.26 4.26 0 0 1 .407-.016c.024 0 .048.027.099.058-.026.075-.043.163-.082.24-.192.37-.445.696-.751.976-.248.227-.508.44-.764.657-.175.149-.358.287-.527.441a3.45 3.45 0 0 0-.382.396c-.272.34-.191.58.232.698.116.033.236.054.355.068.39.047.779.09 1.169.13.888.09 1.758.263 2.62.486.495.126.993.241 1.527.371-.12.113-.241.149-.363.185-.829.245-1.655.5-2.487.734-.744.21-1.49.413-2.24.591-1.497.357-2.994.423-4.488.036-1.297-.338-2.413-1.004-3.409-1.885a4.15 4.15 0 0 1-.566-.645 16.314 16.314 0 0 1-1.476-2.444c-.331-.666-.548-1.38-.736-2.1-.154-.588-.287-1.183-.338-1.792-.082-.975-.097-1.946.105-2.917.19-.91.545-1.75 1.032-2.536 1.138-1.834 2.503-3.473 4.143-4.873.186-.16.37-.319.558-.475.056-.046.123-.08.221-.144" fill="#E86748"/>
        <path d="m258.73 152.796.428.68c-.085.057-.153.116-.232.156-1 .514-1.91 1.155-2.775 1.867-1.569 1.292-3.024 2.7-4.405 4.184a33.773 33.773 0 0 1-5.078 4.49c-1.568 1.121-3.273 2-5.044 2.764a30.661 30.661 0 0 1-5.953 1.87 21.913 21.913 0 0 1-4.812.47c-.76-.012-1.521-.024-2.282-.05-1.223-.045-2.43-.236-3.627-.494-1.644-.353-3.283-.734-4.927-1.093a25.034 25.034 0 0 0-4.622-.565c-.49-.014-.982.023-1.472.054-1.155.07-2.3.216-3.443.386-1.612.24-3.226.477-4.86.525-.886.026-1.774-.01-2.661-.023-.11-.002-.22-.033-.345-.054-.113-.351-.075-.708-.1-1.037.118-.115.232-.083.339-.083.95 0 1.901.019 2.851 0a39.287 39.287 0 0 0 2.42-.122c.836-.07 1.667-.183 2.5-.28 1.399-.161 2.786-.412 4.195-.496a22.367 22.367 0 0 1 2.946.044c1.918.14 3.806.485 5.68.912 1.597.364 3.209.631 4.837.776.71.063 1.425.085 2.137.087.68.002 1.362-.026 2.04-.075a21.95 21.95 0 0 0 3.282-.495 35.954 35.954 0 0 0 6.903-2.305c2.334-1.055 4.45-2.428 6.267-4.228.87-.862 1.707-1.757 2.57-2.626.63-.636 1.259-1.275 1.921-1.876a19.064 19.064 0 0 1 5.177-3.334c.027-.011.06-.013.144-.029M251.295 168.413c-.047.035-.093.076-.141.106-1.598.963-3.24 1.705-4.948 2.09-.596.135-1.193.221-1.788.308-.402.058-.804.09-1.203.112a16.667 16.667 0 0 1-4.914-.453c-.841-.206-1.665-.465-2.495-.701a.765.765 0 0 1-.32-.162c.198-.009.335-.027.466-.019.638.041 1.285-.009 1.936-.067 1.066-.097 2.134-.294 3.203-.498 1.317-.251 2.637-.529 3.952-.661a28.567 28.567 0 0 1 3.918-.15c.666.025 1.34.01 2.01.013.107 0 .215.003.322.005l.002.077M220.057 173.227c-.185.195-.334.167-.483.203-1.191.282-2.328.32-3.45.28-1.778-.063-3.474-.36-5.072-.926-2.007-.71-3.846-1.745-5.487-3.16-.095-.082-.18-.181-.267-.275-.007-.008 0-.036 0-.088.144-.06.248.007.368.014.115.008.231.014.345.026 1.652.17 3.298.359 4.956.51 2.906.264 5.616.996 8.004 2.509.327.206.63.46.938.7.06.047.096.132.148.207" fill="#1E7DA7"/>
        <path d="M226.35 160.13c.004.126-.102.185-.171.261-1.671 1.882-3.661 3.405-5.912 4.634-.8.437-1.597.88-2.468 1.194-.162.059-.316.156-.516.122.571-1.36 2.259-3.176 4.12-4.383 1.445-.937 3.853-1.833 4.947-1.828" fill="#1E7DA7"/>
        <g>
            <path d="M17.889 91.159c.026.113.032.189.061.255.07.156.144.31.228.459.554.99 1.105 1.983 1.672 2.968.178.31.403.593.606.888.026.039.056.075.081.114.108.165.308.33.165.538-.16.234-.406.097-.61.04a29.36 29.36 0 0 1-1.272-.382c-.602-.197-1.197-.41-1.798-.609-.253-.084-.508-.17-.821-.206.02.102.021.175.05.236.053.112.117.22.187.323.93 1.372 1.942 2.678 3.192 3.795.152.136.295.282.432.432.073.08.134.174.181.27.093.191.036.383-.158.473-.139.064-.299.106-.452.12-.647.055-1.296.1-1.944.144-.632.042-1.265.078-1.897.12-.124.01-.248.033-.351.047-.076.15-.007.242.061.325.306.375.6.76.93 1.116.596.648 1.282 1.2 2.006 1.707.154.108.306.224.434.359.217.229.175.47-.106.605-.17.081-.353.142-.537.183-1.235.278-2.472.548-3.735.69a4.9 4.9 0 0 0-.42.072c-.025.005-.044.038-.09.08.043.07.079.153.135.22.275.326.603.595.976.807.302.17.613.326.922.485.21.11.426.207.632.322.164.093.327.193.474.31.352.279.319.534-.09.745-.112.057-.23.104-.35.145-.388.131-.779.259-1.17.384-.89.283-1.747.646-2.583 1.055-.481.234-.966.457-1.487.702a.843.843 0 0 0 .411.105c.901.062 1.802.135 2.703.185.807.047 1.615.085 2.422.099 1.608.027 3.156-.234 4.606-.946 1.259-.618 2.262-1.525 3.096-2.617.179-.233.319-.499.445-.764.42-.886.742-1.807.998-2.75.2-.735.27-1.491.312-2.248.034-.617.045-1.237-.032-1.854-.12-.985-.31-1.954-.722-2.873a7.765 7.765 0 0 0-1.591-2.294c-1.553-1.573-3.297-2.903-5.273-3.936-.224-.117-.447-.236-.672-.35-.067-.033-.142-.052-.257-.094" fill="#F6981E"/>
            <path d="m26.308 104.821-.292.88c.1.046.185.096.275.124 1.146.348 2.228.863 3.278 1.47 1.907 1.102 3.722 2.364 5.478 3.731 1.963 1.53 4.037 2.848 6.238 3.918 1.868.908 3.824 1.504 5.821 1.954 2.163.487 4.352.72 6.56.714 1.706-.005 3.4-.197 5.07-.616.782-.196 1.564-.391 2.343-.605 1.253-.344 2.456-.851 3.633-1.432 1.618-.798 3.225-1.626 4.841-2.43a24.516 24.516 0 0 1 4.644-1.754c.503-.134 1.019-.21 1.53-.293 1.208-.196 2.422-.303 3.64-.382 1.717-.111 3.435-.228 5.132-.563.92-.182 1.829-.437 2.74-.665.113-.028.22-.09.344-.144.04-.43-.08-.828-.128-1.21-.147-.103-.257-.04-.367-.014-.98.229-1.958.477-2.943.683-.837.174-1.679.324-2.524.44-.877.121-1.76.19-2.642.28-1.48.15-2.966.195-4.439.437-1.027.17-2.033.44-3.03.756-1.948.62-3.82 1.466-5.66 2.404a35.862 35.862 0 0 1-4.817 2.046c-.719.242-1.452.438-2.187.611a26.82 26.82 0 0 1-2.121.404c-1.16.175-2.329.238-3.497.219a34.53 34.53 0 0 1-7.637-.983c-2.642-.646-5.132-1.71-7.408-3.334-1.089-.778-2.152-1.601-3.235-2.39-.792-.575-1.583-1.155-2.401-1.684a19.12 19.12 0 0 0-5.79-2.506 7.19 7.19 0 0 0-.294-.068c-.03-.006-.065 0-.155.002" fill="#1E7DA7"/>
            <path d="M47.477 115.513c-.343-1.164-.482-2.318-.677-3.46a10.173 10.173 0 0 0-1.822-4.325c-1.329-1.83-2.922-3.411-4.933-4.597a10.255 10.255 0 0 0-3.836-1.36c.042.07.06.133.104.167 2.056 1.59 3.607 3.553 4.862 5.737.426.741.857 1.479 1.296 2.213.81 1.353 1.71 2.648 2.788 3.832a10.159 10.159 0 0 0 1.951 1.657c.083.054.178.091.267.136M35.722 121.385c.057.018.112.042.17.055 1.898.412 3.817.608 5.764.463.678-.051 1.353-.146 2.026-.24.453-.065.903-.152 1.35-.248a24.533 24.533 0 0 0 5.402-1.842c.907-.432 1.79-.907 2.682-1.363.105-.054.21-.11.336-.24-.222.049-.376.072-.521.118-.704.223-1.43.366-2.16.501-1.196.223-2.408.355-3.621.48-1.497.154-2.998.285-4.475.547a40.83 40.83 0 0 0-4.373 1.003c-.736.217-1.486.4-2.23.597l-.359.098.009.07M69.17 119.138c.189.1.341.012.494-.02 1.215-.246 2.375-.69 3.518-1.2a28.169 28.169 0 0 0 5.165-2.979 31.637 31.637 0 0 0 5.574-5.177c.097-.115.182-.24.271-.363.007-.01 0-.033 0-.079-.147.005-.253.11-.375.168-.118.056-.235.11-.352.17-1.682.85-3.36 1.715-5.05 2.55-2.96 1.467-5.718 3.273-8.144 5.65-.332.326-.638.683-.952 1.03-.061.069-.097.162-.15.25M59.053 109.36c.032.128.163.17.26.235 2.341 1.622 4.929 2.828 7.715 3.69.99.307 1.98.62 3.014.79.191.033.386.105.593.037-1.002-1.282-3.343-2.834-5.702-3.74-1.831-.704-4.695-1.203-5.88-1.013" fill="#1E7DA7"/>
        </g>
    </g>
</svg>
