<svg width="276" height="441" viewBox="0 0 276 441" xmlns="http://www.w3.org/2000/svg">
    <g fill="none" fill-rule="evenodd">
        <path d="M81.044 76.292c-.07-.041-.137-.089-.21-.123-.332-.156-.663-.315-1-.46-.42-.18-.841-.357-1.269-.518-.544-.205-1.087-.416-1.644-.583-.78-.236-1.583-.38-2.393-.48-.325-.04-.649-.091-.975-.124-.2-.02-.347-.196-.231-.435.212-.437.44-.867.704-1.278.169-.264.332-.53.494-.798.227-.375.453-.75.676-1.127.361-.605.682-1.233.988-1.867.008-.016.01-.033.024-.078-.084.045-.146.077-.206.112-.62.364-1.247.716-1.906 1.009-.653.288-1.304.579-1.955.873-.171.077-.336.169-.505.252-.06.03-.122.06-.186.08-.123.036-.223-.033-.21-.158.048-.514-.128-.971-.341-1.417-.451-.943-1-1.83-1.567-2.705-.262-.405-.529-.807-.793-1.212l-.08-.114c-.005.056-.013.091-.013.127l-.002 3.214c0 .812-.054 1.62-.126 2.428-.051.576-.073 1.155-.108 1.733-.004.067-.008.135-.014.202-.017.18-.097.252-.275.233a3.828 3.828 0 0 1-.4-.064c-.694-.152-1.4-.222-2.104-.29-.456-.044-.912-.1-1.369-.114-.53-.016-1.061.007-1.591.013-.014 0-.027.008-.061.017.139.101.261.2.392.285.267.172.536.34.81.502.381.224.77.436 1.15.662.387.228.783.437 1.187.631.296.143.59.29.885.431.109.052.22.101.333.14.203.071.24.243.062.395a9.09 9.09 0 0 0-1.03 1.036c-.397.466-.773.95-1.083 1.478-.185.316-.374.631-.498.98-.045.126-.114.245-.166.37-.16.382-.31.769-.478 1.148-.141.322-.302.637-.451.957a2.4 2.4 0 0 0-.148.403c.047-.028.096-.054.141-.084.597-.401 1.196-.798 1.79-1.205.844-.58 1.71-1.122 2.592-1.64.275-.162.535-.347.805-.516.114-.072.232-.14.355-.193.203-.089.308-.037.37.175.042.138.063.283.113.419.147.398.294.796.457 1.188.426 1.027.957 2.002 1.505 2.968.287.507.614.993.923 1.488.15.241.299.485.448.727.022.037.047.072.087.135.015-.088.027-.148.033-.209.11-1.062.168-2.127.08-3.193a334.923 334.923 0 0 0-.3-3.492c-.026-.288-.082-.574-.125-.86a2.9 2.9 0 0 1-.016-.708.351.351 0 0 1 .22-.314c.116-.047.236-.086.357-.115a6.032 6.032 0 0 1 1.51-.137c1.125.022 2.246-.06 3.366-.159.375-.032.75-.061 1.126-.086.385-.026.77 0 1.155.033.225.018.451.03.676.044l.015-.032" fill="#FBD905"/>
        <path d="M74.675 29.364c2.184-3.567 5.817-7.316 7.963-8.122.087 1.632.142 3.221.118 4.81-.069 4.326-1.08 8.398-3.165 12.221-2.158 3.956-4.924 7.418-8.104 10.57-.13.129-.27.247-.425.37a21.45 21.45 0 0 1 4.585.945c2.59.838 5.196 1.634 7.788 2.468a36.197 36.197 0 0 0 5.837 1.376c2.646.387 5.216.169 7.667-.996.292-.138.604-.232.979-.374l1.022 1.53c-.47.624-1.132.807-1.736 1.05-3.941 1.585-7.988 2.003-12.1.861-1.87-.52-3.68-1.25-5.508-1.912-1.722-.625-3.403-1.386-5.153-1.918-5.97-1.813-11.668-1.168-16.971 2.238-3.875 2.489-6.908 5.818-9.184 9.816-2.324 4.085-3.197 8.568-3.279 13.219-.067 3.847.708 7.565 1.91 11.192.718 2.172 1.54 4.31 2.34 6.455 1.605 4.302 2.904 8.683 3.563 13.248 1.483 10.275-.02 20.06-4.724 29.338-1.472 2.903-3.348 5.548-5.155 8.237-.139.205-.33.375-.555.627-.317-.49-.567-.852-.79-1.233-.11-.188-.163-.41-.232-.588.052-.143.069-.262.131-.349 2.364-3.286 4.108-6.917 5.758-10.59 1.627-3.623 2.515-7.397 2.974-11.248-2.066-.36-3.928-1.025-5.754-1.801-3.241-1.378-6.234-3.177-8.766-5.646-2.28-2.223-4.11-4.804-5.646-7.61-2.018-3.688-3.18-7.691-4.38-11.684-.028-.096.08-.232.142-.399 3.358 1.767 6.608 3.512 9.89 5.193 3.39 1.737 6.375 3.956 8.733 6.993 2.857 3.68 4.896 7.737 6.04 12.21.094-1.336.146-2.68.169-4.026.062-3.66-.658-7.24-1.734-10.725-.807-2.613-1.725-5.194-2.648-7.768-1.38-3.842-2.6-7.725-3.441-11.73-1.436-6.832-.842-13.455 1.87-19.895 2.068-4.915 5.113-9.039 9.63-11.944 2.972-1.912 6.1-3.483 9.604-4.163 2.068-.4 4.126-.572 6.169-.467-.608-6.693 1.148-14.193 4.568-19.78" fill="#1E7DA7"/>
        <path d="M100.684 44.629c-1.262 1.261-2.177 2.538-2.754 4.013-.864 2.202-.798 4.375.455 6.465.96 1.599 2.409 2.36 4.277 2.377 1.548.013 2.904-.533 4.153-1.367 2.17-1.45 3.707-3.438 4.967-5.651.387-.681.71-1.397 1.06-2.098.125-.25.22-.517.365-.755.525-.869 1.249-.939 1.92-.133.615.74 1.146 1.546 1.727 2.314 1.481 1.957 3.442 3.284 5.738 4.163 1.846.708 3.712.664 5.555.072 1.876-.603 3.067-1.879 3.532-3.762.478-1.94.149-3.768-.92-5.489-1.623-2.615-3.875-4.571-6.576-6.068-.55-.305-1.11-.604-1.611-.975-.657-.485-.624-1.232.065-1.671.474-.303.991-.552 1.512-.774 2.319-.995 4.072-2.632 5.53-4.602 1.131-1.527 1.709-3.284 1.909-5.134.242-2.234-.51-4.205-2.1-5.837-1.182-1.213-2.705-1.67-4.375-1.64-1.83.033-3.466.631-4.932 1.682a13.072 13.072 0 0 0-3.19 3.228c-.445.646-.872 1.305-1.32 1.95-.288.412-.663.561-1.004.448-.389-.13-.472-.468-.552-.788-.093-.381-.14-.772-.206-1.16-.485-2.784-1.645-5.254-3.715-7.264-1.98-1.922-4.33-3.151-7.143-3.354-2.804-.203-4.17.977-4.337 3.733-.096 1.576.125 3.137.571 4.655.395 1.347.885 2.668 1.325 4.002.14.426.3.853.366 1.292.084.558-.408.97-.985.828a6.806 6.806 0 0 1-1.284-.469c-1.86-.877-3.683-.699-5.462.14-1.67.788-2.83 2.06-3.38 3.799-.735 2.326-.59 4.642.35 6.905.61 1.473 1.741 2.496 3.163 3.21 1.407.708 2.916 1.014 4.49.963.915-.03 1.83-.087 2.745-.127.532-.022 1.06.024 1.345.546.297.545-.032.963-.376 1.351-.336.379-.684.748-.898.982" fill="#FBCCC2"/>
        <path d="M113.533 37.532a5.575 5.575 0 0 0 1.46-2.176c.733-1.991-.211-3.943-2.262-4.799-3.229-1.347-7.967.762-7.828 5.168.098 3.165 3.034 4.761 5.749 3.825 1.16-.399 2.11-1.051 2.88-2.018" fill="#F6981E"/>
        <path d="M44.095 99.861c1.408.872 2.711 1.631 3.965 2.461 4.751 3.144 8.833 6.955 11.968 11.739 1.882 2.872 3.233 5.938 3.91 9.29 1.402 6.92 2.73 13.852 3.183 20.908.509 7.888 1.47 15.72 2.801 23.514 1.162 6.811 3.05 13.4 5.849 19.737 5.641 12.778 13.842 23.617 24.841 32.333 3.374 2.675 6.954 5.062 10.596 7.361 4.674 2.95 9.54 5.552 14.516 7.945 4.759 2.288 9.597 4.398 14.554 6.224 3.415 1.259 6.834 2.512 10.277 3.691a69.421 69.421 0 0 0 10.748 2.736c2.947.506 5.92.464 8.892.334a5.776 5.776 0 0 0 1.078-.155c1.218-.291 1.72-1.057 1.376-2.283-.208-.745-.544-1.473-.93-2.149-.693-1.213-1.633-2.242-2.653-3.2-2.57-2.413-5.386-4.515-8.358-6.398-3.38-2.14-6.823-4.181-10.232-6.277-.41-.251-.829-.527-1.146-.879a1.523 1.523 0 0 1-.357-.951c0-.409.398-.59.763-.65.536-.09 1.088-.096 1.625-.178.898-.135 1.824-.198 2.677-.474 2.372-.765 2.76-2.103 1.253-4.078-.961-1.258-2.129-2.317-3.376-3.282-1.533-1.186-3.107-2.319-4.657-3.483-.58-.437-1.162-.875-1.706-1.355-.264-.234-.47-.55-.645-.86-.21-.374-.004-.941.402-1.049.46-.12.949-.198 1.424-.193 1.395.015 2.788.092 4.183.119.848.016 1.7.011 2.545-.04.477-.031.969-.12 1.418-.282.977-.35 1.42-1.154 1.113-2.158-.207-.682-.501-1.384-.93-1.945-.951-1.246-1.912-2.512-3.049-3.582-2.554-2.406-5.22-4.692-7.834-7.035-2.167-1.94-4.276-3.942-6.104-6.206-.793-.985-1.541-2.024-2.175-3.115-1.263-2.175-.973-4.307.5-6.258 1.751-2.32 4.159-3.637 7.005-4.167 2.218-.413 4.463-.424 6.71-.272 4.784.325 9.298 1.651 13.625 3.68 3.577 1.68 6.995 3.642 10.317 5.767 3.473 2.22 6.94 4.451 10.348 6.768 3.406 2.317 6.758 4.716 10.093 7.134 4.32 3.13 8.636 6.267 13.27 8.926 4.165 2.388 8.446 4.545 13.147 5.718 1.057.264 2.135.461 3.214.61a6.662 6.662 0 0 0 1.81-.015c1.67-.232 2.109-1.019 1.377-2.489-.292-.588-.66-1.169-1.112-1.643-.748-.785-1.59-1.481-2.393-2.212-.223-.202-.489-.368-.67-.6-.348-.443-.04-1.215.518-1.265.412-.038.842.021 1.255.092 2.33.398 4.654.829 6.986 1.215.836.138 1.686.229 2.532.253.599.017 1.212-.067 1.8-.193.787-.168 1.029-.666.62-1.325-.411-.663-.866-1.324-1.414-1.873a35.605 35.605 0 0 0-2.842-2.536c-1.414-1.14-2.887-2.207-4.316-3.329-.474-.37-.946-.768-1.318-1.231-.467-.583-.139-1.399.603-1.542.467-.09.962-.083 1.443-.06 1.272.064 2.54.193 3.812.23.722.022 1.454-.045 2.168-.15.33-.048.629-.282.954-.438-.121-.807-.604-1.277-1.115-1.682-1.33-1.052-2.65-2.124-4.051-3.072a109.124 109.124 0 0 0-5.699-3.58c-2.195-1.292-4.442-2.494-6.661-3.742-4.599-2.588-9.22-5.134-13.78-7.785-3.669-2.132-7.31-4.32-10.878-6.616-7.052-4.538-13.705-9.578-19.379-15.794-2.13-2.333-4.029-4.83-5.454-7.66-.655-1.3-1.213-2.638-1.478-4.073-.803-4.368.635-7.612 4.487-9.967 1.513-.926 3.195-1.45 4.921-1.823 3.838-.828 7.7-.803 11.58-.27 4.213.579 8.342 1.573 12.49 2.475 3.259.709 6.503 1.492 9.822 1.893 1.929.233 3.864.42 5.806.24a8.306 8.306 0 0 0 1.943-.41c.737-.258 1.012-.86.723-1.6a7.525 7.525 0 0 0-.963-1.728c-1.131-1.527-2.604-2.692-4.216-3.68-.671-.412-1.395-.735-2.077-1.131a3.648 3.648 0 0 1-.84-.663c-.277-.298-.011-.986.391-.998.412-.012.842.045 1.24.156 2.631.73 5.247 1.514 7.883 2.223 3.164.852 6.358 1.59 9.633 1.865 1.265.107 2.544.103 3.814.07.78-.02 1.57-.144 2.22-.767.13-.763-.287-1.37-.666-1.978-.933-1.5-2.11-2.802-3.404-3.993-.846-.777-1.758-1.481-2.65-2.207-.375-.306-.777-.58-1.16-.876-.268-.206-.354-.484-.24-.797.122-.33.53-.506.91-.378.343.117.675.27 1.002.425.77.361 1.525.753 2.3 1.099 5.322 2.378 10.73 4.532 16.265 6.366 1.958.65 3.905 1.334 5.879 1.93.923.279 1.892.43 2.852.555.583.076 1.21.152 1.863-.303-.04-.286.004-.672-.15-.95-.497-.895-1.007-1.792-1.62-2.61-2.11-2.822-4.66-5.239-7.25-7.61-4.832-4.422-9.991-8.442-15.335-12.225-3.906-2.766-7.849-5.486-11.862-8.097-3.658-2.378-7.422-4.597-11.158-6.855-3.947-2.384-7.977-4.632-12.17-6.555-3.858-1.77-7.773-3.421-11.698-5.041a191.553 191.553 0 0 0-9.172-3.532c-11.49-4.064-23.234-6.998-35.466-7.555-12.203-.555-23.58 2.297-34.153 8.318-3.497 1.992-6.535 4.56-9.458 7.278-2.034 1.891-4.034 3.817-6.072 5.702-1.777 1.643-3.71 3.09-5.727 4.433-5.056 3.367-10.621 4.94-16.708 4.51-2.72-.192-5.421-.613-8.134-.901-1.688-.18-3.377-.363-5.071-.442-1.962-.09-3.862.306-5.697.994-1.66.624-6.443 3.204-8.26 4.484" fill="#FDF2E0"/>
        <path d="M62.61 102.54c.677-1.253.345-2.495-.583-3.635-.568-.698-1.471-1.02-2.472-.846-2.138.368-3.322 2.96-2.078 4.577.653.848 1.548 1.389 2.754 1.405 1.256.015 1.93-.622 2.379-1.501" fill="#1E7DA7"/>
        <path d="M142.853 121.457c-.035-1.156-.285-2.268-.838-3.297-.73-1.361-1.859-2.173-3.46-2.293-1.297-.1-2.532.14-3.737.574-1.576.568-3.027 1.362-4.399 2.301-3.232 2.21-5.959 4.934-8.419 7.93-.145.177-.224.458-.594.381.107-.594.212-1.187.32-1.778.433-2.38.83-4.763.837-7.194.007-2.005-.233-3.982-.862-5.903-.453-1.381-1.133-2.635-2.282-3.599-1.166-.977-2.496-1.462-4.039-1.25a7.769 7.769 0 0 0-3.495 1.38c-1.992 1.414-3.152 3.392-3.892 5.626-.662 2-.916 4.089-1.125 6.178-.36 3.612-.445 7.24-.58 10.866-.291 7.882.167 15.726 1.465 23.528.123.739.269 1.475.418 2.209.04.2.13.392.185.553.378.095.527-.126.708-.29 1.27-1.157 2.524-2.332 3.818-3.466 3.696-3.237 7.476-6.374 11.458-9.277 1.682-1.227 3.31-2.527 4.932-3.832 3.107-2.503 6.027-5.2 8.663-8.18 1.715-1.937 3.198-4.024 4.087-6.47.55-1.518.88-3.073.831-4.697" fill="#E86748"/>
        <path d="M137.916 133.104c-2.608 3.003-5.494 5.724-8.563 8.25-1.602 1.318-3.21 2.63-4.871 3.87-3.932 2.934-7.667 6.101-11.32 9.368-1.278 1.143-2.517 2.33-3.773 3.496-.178.165-.328.388-.698.294-.053-.161-.14-.352-.18-.554a65.468 65.468 0 0 1-.4-2.216c-1.244-7.83-1.66-15.703-1.339-23.62.149-3.64.248-7.285.62-10.913.214-2.1.473-4.197 1.134-6.209.738-2.247 1.888-4.237 3.855-5.666a7.637 7.637 0 0 1 3.447-1.4c1.52-.22 2.826.26 3.97 1.237 1.126.961 1.79 2.218 2.23 3.603.61 1.927.837 3.91.822 5.924-.017 2.44-.42 4.836-.855 7.227-.11.595-.216 1.19-.323 1.787.364.076.441-.207.586-.386 2.435-3.02 5.13-5.766 8.322-8 1.354-.948 2.786-1.751 4.34-2.329 1.187-.441 2.404-.687 3.681-.594 1.574.115 2.682.924 3.395 2.289.54 1.03.781 2.144.81 3.306.041 1.63-.29 3.193-.839 4.72-.885 2.46-2.355 4.563-4.051 6.516m21.196-17.206c.01-.02-.015-.058-.068-.232-.324.237-.587.417-.837.614-2.781 2.183-5.491 4.449-8.092 6.845-.314.29-.623.588-.958.854a2.28 2.28 0 0 1-.649.36c-.32.113-.69-.139-.683-.473.007-.277.061-.568.164-.824.397-.993.85-1.964 1.23-2.964.62-1.633 1.246-3.265 1.785-4.926 1.055-3.255 1.91-6.574 3.113-9.782.763-2.038 1.55-4.068 2.645-5.96 1.662-2.873 3.508-5.63 5.337-8.397a93.869 93.869 0 0 0 1.657-2.623c.073-.12.25-.274.022-.489-.394.305-.794.595-1.174.91-2.267 1.877-4.739 3.423-7.38 4.73-2.049 1.013-4.055 2.116-6.049 3.235-2.998 1.682-5.791 3.666-8.43 5.866-.301.252-.596.512-.901.76-.137.112-.281.253-.443.288a.694.694 0 0 1-.486-.1c-.085-.057-.133-.263-.103-.377.064-.237.171-.466.293-.682 1.065-1.897 2.165-3.775 3.196-5.69a47.358 47.358 0 0 0 1.919-3.94c1.603-3.774 3.154-7.57 4.722-11.357.064-.153.192-.313-.014-.526-.17.085-.366.158-.532.274-1.611 1.122-3.24 2.222-4.82 3.386-2.156 1.59-4.305 3.185-6.559 4.637a29.069 29.069 0 0 1-5.445 2.748c-1.336.507-2.667 1.03-4.009 1.524-2.893 1.064-5.414 2.725-7.723 4.732-.81.705-1.563 1.463-2.155 2.366-.098.149-.188.318-.324.421-.126.097-.324.184-.466.156-.236-.047-.314-.273-.285-.505.031-.247.08-.492.13-.736.862-4.23 1.919-8.41 3.072-12.568.533-1.923 1.123-3.83 1.68-5.745.013-.045-.051-.113-.11-.228-.168.14-.334.262-.484.401-2.598 2.408-4.968 5.02-7.01 7.918-1.028 1.461-1.975 2.985-2.707 4.608-1.333 2.958-2.566 5.96-3.602 9.039-.967 2.874-1.9 5.758-2.624 8.702a561.28 561.28 0 0 0-2.382 10.096c-.85 3.756-1.588 7.535-2.022 11.364-.434 3.818-.368 7.617.45 11.39.552 2.553 1.323 5.037 2.186 7.5.814 2.324 1.584 4.665 2.385 6.994.476 1.384.97 2.762 1.465 4.14.068.188.193.355.305.557.19-.098.32-.15.435-.227a26.427 26.427 0 0 1 4.531-2.424c1.912-.799 3.85-1.538 5.79-2.267 3.079-1.157 6.161-2.302 9.173-3.626 2.59-1.139 5.11-2.408 7.416-4.058 4.08-2.917 7.467-6.506 10.29-10.64 1.672-2.447 3.163-5.005 4.616-7.583 1.647-2.918 3.22-5.879 4.834-8.816 1.253-2.282 2.524-4.554 3.775-6.836.326-.593.61-1.207.91-1.814" fill="#F6981E"/>
        <path d="M189.818 114.379c.09.001.18.004.289.007l-.194.33c.105-.002.218.02.229-.01.04-.1.089-.285.054-.318-.092-.087-.225-.11-.342-.159l-.036.15m.177 3.502.069-.214-.365-.29c-.13.294-.13.294.296.504m.224-2.989.458-.216c-.07-.205-.024-.517-.283-.387l-.175.603m.863-.727c-.163-.2-.33-.435-.526-.626-.054-.052-.198.03-.36.062l.52.61a58.783 58.783 0 0 0-.467-.023l-.009.137c.157.058.298.212.477-.078.05-.08.224-.054.365-.082m-.362 2.944.16-.259-.331-.137c.03.601.238.878.802 1.036l.094-.558-.531.318.022-.434-.184.094-.032-.06m4.51-7.716c-.013.086-.015.165-.04.233-.025.069-.07.126-.108.189.047.025.091.061.141.075.21.061.391-.167.586-.256.04-.02.078-.058.116-.09l.289-.244c-.08-.159-.032-.455-.241-.472-.176-.013-.34.082-.398.323-.08.328-.197.32-.344.242m1.405-.3-.158.453.4.04.063-.128-.314-.361c.103-.088.207-.176.378-.318l-.116-.412c-.163.233-.444.385-.253.725m.749 4.08c.18-.119.122-.262.085-.403l-.068-.018-.107.456c-.177-.175-.268-.136-.521.206l.1.24.481.173c-.043.1-.08.173-.106.251-.043.133-.07.276-.218.14-.019-.019-.108.074-.169.119l-.092-.149-.06.039.082.277c-.234.066-.383.324-.365.615.004.066 0 .174-.033.203-.217.197-.443.376-.683.576l-.116-.328-.206.07c.081.109.226.225.208.297-.034.13-.163.236-.252.352l-.235-.277-.217.148c.22.13.1.273.025.398l.11.27-.517.324-.158-.185-.04.214c-.049-.064-.097-.13-.137-.18-.392.16-.05.447-.116.614l-.468.129.133-.498c-.32.094-.152.484-.365.677l-.21-.187c-.194.32-.273-.167-.458-.08l-.02.26c-.065.119-.288.002-.21.274.005.016-.037.079-.057.08-.031.002-.07-.02-.092-.047-.025-.033-.036-.084-.05-.12-.226.134-.344.46-.645.379-.223-.06-.475.001-.705.008-.051-.063-.095-.171-.16-.185-.28-.058-.568-.088-.857-.13l.092-.167c-.548-.355-.614-.429-.606-.685l.27.002c-.058-.111-.087-.227-.15-.274-.147-.105-.254-.368-.157-.517.111-.172.257-.242.393-.026l-.02-.456-.227-.036.078-.29c-.06.03-.09.04-.113.06-.065.057-.128.118-.193.178.024-.123.03-.256.075-.369.05-.128.137-.238.247-.422l-.207.123a32.11 32.11 0 0 1-.01-.222l.467-.093c-.043-.057-.082-.123-.133-.17-.055-.05-.122-.08-.248-.163l.557-.225-.187-.36-.083-.015c.104-.13.193-.31.315-.37.083-.042.21.086.317.138l.04-.08-.328-.312c.108-.204.211-.413.324-.613.174-.306.376-.595.523-.917.105-.227.386-.256.393-.569 0-.023.046-.052.073-.074l.288-.21-.022-.04c.152-.132.291-.246.423-.372.091-.088.163-.236.26-.276.142-.058.205-.13.2-.308-.006-.171.051-.244.205-.222.072.01.162-.079.278-.142.077.067.245-.03.324-.227.043-.108.104-.233.184-.29.247-.183.507-.336.765-.503l.08.204c.054-.51.113-.592.338-.562.088-.205.151-.425.264-.596.13-.2.31-.353.457-.539.097-.122.192-.258.254-.407.116-.276.342-.401.537-.254l-.132.308.048.071c.044-.048.111-.088.129-.144.074-.246.16-.297.325-.197.055.033.132.027.2.02.061-.008.124-.042.203-.07-.046.187-.108.33-.107.464 0 .137.063.266.099.399l-.053.025-.077-.233c-.014.129-.02.19-.028.249l-.248.003.24.29c.065.01.144.034.159.091.059.225.158.303.35.171.024-.016.063-.022.086-.01.182.098.362.202.554.31-.17.235-.256.467-.044.693l.157-.239.07.501c-.124.11-.369.091-.236.388l.123-.186.334.111c-.212.366.279.716-.048 1.13-.002.002.007.015.01.024.073.367-.013.73-.12 1.103l-.162.02.101.139c-.134.411-.38.255-.6.29l.496.198-.177.233c-.004.103.006.18-.011.252-.085.35-.32.196-.49.262M184.294 105.69l.17-.169c.035-.168-.038-.44.253-.596.098-.053.127-.338.19-.521l.156.087c-.333.317-.252.601 0 .947.036-.456.498-.664.352-1.153.4-.554.432-1.402.07-1.6l.079-.808c-.134-.215-.236-.361-.316-.523-.011-.025.079-.129.136-.22l-.27-.014.06-.12c-.12-.098-.242-.2-.368-.295-.094-.072-.178-.131-.267.068-.02.046-.212.047-.288-.004-.225-.15-.506-.086-.675.176-.064.1-.152.178-.26.302l-.046-.3c-.009.003-.022.003-.023.008-.109.345-.342.519-.593.685-.157.103-.294.258-.438.392-.209.194-.42.384-.622.587-.137.136-.261.291-.412.462l-.205-.136.091.189c-.13.039-.37-.144-.316.244-.38.01-.61.347-.672 1.04-.027-.09-.037-.132-.052-.171-.017-.04-.03-.092-.059-.108-.035-.023-.085-.016-.155-.025.078.25.076.43-.187.468-.043.006-.082.136-.125.208-.033.053-.065.137-.103.147-.232.06-.262.288-.325.498a.462.462 0 0 1-.112.19c-.11.105-.288.167-.334.294-.173.48-.532.779-.758 1.2-.107.2-.163.44-.26.65-.08.17-.162.393-.288.47-.27.165-.191.543-.435.739l.182.035c0 .019-.002.036-.003.056l-.257.039c-.118.23-.184.46-.315.59-.195.195-.133.31.01.492l-.218-.094-.242.56.2-.027c-.091.263-.527.419-.194.774-.056.047-.096.073-.127.11-.025.028-.06.075-.055.101.006.035.043.068.073.084.07.04.146.068.21.11.178.05.05-.424.325-.27l.033-.398c-.046-.013-.094-.029-.174-.054l.15-.24c.037.048.083.088.108.144.015.035.011.099-.005.14-.082.216-.014.346.084.4l-.044.38-.203-.114-.02.37c.393.113.748-.002 1.118-.153.137-.057.32.106.525.185l.042-.331a.666.666 0 0 1 .547-.134c.097.019.23-.073.333-.145.142-.1.27-.231.405-.348a2.622 2.622 0 0 0-.034-.062l-.265.166-.014-.41.7.141c.012-.307-.019-.522-.194-.668-.025-.021.004-.132.005-.161l.662.37c.22-.254.463-.546.718-.821.07-.076.173-.104.261-.151.181-.097.363-.19.551-.289-.033-.26-.105-.425-.356-.351-.053-.081.146-.362-.212-.238l.268-.303c.069.541.252.018.396.077-.01.064-.023.138-.052.3.28-.248.552-.257.82-.445.305-.215.424-.675.779-.767.031-.01.084-.123.073-.154-.017-.048-.081-.068-.08-.068-.143-.376-.075-.73.065-1.095l.148.057c-.053.078-.1.15-.149.22l.037.048.283-.216.068.323-.003-.009.3-.048-.036-.323-.34-.236a1.38 1.38 0 0 1 .027-.05c.305-.011.61-.024.914-.036l.006-.076-.436-.269-.126.198-.12-.262-.1.234c-.15-.07-.342-.092-.214-.353.112-.01.216.011.302-.032.26-.132.258-.141.267.21M183.521 71.456c.059.248.118.496.191.81l.332.05-.407-.91-.116.05m-2.561-1.753c.084.026.186.077.292.087.082.008.168-.034.252-.054-.03-.094-.057-.189-.086-.283-.274.1-.102-.175-.232-.244l-.253.094.027.4m-.733 9.954c-.124-.08-.217-.14-.344-.22.094.357.328.527.606.507.108-.008.192-.298.295-.475l-.335-.213c-.072.132-.145.261-.222.4m1.401-7.464c-.39.527.167.654.309.984l.17-.551-.148-.448c-.031.094-.06.187-.1.304-.068-.085-.13-.162-.23-.29m2.405 6.237-.001-.01-.684.013c.204.088.344.15.504.218-.3.254-.477.028-.693-.095.01.125.011.282.084.327.28.171.175.372.086.576-.02.047-.079.078-.12.115-.03-.068-.08-.137-.08-.205 0-.045.072-.09.112-.134l-.066-.067-.298.285c.387.17.356.463.314.782l-.247-.165c.034.473-.288.479-.57.482-.153-.073-.305-.147-.417-.202-.033.107-.04.232-.105.307-.097.11-.225.114-.322-.036-.007-.012-.078.009-.116.02-.101.032-.2.086-.302.098-.24.03-.484.042-.744.062-.017-.03-.044-.144-.106-.17-.302-.118-.36-.416-.49-.645-.237-.42-.417-.869-.636-1.336l.105-.215-.086.006a21.66 21.66 0 0 0-.051-.241h.425c-.528-.242-.414-.099-.415-.69 0-.085-.06-.17-.08-.224.037-.078.101-.144.089-.194-.029-.13-.11-.251-.135-.383a4.003 4.003 0 0 1-.083-.725c0-.201.064-.4.107-.646l.497.118.024-.072c-.062-.084-.124-.169-.174-.24l-.29.047c.212-.188.056-.35.004-.496-.067-.187 0-.427.147-.511.065.064.115.138.185.173.036.018.106-.03.162-.05-.03-.076-.053-.158-.094-.229-.03-.051-.1-.082-.125-.134-.04-.082-.094-.183-.076-.26.029-.128.11-.243.169-.362-.064-.046-.12-.087-.223-.164l.515-.194c-.073-.298-.415-.565-.126-.926l.128.2.064-.035-.188-.335.201-.11c0-.088-.03-.177.004-.226.147-.222.31-.432.47-.646.041-.057.12-.107.125-.165.023-.276.158-.252.348-.106l.057-.272-.26.016.412-.438.165.057c-.096-.424.005-.791.379-1.001.297-.168.619-.28.769-.578-.023-.085-.078-.182-.052-.216.048-.06.163-.131.22-.112.368.127.835-.14 1.132.28.026.036.12.025.208.04l.015.502.424-.042c-.009.156-.036.258-.015.35.04.167.086.326.204.481.124.164.146.405.214.615l-.14.024c.116.333.224.643.001.94l.27.232c-.083.13-.2.276-.183.294.227.237.083.544.217.792l-.093.045-.348-.522-.11.067c.054.095.108.19.16.286-.038.122-.065.314.003.355.272.164.184.306.02.454.08.102.218.198.214.289-.007.3-.066.598-.105.904l-.305-.054c.081.089.115.125.15.161.18.19.305.393.232.674-.036.139-.033.29-.033.435 0 .102.027.204.046.338a78.08 78.08 0 0 1-.436-.106c-.011.143-.077.314-.02.38.224.259.18-.274.384-.143-.004.195.197.475-.234.487.282.223.282.223.108.655l-.04-.328-.384.282c.17.143.185.275.053.43-.046.054-.046.143-.069.216l.078.039-.271-.006.237.513M171.21 98.412c.158-.113.316-.225.479-.343-.32-.128-.413-.081-.478.343m4.16-3.383c-.07-.025-.138-.05-.172-.06-.094.154-.171.283-.25.415.164.152.2.127.422-.355m-1.37-.242c-.034.102-.07.203-.1.306-.01.03.001.067 0 .043.152-.009.29-.002.424-.033.048-.012.089-.113.133-.175l-.144-.045c-.094-.03-.187-.058-.313-.096m-.693-1.075-.658-.544.032.517c.22.01.408.019.626.027m3.956-4.235c.157-.157.516-.043.551.158.082-.192.082-.192-.247-.342-.153-.07-.306-.137-.51-.226-.027.087-.12.304-.099.32.163.125.347.212.558.23l-.253-.14m-.419-1.598.192.342.257-.14c.04.13.082.261.132.418.191-.266.131-.567-.14-.766-.172-.126-.354-.127-.44.146m-1.623 8.618c-.044-.481-.36-.365-.54-.493l-.184.724c.342.083.342.083.466-.294l.258.063m-4.966 2.476.004.01.142-.325c-.201-.017-.343-.197-.328-.49l-.145.001c.278-.304.464-.105.65.1l.042-.082-.24-.237.05-.397-.362-.047.46-1.05a.555.555 0 0 1 .085-.147c.009-.01.083.027.088.056a.415.415 0 0 1-.015.186c-.014.042-.058.073-.082.104.097.085.177.155.301.266-.015-.125-.021-.199-.033-.271-.017-.102-.074-.214-.05-.302.052-.187.091-.35.008-.53-.02-.044.05-.168.092-.244.112-.197.23-.392.35-.583.083-.134.175-.261.31-.462l.344-.784c.044.046.087.09.129.137.04.043.077.089.115.133.029-.068.096-.165.08-.201-.053-.111-.136-.2-.218-.313l.33-.367.292.127.192-.735c-.131.158-.216.26-.302.361.022-.146.073-.26.133-.366.042-.074.096-.14.15-.216.043.052.082.103.135.17.149-.108.36-.18.408-.319.044-.132-.083-.333-.153-.564.14-.025.288-.074.431-.068.147.006.289.065.434.102l.045-.078c-.264-.178-.065-.416-.047-.63l.223.018c.111-.179.198-.43.35-.536.168-.116.23-.225.234-.398l-.328.17c-.077.444-.21.513-.561.253.223-.28.364-.679.719-.687.056-.129.087-.251.151-.338.3-.401.608-.793.913-1.187.008-.01.03-.008.055-.015l-.045.233.506-.297-.034-.218.335-.03v-.075l-.199-.023c.68-.389 1.65-.352 1.904.078-.17-.004-.302-.008-.433-.01l-.01.057.197.094c-.023.19-.25.402-.009.526.048.025.176-.145.313-.265.098.166.225.381.349.599.008.013-.016.053-.022.08-.075.31-.157.62-.22.931-.019.09.015.19.024.285l.072-.015c.007-.025.01-.054.022-.077.037-.072.078-.142.117-.211.025.076.076.151.07.227-.012.162-.062.322-.078.484-.018.194-.118.235-.252.25-.162.02-.324.048-.5.077l-.013.403-.003.229-.188-.084-.153.2.206.332-.086-.014c-.12.15-.306.286-.343.454-.041.19.053.41.09.635-.04.037-.116.102-.2.178l-.131-.166-.197.235c.043.15.105.272.103.398-.002.077-.128.241-.154.23-.227-.086-.371-.105-.248.267.003.01-.036.037-.053.059a326.1 326.1 0 0 0-.336.448l-.486-.268.014.398-.25-.055-.383.601.26.145-.559.338.165.325c-.058.114-.115.178-.111.23.015.21-.105.412-.225.444l-.44 1.007c-.03-.104-.081-.197-.08-.294.005-.3.013-.301-.196-.467.086.126.13.189.177.255l-.17.28c.037.03.07.06.112.097l-.237.124c.054.04.074.062.1.073.125.056.09.129-.011.17a.4.4 0 0 1-.248.026c-.092-.026-.25-.112-.243-.15.072-.402-.205-.397-.402-.49l.13.234c-.06.063-.123.105-.158.169-.037.069-.047.157-.07.238a8.263 8.263 0 0 0-.133-.1c-.192.02-.383.11-.46.035-.229-.217-.232.061-.315.149h.389l.02.096-.384.437a7.74 7.74 0 0 0-.08-.152c-.083.22-.348.416-.11.698-.116-.064-.233-.13-.384-.212l.015-.161a20.542 20.542 0 0 0-.198-.017c-.055.224-.054.212-.243.197-.08-.007-.166.05-.192.058l-.295-.287-.06.073c.07.115.143.23.221.355-.042-.004-.072-.008-.103-.01-.151-.002-.325.03-.28-.264.003-.015-.051-.036-.079-.054M188.304 90.825c.002.107.006.225.01.342.154-.026.472.16.352-.217a79.95 79.95 0 0 0-.362-.125m4.152-2.007.074-.685a3.918 3.918 0 0 1-.113-.013c.018.154-.402.247-.029.46.015.008-.039.14-.06.215l.128.023m-1.665 5.554c-.083-.143-.14-.239-.223-.384l-.273.565.068.047.428-.228m2.234-6.037.253-.114-.355-.532-.133.07.235.576m-2.584 5.615-.208-.503-.443.304.65.2m-.457-.759c-.141-.212-.146-.479-.48-.426l.111.43c.1 0 .203-.002.37-.004m-1.277.994.328.266c.024-.018.046-.035.07-.051l-.288-.418c.13-.01.217-.019.309-.027l-.265-.465-.154.695m3.578-6.316c-.151-.027.017-.363-.287-.27-.137.043-.27-.102-.194.173.006.022-.15.089-.22.186l.701-.09m-.32-.93c-.318-.157-.345-.388-.174-.69l-.482.2c.448.611.448.611.655.49m-3.915 5.084.325.011-.005-.334c.14-.144.267-.262.377-.393.024-.03-.001-.113-.023-.163-.007-.016-.094-.022-.112-.002-.026.03-.01.094-.034.129a1.353 1.353 0 0 1-.169.212c-.143.148-.291.29-.437.435l.078.105m2.057-.24c.259-.359.255-.483-.062-.823l-.187.462c.09.13.163.238.249.36m-2.05 2.278.604.14c.064-.13.145-.277.2-.435.008-.023-.108-.091-.166-.138-.125.272-.332.401-.669.308l.03.125m2.986-3.614c.11.283.202.474.249.677.011.048-.129.133-.221.223.06.066.156.176.255.285.036-.144.059-.294.113-.431.067-.175.159-.34.28-.588l-.325.192-.35-.358m.95-.179c.118.151.189.242.207.267l.9-.23c-.006-.019-.015-.038-.022-.056l-.085.036-.211-.456c-.119.431-.433.428-.789.439m-1.14-.772c-.025.255-.204.129-.365.05.015.23.015.23.372.201l-.295.363c.292.049.503.09.715.116.139.017.227-.144.177-.34l-.3.189a1.724 1.724 0 0 1-.057-.068l.242-.27c-.141-.07-.312-.155-.49-.241m-1.982 4.051.18.046.017-.053c-.121-.134-.237-.276-.367-.397-.047-.043-.13-.047-.198-.043-.056.004-.112.045-.168.071.008-.075.017-.15.024-.227.002-.032-.004-.064-.01-.157l-.268.152c.06.205.095.408.179.575.065.13.18.265.298.297.07.021.19-.155.313-.264m2.26-4.864-.421-.189.402.748c.145.17.31.152.453-.006-.15-.128-.34-.256-.257-.464l.232.271.096.001c-.056-.222-.154-.456.177-.604-.405.104-.648-.077-.875-.293l-.088.072c.077.08.135.18.235.235.202.112.14.174.047.229m.18 6.765c-.005.001-.008.002-.01.004-.103-.013-.21-.037-.305-.054-.145-.024-.134-.082-.207.049-.022.04-.054.073-.09.121l-.18-.52-.195.541-.193-.212-.12.182c-.12-.076-.317-.132-.335-.23-.044-.224-.227-.17-.319-.273l-.067.052.283.489-.556.052-.262-.014v-.63c-.227.316-.502.08-.744.155-.072-.188-.127-.383-.217-.557-.125-.24-.1-.331.196-.44-.082-.06-.142-.106-.204-.148-.076-.052-.152-.1-.193-.127l.029-.641c.098-.06.355-.04.167-.297l-.187.118.05-.338c.107-.034.2-.062.325-.1l-.26-.328-.005.25c-.12-.203-.062-.292.156-.289.062 0 .127-.05.187-.083.006-.005-.016-.061-.024-.093l-.203.097c-.25-.338.283-.332.266-.61l-.18.187c-.03-.15-.081-.256-.063-.351.03-.178.102-.35.156-.524l.182.451c-.007.103-.03.208-.015.307a.218.218 0 0 0 .12.146c.04.014.105-.046.155-.07l-.268-.38.113-.28c-.04-.078-.07-.155-.12-.214-.015-.019-.085.014-.13.023a.483.483 0 0 1 .113-.523l.069.026-.063.151.354.12c-.072-.136-.092-.235-.15-.274-.257-.17-.28-.318-.103-.59.083-.125.121-.283.177-.427.04-.104.063-.216.114-.312.082-.156.181-.303.273-.453l-.047-.034.326-.056c-.165-.291-.083-.463.184-.56.03-.01.039-.086.064-.127.14-.229.184-.547.542-.564.176-.008.262-.16.283-.35.012-.105.053-.207.082-.31l.183-.022c0 .082-.002.165-.001.237l.18-.1-.172-.236c.093-.038.185-.078.28-.111.039-.015.082-.016.123-.022l-.136.118.368.256c-.029-.183.3-.241.148-.435-.18-.094-.2.36-.388.063.04-.081.073-.226.121-.233.21-.032.424-.014.635-.035.172-.017.325-.059.205.222-.016.04.061.121.099.191l.153-.157.15.195.004-.083c.206-.034.412-.066.609-.1.09.075.183.15.287.235-.004.074-.005.188-.018.3-.028.219-.127.278-.311.179-.06-.033-.096-.114-.142-.172-.062.025-.12.052-.18.074-.059.02-.118.035-.191.057.109.065.265.118.262.164-.007.123-.084.24-.133.36l.03.057c.091-.085.18-.173.276-.255.042-.036.098-.09.142-.085.093.01.183.053.278.084l.179.48.146.013c-.074.107-.177.188-.18.27-.014.325-.21.475-.453.603-.038.02-.066.063-.1.096l.136.068c-.096.204-.2.427-.31.658l.284.233.463-.255-.028-.087-.51.01.15-.273.383.166c-.072-.162-.141-.255-.148-.354-.008-.101.046-.208.063-.276.136.085.247.204.372.219.206.024.15.121.118.244l-.335-.046c.107.114.14.203-.052.285.156.079.28.14.403.204l.276-.261.048.06-.077.105.237.218-.157.213-.11-.312-.09.028.115.53.051-.032.19.304c-.384.218-.745.425-1.098.627l-.23-.204.059.346c.217.033.424.049.621.1.1.026.25.102.264.18.022.13-.048.278-.079.42a1.997 1.997 0 0 0-.028-.012l.024.376-.091.028c-.068-.2-.197-.402-.187-.599.014-.259-.076-.342-.261-.386l-.082.23.309.108-.25.152c0-.039-.002-.078-.003-.113-.156.058-.21.163-.123.33.131.25.331.382.602.375l-.045.36c-.077.044-.178.07-.22.136-.024.037.049.14.066.187-.104.113-.21.226-.319.342l-.085-.584.297-.151c-.06-.11-.102-.182-.139-.246-.086.105-.174.213-.258.313l-.47-.19.093.231-.236.227.252.128.094-.407.193.097c-.04.158-.073.269-.091.383-.008.05.04.123.02.156-.05.079-.126.14-.19.21l-.187-.215.23-.02c-.08-.089-.217-.174-.25-.142-.17.163-.222.047-.297-.086-.014-.024-.099-.004-.15-.004l.28.456c-.24.132-.479.21-.711-.043l-.174.48c.025.008.05.014.076.023.01-.048.017-.097.034-.143.018-.052.046-.1.07-.15l.103.02v.841l-.604-.192.03-.091-.063-.026-.085.243.191.053-.041.113c.46.009.46.009.492.093l-.37.194-.177-.216-.123.222c.102.068.195.185.285.18.24-.012.23.094.156.265M212.75 91.899l.214-.397-.262-.308-.04.22-.207-.177a16.989 16.989 0 0 1-.097-.004c-.003.132-.062.29.005.39.083.123.271.198.386.276m-2.517-3.805-.081.052.239.29-.452-.06c.068-.09.136-.156.173-.234.049-.104.1-.176.257-.112a.11.11 0 0 0 .09-.016c.082-.076.158-.158.238-.239l.275.309c.067-.149.11-.247.163-.362-.087-.006-.164-.01-.295-.02.127-.137.211-.262.335-.347.09-.061.253-.044.35-.101.253-.152.212.093.304.157.02.014.05.027.073.026.218-.01.477.034.643-.047.219-.108.413.045.61.001.018-.003.078.102.118.158.011.016.017.038.032.047.082.05.167.096.252.144-.24.061-.243.157-.151.268l-.255.18a.726.726 0 0 1 .033.036l.24-.07-.076.228c.355.065.34.238.236.382l.259.39c.143.016.295.05.114.245-.048.05-.032.19.019.256.17.218.113.474-.102.63-.101.074-.105.241-.153.366-.006.031-.098.052-.148.02-.145-.091-.138-.1-.258.003.214.1.134.204.047.269.064.12.181.272.152.297-.095.077-.245.106-.398.164.158.144.141.289-.082.34-.018.102-.023.172-.045.238-.089.273-.372.072-.527.137-.042.108-.092.215-.188.262-.065.031-.193-.023-.35-.048l.06.38c-.206-.144-.38-.237-.206-.412.011-.012-.028-.067-.052-.097-.142-.17-.432-.194-.641-.083-.158.082-.338.171-.52.178-.393.014-.792-.224-1.194-.071-.033.012-.104-.038-.158-.06l.043.056-.626.34-.047-.306-.148.154c-.212-.151-.404-.308-.626-.198l-.171-.82.274.021-.135-.27.074.019c.03-.056.09-.112.088-.169-.01-.279.035-.315.399-.245-.007-.066-.006-.125-.02-.183-.05-.205.052-.346.272-.408.077-.022.163-.076.193-.136.067-.136.081-.293.152-.428.076-.146.192-.275.29-.412-.017-.015-.035-.03-.053-.043l.381-.014a48.134 48.134 0 0 0-.115-.206l.553-.245-.077-.161.994.016.015-.08c-.08-.065-.207-.198-.234-.186-.222.1-.337-.027-.456-.17M205.926 82.164l-.268-.287-.321.07-.15-.448-.41.079a3.401 3.401 0 0 0-.032-.084l.718-.36-.236-.306c.22.057.34.1.293-.133-.041-.21.009-.426.01-.64.002-.069-.02-.14.01-.198l.032-.36-.084-.014-.276.518-.042-.001.03-.779c.002-.044.029-.102.005-.132-.135-.169.025-.162.235-.206l-.316-.172a4.916 4.916 0 0 0-.056.057l-.016-.166-.422-.018c.08-.1.127-.162.203-.26-.364-.146-.697.026-1.049-.057-.077-.208-.19-.242-.701-.164.008.064.011.13.026.195.014.061.042.121.061.174l.514-.086c-.17.165-.288.3-.43.412-.147.117-.3.248-.484.308-.134.045-.32-.032-.48-.026-.058.003-.126.079-.155.136-.046.093-.03.22-.096.291-.254.263-.655.423-.709.822-.406.12-.26.525-.47.742-.05.051-.154.059-.238.087-.063.177-.005.419-.308.487-.036.008-.072.166-.039.194.07.06.184.08.31.13l-.233.047.134.23-.453-.202c.01-.003-.007 0-.006.002.005.418-.37.702-.428 1.11-.034.247-.204.47-.044.74.097.164.13.383.275.49.114.083.356.039.541.036.065-.001.127-.05.232-.094l-.115-.105.071-.034c.045.034.112.062.13.103.174.385.546.395.91.402.142.002.28-.045.423-.053.071-.004.154.056.223.047.216-.03.273-.16.203-.382.214.14.386.27.58.367.077.038.201-.003.304-.009l-.01-.095-.183-.009c-.003-.16.088-.198.24-.133.198.084.259.029.293-.144.02-.096.14-.17.2-.26.058-.087.16-.196.133-.272-.075-.21.108-.261.227-.287.298-.062.312-.058.122-.37l.579.196c.009-.084.028-.138.018-.19-.045-.205.097-.262.283-.282.246-.026.238-.024.226-.23-.004-.073.04-.145.063-.22l.288.024.111-.238.004.01zM199.805 95.32c.111.168.204.304.294.436.114-.149.204-.254.277-.366.033-.054.03-.122.043-.184-.064.028-.122.065-.194.079-.097.017-.204.019-.42.036m-1.24 5.548c.316.228.404-.2.746-.139-.096-.145-.147-.25-.233-.34a.332.332 0 0 0-.214-.073c-.047.006-.068.084-.093.133-.058.113-.11.227-.205.419m-1.291-.609-.413-.502-.681.736.419.116c.065-.137.1-.271.194-.372.033-.036.208.006.481.022m-.235-.016c-.368-.202-.362-.363-.044-.572.28-.184.256-.3-.157-.556-.105.284-.213.554-.302.829-.049.149.088.235.503.3m-1.587-.918.737-.031.067.101c-.108.061-.27.105-.31.19-.041.091.034.222.062.362l.575-.09c-.373-.356-.373-.356.313-.444l-1.064-.43-.38.342m.646 1.35-.516.497c.016.018.03.037.045.056l.437-.173.06.038-.17.158.229.136.33-.06.065.196c.239-.03.239-.03.071-.49-.343.132-.515.02-.551-.357.013-.15.028-.298.044-.467l-.292.05a4.47 4.47 0 0 0 .006-.111l-.575-.137c.125-.092.258-.14.26-.2.004-.238-.033-.48-.055-.724-.13.041-.25.112-.3.088-.087-.041-.131-.14-.222-.247l.39-.008c-.591-.308-.668-.516-.276-.689.18.15.36.3.564.473-.003-.083-.004-.145-.008-.231l.388.235c-.009-.108.012-.19-.023-.21-.134-.076-.302-.12-.432-.201-.12-.076-.209-.181-.31-.274l.066-.036.229.076-.322-.42c-.021.01-.124.05-.226.089.019-.073.083-.107.143-.145.054-.034.152-.072.147-.11-.038-.29.232-.394.475-.524l.156.22c.009-.17.012-.267.017-.376l-.365.04.352-.582.488.277.037-.293.633.093.88-.983c.097-.008.186.004.222-.022.245-.182.506-.356.707-.564.142-.15.177-.091.28.034.058.07.169.12.25.175l.046-.263c.068.12.094.162.117.207.028.054.06.155.078.155.104.002.241.007.298-.038.21-.168.392-.355.628-.573l.259.363c-.39.044-.273.306-.221.45.042.114.346.203.534.303l.042-.034c-.11-.112-.223-.225-.4-.402l.588.12.11.542-.324-.174c-.049.165-.092.318-.148.512l.362-.022c-.008.142-.014.28-.021.432l-.299-.121c-.022.208.054.462-.079.566-.322.251-.355.507-.087.85l-.568-.1c0-.001-.019.045.004.066.2.185.183.325-.028.464-.048.03.026.16.044.25l-.295.033c.142.256.408.043.584.17-.022.17.189.395-.108.577-.056-.126-.094-.207-.147-.321l-.506.182c.093.112.146.248.257.298.349.156.233.257.052.364l-.336-.161.33-.033-.035-.097-.633.062.1.086-.096.36.534.198-.273.454-.078-.02-.145-.456-.276.287.437.44c-.247.233-.532.514-.835.783-.15.134-.299.293-.605.05-.097-.077-.302-.08-.473-.121l-.058.205-.314-.163.026.067c-.2.013-.397.041-.6.034-.19-.006-.393-.008-.563-.138a.395.395 0 0 0-.21-.053c-.536.004-.55-.001-.701-.368-.014-.032-.038-.063-.044-.072.08-.05.207-.089.2-.13-.05-.318.213-.368.548-.367M207.244 102.664c-.01.132-.02.263-.028.391.274-.044.274-.044.028-.39m-.377.705.423.21.306-.343-.226-.112-.503.245m-.113.183.096-.113-.19-.48c-.078-.01-.158-.022-.237-.034.026-.25.14-.334.414-.316l-.145.086c.593-.042.64-.053.535-.142l-.114.041-.23-.282.255-.233c.236.306.4.332.743.138.177.12.355.238.462.31-.024-.055-.048-.172-.13-.273-.09-.11-.236-.204-.327-.027-.171-.118-.224-.182-.408-.5l1.21-.748.014-.168c.045.04.091.08.153.132.131-.033.314-.05.43-.117.096-.055.113-.17.165-.26-.28-.162.157-.167.133-.23.117.026.246.083.329.068.22-.039.422-.11.58-.155l.281.272c.16-.07.225-.232.526-.071l-.257-.018.594.37.042-.167.075.008c.017.086.036.172.055.259l-.302.087c.277.102.62.126.443.378-.016.022.039.079.071.116.036.043.127.112.12.116-.073.046-.151.094-.247.112-.082.014-.188-.012-.284-.02.096.08.22.157.334.163.11.007.21-.058.314-.092.09.277-.039.48-.295.471.045.407.19.84-.424 1.095l.35.01-.146.33-.373-.078-.009.539c.302.133.213.322.123.58-.087-.13-.135-.2-.157-.231l-.722.169c.101.032.22.067.337.107.054.02.104.047.156.071a7.236 7.236 0 0 0-.109.066l-.155.097.173.099-.59.248c-.053-.219-.298-.465-.466-.454-.164.01-.31.067-.52.117l.251.089-.138.13c.085.057.164.103.231.156.172.133.133.193-.12.192l.077.159-.706-.404c.062.166.11.3.163.445-.253.029-.484.01-.57-.275l-.117.21c-.24-.163-.663.136-.833-.248l.007.164-.968-.037c-.032-.178-.064-.357-.1-.568.237.074.44.131.342-.097-.009-.02.074-.046.114-.07.208.162.306-.046.483-.02-.099-.043-.195-.045-.291-.06-.239-.033-.49.021-.704-.168-.094-.083-.463.036-.336-.232l-.425-.047.022-.171.34-.027-.029.051.424.143c.03-.014.062-.027.094-.04-.064-.116-.082-.268-.201-.34-.158-.093-.394-.125-.663-.201l.294-.177.285.209.398-.212M196.048 76.493c.825-.326.607-1.682-.097-2.1l.522.046c.078-.244-.198-.581-.676-.842l.566.1c-.069-.155-.156-.351-.24-.544-.239 0-.483-.001-.719-.003-.038-.06-.062-.087-.056-.089.3-.085.306-.33.634-.415.112-.028.112-.304.07-.318-.506-.17-.422-.345-.258-.546.15.056.59.012.228.231-.044.026.015.112.026.17l.119.024.171-.429a90.492 90.492 0 0 0-.471-.134c-.005-.141-.01-.283-.011-.359.171-.05.289-.084.406-.12a2.663 2.663 0 0 0-.052-.063c-.086-.011-.17-.024-.343-.048.374-.187-.016-.464.02-.667-.39-.141-.767-.283-1.152-.414-.066-.022-.21-.02-.234.006-.097.103-.43.105-.308.307.007.013-.181.04-.277.06a13.36 13.36 0 0 1-.136-.1c-.216.2-.434.397-.644.598-.035.033-.066.098-.032.126.444.367-.138.225-.337.276l.075.272.332.066c-.05.053-.095.109-.154.158-.221.19-.446.378-.67.568.301.192.027.324.074.495-.708-.068-.072.338-.36.424l.472.186-.243.332-.22-.107c-.373.121-.052.366-.119.598l.322-.184c.214.25.135.395-.167.465.092.115.174.205.228.297.03.048.04.14.002.147-.68.137-.05.511-.08.764-.009.078.168.21.37.104a.514.514 0 0 1 .262.033c.147.215.476.431.283.65-.028.03-.064.07-.048.104.032.062.1.123.152.184l.285-.153c.003.062-.024.114.014.15.056.052.21.138.233.13.165-.052.456.014.514-.006.354-.125.555.102.824.198l-.117-.592c.186.095.357.199.552.278.132.052.296.069.445.101-.016-.064-.03-.129-.051-.193-.017-.053-.04-.107-.054-.146l-.398.02c-.018-.037-.06-.106-.052-.107.174-.02.352-.035.529-.05l.046.06M197.956 94.907c.082-.104.165-.21.24-.303-.004.048-.009.145-.015.253.033-.004.063.005.085-.011.076-.056.145-.132.222-.179.3-.185.464-.534.501-.972.013-.155.12-.313.19-.481-.127-.189-.403-.198-.545.048-.28.487-.54.997-.807 1.497l.129.148" fill="#1E7DA7"/>
        <path d="m197.91 93.79 1.01-.367-.018-.571 1.155-.066c.128-.303-.016-.698-.328-.621-.319.079-.661-.02-.965.368-.292.37-.607.709-.913 1.061l.058.196M200.363 92.013c-.006.302.049.638-.033.896-.104.33-.318.597-.527.965.123.012.222.023.349.038l.002-.45c.136.054.265.648.381-.365.096.34.141.503.198.701l.125-.078-.056-.866c-.066.02-.167.097-.21.05-.062-.07-.103-.218-.113-.356-.012-.176.019-.379.03-.568l-.146.033M206.731 104.774l.102-.166-.457-.513c-.066.098-.19.213-.22.348-.027.122.025.367.083.38.152.037.327-.025.492-.049" fill="#1E7DA7"/>
        <path d="M198.845 93.171c-.24.159-.483.317-.736.483.133.218.268.28.49.168.27-.134.213-.392.316-.588l-.07-.063M184.634 77.017l-.412.935c.235.037.397.04.408-.25.005-.182.082-.36.109-.543.006-.041-.068-.094-.106-.142h.001zM206.868 106.792l-.123-.52-.192.325a87.176 87.176 0 0 1-.456-.223c.036.15.043.327.09.34.21.05.431.054.68.078M206.248 81.725c.104.05.208.1.31.151l.037-.048-.145-.212a5.34 5.34 0 0 1 .05-.053l.39.235-.393-.538.048-.114-.458.163.043.112.296-.124-.174.44-.004-.012M171.155 99.716l.416-.023c.08-.117.175-.259.273-.406-.438-.131-.497.249-.689.429M183.672 78.259c-.125-.003-.25-.008-.382-.01l.254.538c.019-.002.098-.011.162-.02l-.034-.508M209.281 104.517c-.142.32.134.229.294.309l.206-.576c-.293-.077-.119.533-.5.267M190.576 77.566l-.195.114.126.143.243-.203-.442-.482c-.089.33-.089.33.268.428M189.617 94.318a.029.029 0 0 0-.01.004l-.373.233.337.214.224-.46c-.072.004-.125.006-.178.01M191.17 93.65l.126.121.485-.19.039-.328c-.134.1-.223.178-.32.237-.098.059-.206.1-.33.16M184.538 108.205l-.297.51.07.055.419-.348a23.815 23.815 0 0 1-.196-.225l.004.008M185.387 77.818l.236-.229.058-.393a4.644 4.644 0 0 0-.126-.012l-.204.366-.001-.01.038.279h-.001zM169.69 99.44c-.023-.02-.042-.051-.068-.057a1.317 1.317 0 0 0-.256-.038c-.008 0-.047.132-.025.151.078.069.176.115.266.17l.077-.238.005.011M178.742 92.295l-.442.215.28.263.162-.478M190.204 86.569c.143-.273.529.23.604-.135-.119-.016-.244-.01-.35-.052-.184-.072-.254-.01-.254.187M192.454 88.356l-.23.22c.221.02.365.035.508.05l.019-.092a52.89 52.89 0 0 0-.297-.178" fill="#1E7DA7"/>
        <path d="M141.857 208.524c-.152.035-.246.072-.341.076-.227.01-.455.013-.682.002-1.507-.07-3.014-.135-4.52-.225-.474-.028-.943-.124-1.413-.19-.062-.009-.123-.022-.185-.029-.26-.03-.572-.166-.74.121-.188.324.117.528.302.734.387.428.782.849 1.189 1.26.581.585 1.177 1.155 1.761 1.74.246.246.495.492.718.836-.135.036-.223.077-.312.079a3.408 3.408 0 0 1-.495-.031c-2.18-.287-4.328-.707-6.385-1.514a8.077 8.077 0 0 0-.765-.252 1.529 1.529 0 0 0-.43-.055c-.28.004-.48.18-.476.459.003.199.044.409.116.596.304.786.623 1.567.942 2.347.31.76.63 1.518.941 2.279.062.15.104.308.147.438-.138.175-.287.147-.426.116-.626-.138-1.257-.258-1.872-.435-1.12-.318-2.174-.797-3.199-1.345a3.682 3.682 0 0 0-.68-.298c-.399-.12-.663.069-.665.475 0 .244.033.493.09.731.373 1.6.758 3.197 1.312 4.75.063.174.109.353.154.532.008.03-.02.071-.044.149-.107-.008-.229-.002-.342-.028a4.725 4.725 0 0 1-1.526-.669c-.379-.252-.743-.524-1.112-.79-.251-.182-.493-.378-.75-.55a4.643 4.643 0 0 0-.643-.373c-.535-.247-.823-.061-.841.537-.006.163.005.329.026.491.065.53.135 1.058.21 1.587.17 1.201.226 2.408.214 3.62-.005.695.006 1.39.01 2.138-.188-.12-.275-.268-.362-.417-.591-1.013-1.194-2.02-1.772-3.04a75.919 75.919 0 0 1-1.506-2.764c-.954-1.856-1.53-3.812-1.506-5.912.02-1.825.533-3.519 1.365-5.125.178-.343.416-.66.662-.962a22.232 22.232 0 0 1 2.729-2.758c.767-.658 1.635-1.18 2.518-1.667.722-.398 1.46-.77 2.243-1.04 1.253-.43 2.523-.772 3.863-.826 1.258-.051 2.475.139 3.666.522 2.778.894 5.373 2.154 7.745 3.856.27.192.54.383.806.58.079.058.145.135.261.244" fill="#E86748"/>
        <path d="m118.406 209.651-.73.776c-.1-.09-.197-.16-.272-.248-.965-1.123-2.063-2.089-3.238-2.972-2.132-1.603-4.375-3.02-6.693-4.319a43.714 43.714 0 0 1-7.29-5.087c-1.916-1.658-3.564-3.572-5.087-5.609a40.56 40.56 0 0 1-4.234-7.074 29.315 29.315 0 0 1-2.097-6.06c-.222-.986-.444-1.972-.647-2.962-.325-1.594-.458-3.216-.504-4.844-.063-2.24-.09-4.48-.146-6.72a33.808 33.808 0 0 0-.723-6.153c-.135-.637-.335-1.26-.526-1.883-.45-1.468-.992-2.898-1.565-4.319-.807-2.003-1.612-4.01-2.183-6.104-.309-1.134-.54-2.294-.8-3.443-.031-.142-.025-.294-.038-.463.411-.261.876-.328 1.287-.468.182.115.178.272.212.41.295 1.228.568 2.461.889 3.682.272 1.036.573 2.067.909 3.084.348 1.056.752 2.093 1.134 3.136.642 1.753 1.393 3.462 1.939 5.255.38 1.25.647 2.528.862 3.817.42 2.522.57 5.073.611 7.633.036 2.18.198 4.35.521 6.5.142.937.337 1.867.556 2.787.21.88.458 1.75.731 2.61a29.285 29.285 0 0 0 1.653 4.075 47.513 47.513 0 0 0 5.083 8.16c2.068 2.667 4.473 4.951 7.329 6.707 1.366.842 2.765 1.63 4.14 2.46 1.004.605 2.012 1.208 2.983 1.866 2.146 1.457 4.015 3.234 5.627 5.295.077.098.153.197.225.298.023.032.035.073.082.177M168.793 222.737c1.02-.454 1.98-1.127 2.943-1.729 1.325-.826 2.627-1.193 3.913-1.073 1.788.166 3.44.807 4.875 2.194.8.774 1.5 1.826 2.01 3.298-.066.002-.12.027-.158.003-1.77-1.148-3.72-1.468-5.775-1.298-.697.058-1.394.106-2.089.144-1.28.07-2.537-.005-3.746-.357a4.92 4.92 0 0 1-1.8-.984c-.062-.053-.115-.131-.173-.198" fill="#1E7DA7"/>
        <path d="M95.833 203.814c-.055-.049-.115-.095-.164-.149-1.577-1.778-2.898-3.7-3.81-5.838-.319-.746-.58-1.512-.84-2.275-.176-.515-.32-1.04-.452-1.566a25.324 25.324 0 0 1-.749-6.732c.026-1.2.12-2.396.185-3.592.008-.14.018-.283.11-.488.063.262.121.438.146.616.118.868.348 1.714.59 2.562.396 1.389.913 2.743 1.44 4.095.648 1.667 1.328 3.328 1.834 5.036.504 1.707.927 3.43 1.21 5.179.146.9.34 1.793.513 2.689.028.144.054.289.08.433l-.093.03M79.354 166.192c-.284-.17-.291-.37-.375-.55-.664-1.431-1.021-2.877-1.281-4.33-.413-2.304-.522-4.582-.285-6.827.298-2.819 1.03-5.535 2.27-8.126.072-.15.168-.293.256-.438.008-.011.043-.012.104-.029.113.163.06.32.085.476.022.15.046.302.064.452.249 2.178.475 4.356.75 6.535.481 3.82.35 7.549-.802 11.132-.157.491-.376.966-.58 1.445-.038.093-.13.169-.206.26M99.24 170.261c-.162.032-.279-.071-.404-.13-3.07-1.413-5.796-3.253-8.239-5.441-.868-.778-1.744-1.55-2.48-2.433-.137-.163-.321-.31-.353-.536 1.98.327 4.97 1.773 7.237 3.541 1.76 1.373 3.832 3.805 4.238 5" fill="#1E7DA7"/>
        <path d="M241.237 158.716c-.068.13-.098.22-.155.291a6.766 6.766 0 0 1-.426.487c-.998 1.032-1.992 2.066-3.005 3.086-.318.32-.686.595-1.031.89-.046.04-.094.075-.137.114-.187.167-.488.306-.37.603.13.335.479.244.753.239.571-.01 1.145-.033 1.715-.068.816-.052 1.628-.125 2.444-.18.344-.023.69-.048 1.095.006-.057.117-.08.206-.135.27-.101.12-.214.231-.334.334-1.586 1.378-3.255 2.65-5.166 3.618-.233.118-.456.25-.674.39a1.44 1.44 0 0 0-.31.273c-.175.203-.162.454.054.623.156.121.343.223.532.287.796.27 1.598.525 2.398.78.782.25 1.566.49 2.348.74.153.049.301.116.427.166.05.206-.065.296-.176.375-.499.36-.987.738-1.508 1.067-.946.6-1.976 1.058-3.04 1.449a3.703 3.703 0 0 0-.656.3c-.343.211-.363.517-.05.77.188.15.4.282.618.389 1.468.723 2.94 1.437 4.483 2.003.172.063.34.14.506.218.03.014.043.06.088.125-.074.071-.145.162-.236.225-.445.311-.938.536-1.472.677-.431.113-.87.205-1.306.303-.296.067-.599.119-.892.194-.235.062-.47.132-.69.229-.527.229-.563.55-.114.933.123.105.258.199.395.285.449.281.9.558 1.354.832a25.069 25.069 0 0 1 2.924 2.087c.533.435 1.075.857 1.654 1.317-.211.06-.38.03-.548 0-1.151-.205-2.305-.398-3.453-.617a81.129 81.129 0 0 1-3.073-.636c-2.028-.468-3.894-1.268-5.5-2.586-1.392-1.143-2.377-2.558-3.092-4.145a5.242 5.242 0 0 1-.327-1.068 20.1 20.1 0 0 1-.416-3.653c-.027-.955.114-1.897.292-2.829.145-.76.32-1.518.605-2.244.452-1.16.984-2.278 1.783-3.267.747-.928 1.656-1.68 2.697-2.291 2.43-1.428 5.026-2.5 7.824-3.14.317-.072.633-.147.95-.215.096-.02.196-.02.353-.036" fill="#E86748"/>
        <path d="m226.293 173.1.1 1.095c-.135.022-.252.055-.368.06-1.49.055-2.95.32-4.4.7-2.629.69-5.192 1.59-7.715 2.63-2.822 1.162-5.716 2.05-8.694 2.615-2.526.48-5.07.575-7.62.491a38.838 38.838 0 0 1-8.16-1.149 27.597 27.597 0 0 1-5.971-2.226c-.893-.458-1.785-.917-2.667-1.395-1.42-.77-2.734-1.711-3.993-2.729-1.733-1.4-3.443-2.83-5.171-4.235a31.63 31.63 0 0 0-5.127-3.4c-.57-.305-1.174-.546-1.771-.795-1.408-.586-2.85-1.072-4.303-1.529-2.05-.642-4.1-1.29-6.06-2.183-1.064-.485-2.093-1.049-3.133-1.583-.128-.066-.24-.17-.375-.269.076-.502.335-.923.503-1.346.208-.074.324.032.45.093 1.123.556 2.237 1.134 3.372 1.665.965.45 1.943.875 2.933 1.262 1.03.4 2.081.745 3.124 1.111 1.75.616 3.54 1.113 5.256 1.833 1.198.501 2.34 1.113 3.457 1.774 2.185 1.293 4.21 2.823 6.17 4.449a46.048 46.048 0 0 0 5.254 3.788c.801.493 1.634.937 2.475 1.356.803.4 1.626.761 2.456 1.098 1.357.548 2.755.971 4.178 1.3a45.564 45.564 0 0 0 9.543 1.164c3.39.052 6.717-.42 9.943-1.597 1.545-.564 3.071-1.187 4.611-1.765 1.127-.422 2.253-.848 3.397-1.209a24.722 24.722 0 0 1 7.743-1.134c.125.002.25.005.375.011.04.003.079.02.188.05" fill="#1E7DA7"/>
        <path d="M198.386 179.359c.753-1.341 1.266-2.728 1.84-4.083a13.385 13.385 0 0 1 3.428-4.82c2.096-1.877 4.42-3.369 7.108-4.25 1.497-.492 3.11-.736 4.852-.565-.07.074-.11.147-.171.176-2.863 1.37-5.257 3.345-7.375 5.681-.719.793-1.443 1.58-2.175 2.36-1.349 1.438-2.786 2.778-4.395 3.928a12.28 12.28 0 0 1-2.762 1.482c-.113.042-.233.06-.35.09M209.25 189.568c-.071.007-.143.022-.215.022-2.325-.018-4.606-.324-6.81-1.087-.767-.266-1.517-.589-2.265-.91a20.584 20.584 0 0 1-1.48-.722 27.258 27.258 0 0 1-5.653-4c-.91-.832-1.778-1.714-2.663-2.575a1.34 1.34 0 0 1-.31-.414c.24.131.41.207.563.31.742.498 1.535.899 2.336 1.29 1.311.644 2.67 1.173 4.032 1.693 1.68.642 3.373 1.254 4.996 2.032 1.624.778 3.211 1.627 4.732 2.6.782.5 1.59.96 2.387 1.437l.383.233-.033.09M171.555 176.799c-.266.053-.433-.092-.615-.175-1.459-.65-2.79-1.507-4.082-2.43a37.395 37.395 0 0 1-5.646-4.934c-2.143-2.301-4.006-4.798-5.535-7.524-.089-.158-.16-.326-.237-.49-.006-.014.008-.037.023-.088.182.05.286.202.423.303.132.099.265.196.394.298 1.873 1.473 3.736 2.96 5.622 4.419 3.305 2.556 6.26 5.433 8.632 8.846.325.467.609.962.904 1.449.058.095.076.21.117.326M185.452 167.609c-.077.159-.243.174-.375.233-3.228 1.436-6.606 2.256-10.103 2.567-1.244.111-2.488.231-3.738.15-.231-.013-.48.024-.697-.126 1.57-1.385 4.774-2.731 7.792-3.226 2.342-.383 5.813-.196 7.121.402" fill="#1E7DA7"/>
        <g>
            <path d="M150 352.673c.053-.018.104-.04.158-.053.244-.057.488-.116.734-.165.307-.061.614-.12.923-.167.394-.06.788-.124 1.184-.156a9.814 9.814 0 0 1 1.67.02c.223.019.447.03.67.055.137.015.26-.082.217-.258a8.43 8.43 0 0 0-.29-.956c-.075-.2-.147-.402-.217-.604a99.215 99.215 0 0 1-.293-.85c-.155-.457-.28-.923-.395-1.39-.003-.012-.002-.024-.004-.057.049.042.086.073.121.105.363.332.733.657 1.132.945.396.287.79.574 1.184.863.104.077.201.161.303.24.036.03.072.059.113.08.077.043.153.011.163-.075.04-.35.224-.632.43-.9.435-.566.929-1.082 1.433-1.587.233-.234.469-.465.703-.698l.07-.065c-.004.038-.004.063-.01.086l-.455 2.152a18.678 18.678 0 0 0-.262 1.642c-.047.394-.115.784-.174 1.176l-.02.137c-.014.123.03.183.152.195.092.01.184.015.277.014.486-.002.968.05 1.45.106.31.035.624.063.931.118.357.064.71.155 1.064.235.009.002.016.009.038.02-.107.048-.203.097-.303.135a16.19 16.19 0 0 1-.613.22c-.288.097-.578.183-.865.28-.29.098-.585.181-.884.254-.218.053-.435.11-.653.162-.08.02-.161.037-.243.047-.146.018-.195.128-.097.255.203.265.382.546.54.84.2.368.383.745.515 1.143.08.238.161.476.195.726.012.092.042.181.058.272.053.279.098.559.157.836.048.236.111.47.166.705.02.092.036.187.041.29-.027-.025-.056-.049-.082-.076-.343-.353-.687-.704-1.026-1.06a30.125 30.125 0 0 0-1.502-1.467c-.16-.148-.31-.308-.465-.46a1.738 1.738 0 0 0-.21-.18c-.124-.088-.201-.068-.274.065-.047.087-.082.18-.135.264-.154.246-.31.491-.474.73-.432.627-.926 1.204-1.43 1.773-.264.298-.552.577-.83.864l-.402.423c-.02.022-.042.042-.078.078.003-.06.003-.103.007-.144.079-.727.191-1.448.401-2.15.23-.765.462-1.53.699-2.293.058-.19.136-.373.205-.558.058-.152.093-.31.112-.471a.24.24 0 0 0-.104-.242 1.572 1.572 0 0 0-.222-.127 4.127 4.127 0 0 0-.99-.307c-.757-.145-1.495-.36-2.23-.585a47.544 47.544 0 0 0-.742-.219 5.32 5.32 0 0 0-.778-.142c-.153-.02-.305-.044-.459-.066l-.005-.023" fill="#FBD905"/>
            <path d="M159.967 326.57c-.819-2.288-2.448-4.854-3.582-5.57-.25.915-.475 1.81-.655 2.715-.49 2.464-.406 4.896.325 7.317.757 2.506 1.923 4.804 3.365 6.976.06.089.125.173.2.261-.901-.102-1.817-.111-2.75-.016-1.59.162-3.184.3-4.775.46a21.52 21.52 0 0 1-3.522.077c-1.567-.1-3.017-.533-4.283-1.49-.15-.113-.318-.204-.516-.33l-.774.745c.193.41.552.594.869.805 2.07 1.375 4.344 2.1 6.846 1.948 1.137-.069 2.267-.264 3.397-.42 1.066-.147 2.125-.377 3.195-.467 3.65-.309 6.846.744 9.476 3.317 1.922 1.88 3.259 4.134 4.077 6.678.836 2.598.79 5.247.27 7.897-.43 2.19-1.33 4.208-2.463 6.121-.678 1.146-1.413 2.26-2.133 3.38-1.448 2.249-2.73 4.577-3.665 7.089-2.107 5.651-2.438 11.385-.868 17.218.49 1.825 1.245 3.552 1.955 5.296.055.133.144.252.242.423.242-.24.43-.415.604-.604.086-.094.145-.213.206-.306-.013-.088-.008-.158-.033-.214-.957-2.15-1.515-4.42-2.014-6.704-.493-2.252-.542-4.501-.336-6.742 1.23.045 2.382-.108 3.526-.328 2.03-.39 3.97-1.05 5.725-2.146 1.581-.987 2.948-2.23 4.173-3.638 1.61-1.85 2.766-3.98 3.942-6.102.028-.051-.017-.142-.032-.243-2.145.597-4.225 1.196-6.316 1.754-2.16.576-4.145 1.475-5.87 2.914-2.091 1.744-3.758 3.8-4.961 6.2.11-.77.243-1.537.394-2.304.412-2.085 1.262-4.03 2.306-5.877.783-1.386 1.625-2.74 2.47-4.09 1.261-2.013 2.437-4.069 3.409-6.24 1.659-3.704 2.126-7.534 1.355-11.516-.588-3.039-1.833-5.746-4.074-7.94-1.473-1.442-3.08-2.712-5.009-3.52-1.139-.477-2.3-.823-3.486-1.009 1.166-3.725 1.073-8.193-.21-11.776" fill="#1E7DA7"/>
            <path d="M143.496 330.017c.54.85.89 1.668 1.033 2.556.215 1.326-.071 2.526-.994 3.54-.706.775-1.581 1.027-2.599.815-.842-.175-1.516-.639-2.099-1.25-1.01-1.062-1.617-2.348-2.046-3.727-.131-.425-.224-.86-.334-1.292-.039-.153-.06-.313-.11-.462-.186-.545-.57-.67-1.028-.301-.42.338-.802.724-1.206 1.082-1.031.913-2.25 1.419-3.6 1.636-1.084.175-2.093-.07-3.026-.617-.95-.556-1.45-1.406-1.485-2.507-.036-1.136.354-2.112 1.134-2.942 1.184-1.262 2.634-2.083 4.274-2.596.334-.105.673-.205.988-.351.413-.192.482-.611.158-.937a5.843 5.843 0 0 0-.732-.609c-1.145-.827-1.909-1.944-2.474-3.21-.438-.983-.549-2.028-.444-3.08.126-1.27.763-2.276 1.816-2.995.782-.535 1.662-.61 2.566-.395.991.235 1.81.76 2.486 1.518a7.45 7.45 0 0 1 1.36 2.17c.168.412.324.829.493 1.24.109.263.295.39.493.368.227-.026.311-.205.391-.373.095-.201.165-.413.247-.62.584-1.49 1.5-2.726 2.857-3.599 1.298-.834 2.717-1.24 4.27-1.02 1.546.219 2.152 1.036 1.925 2.587-.13.887-.43 1.729-.848 2.52-.37.702-.79 1.378-1.183 2.067-.125.22-.261.44-.348.675-.11.3.11.588.44.577.252-.008.506-.05.752-.109 1.112-.268 2.082.047 2.952.723.816.635 1.3 1.479 1.398 2.51.13 1.38-.216 2.65-.988 3.797-.502.746-1.235 1.181-2.09 1.41a4.998 4.998 0 0 1-2.55.005c-.495-.125-.985-.265-1.478-.395-.286-.075-.578-.112-.794.145-.224.268-.094.539.049.795.138.25.285.496.374.651" fill="#FBCCC2"/>
            <path d="M168 370.543c-.91.328-1.745.604-2.561.926-3.092 1.222-5.883 2.907-8.252 5.264-1.422 1.415-2.565 3.005-3.359 4.843-1.638 3.79-3.236 7.597-4.351 11.58a132.687 132.687 0 0 1-4.45 13.12c-1.49 3.757-3.366 7.3-5.731 10.586-4.769 6.629-10.763 11.835-18.096 15.487-2.249 1.12-4.581 2.051-6.938 2.924-3.025 1.12-6.116 2.017-9.247 2.782-2.992.73-6.009 1.35-9.059 1.792a272.63 272.63 0 0 1-6.311.862c-2.146.261-4.304.344-6.465.259-1.742-.07-3.433-.455-5.114-.89a3.362 3.362 0 0 1-.596-.221c-.66-.315-.853-.814-.508-1.474.209-.401.489-.777.79-1.117.543-.61 1.205-1.085 1.904-1.51 1.758-1.069 3.62-1.929 5.544-2.645 2.187-.814 4.4-1.563 6.6-2.348.264-.094.537-.2.76-.364a.893.893 0 0 0 .319-.5c.05-.235-.156-.386-.357-.466-.295-.117-.608-.187-.906-.3-.495-.185-1.016-.335-1.47-.596-1.26-.727-1.319-1.54-.22-2.487.701-.603 1.496-1.068 2.325-1.468 1.018-.492 2.054-.95 3.08-1.427.383-.18.769-.36 1.137-.569.179-.101.336-.256.472-.413.166-.189.117-.538-.102-.65a3.184 3.184 0 0 0-.789-.283c-.797-.162-1.602-.287-2.401-.441-.486-.094-.97-.2-1.447-.333a3.035 3.035 0 0 1-.775-.333c-.515-.32-.67-.834-.374-1.372.201-.365.454-.73.767-1 .694-.597 1.396-1.205 2.174-1.68 1.75-1.065 3.548-2.05 5.323-3.073 1.472-.847 2.918-1.736 4.236-2.81a14.65 14.65 0 0 0 1.619-1.518c.984-1.092 1.077-2.348.473-3.644-.718-1.54-1.932-2.588-3.491-3.237-1.216-.507-2.496-.786-3.796-.972-2.769-.396-5.506-.187-8.22.449-2.245.526-4.434 1.233-6.587 2.045-2.25.848-4.5 1.704-6.725 2.616a239.933 239.933 0 0 0-6.624 2.855c-2.844 1.266-5.688 2.537-8.655 3.495-2.665.86-5.37 1.574-8.194 1.674-.635.022-1.274.004-1.908-.042a3.88 3.88 0 0 1-1.032-.229c-.924-.336-1.079-.84-.483-1.592.238-.301.52-.59.834-.806.522-.358 1.086-.654 1.634-.975.151-.088.323-.15.455-.261.252-.212.17-.691-.143-.788a2.861 2.861 0 0 0-.727-.1c-1.377-.056-2.756-.092-4.133-.155a10.94 10.94 0 0 1-1.475-.162 4.454 4.454 0 0 1-1.004-.33c-.429-.192-.507-.506-.193-.834.315-.33.654-.653 1.034-.9.62-.404 1.268-.77 1.929-1.106.945-.48 1.915-.913 2.867-1.38.314-.155.632-.325.9-.545.338-.276.25-.784-.156-.956a3.533 3.533 0 0 0-.817-.21c-.733-.118-1.473-.198-2.203-.332a7.264 7.264 0 0 1-1.219-.35c-.18-.067-.324-.238-.49-.367.166-.446.499-.657.84-.827.886-.44 1.769-.893 2.684-1.265a63.524 63.524 0 0 1 3.685-1.356c1.41-.472 2.838-.887 4.255-1.332 2.938-.922 5.884-1.817 8.807-2.78a163.212 163.212 0 0 0 7.009-2.463c4.574-1.74 8.982-3.816 12.973-6.683 1.499-1.077 2.885-2.275 4.041-3.721.532-.665 1.013-1.363 1.337-2.152.988-2.403.561-4.435-1.351-6.252-.75-.714-1.647-1.219-2.587-1.642-2.09-.941-4.296-1.397-6.574-1.564-2.474-.181-4.951-.114-7.427-.103-1.945.01-3.892.063-5.834-.111-1.129-.101-2.256-.23-3.342-.57a4.838 4.838 0 0 1-1.06-.47c-.388-.238-.472-.615-.218-1.004a4.4 4.4 0 0 1 .76-.872c.83-.737 1.812-1.224 2.851-1.593.433-.155.886-.252 1.323-.396.196-.064.392-.157.56-.277.194-.137.126-.563-.102-.619a2.484 2.484 0 0 0-.727-.061c-1.59.098-3.177.228-4.767.313-1.91.103-3.821.137-5.723-.104a20.251 20.251 0 0 1-2.185-.424c-.442-.106-.879-.274-1.173-.71.018-.452.33-.748.62-1.05.713-.745 1.543-1.348 2.427-1.872.576-.342 1.182-.634 1.779-.941.25-.13.513-.238.768-.36.178-.086.26-.234.233-.428-.029-.203-.24-.354-.473-.327-.21.026-.418.073-.624.121-.483.114-.96.246-1.445.35-3.325.713-6.672 1.289-10.053 1.665-1.196.134-2.39.289-3.588.39-.56.047-1.132.015-1.695-.03-.342-.027-.709-.06-1.026-.4.058-.159.079-.385.2-.525.393-.452.793-.904 1.242-1.298 1.545-1.358 3.294-2.431 5.06-3.474 3.293-1.943 6.724-3.616 10.232-5.132a211.82 211.82 0 0 1 7.75-3.191c2.376-.916 4.793-1.729 7.198-2.567 2.541-.884 5.113-1.68 7.74-2.271 2.416-.544 4.85-1.013 7.285-1.463 1.88-.347 3.768-.656 5.662-.906 7.049-.928 14.106-1.179 21.153-.009 7.03 1.167 13.175 4.184 18.478 8.917 1.754 1.566 3.176 3.406 4.514 5.317.931 1.33 1.839 2.676 2.773 4.003.815 1.157 1.743 2.22 2.73 3.234 2.477 2.543 5.461 4.12 8.987 4.615 1.575.22 3.167.309 4.75.474.985.102 1.971.203 2.947.364 1.131.187 2.167.645 3.13 1.263.872.559 3.288 2.617 4.169 3.571" fill="#FDF2E0"/>
            <path d="M156.085 368.642c-.268-.911.12-1.675.884-2.29.467-.375 1.1-.46 1.73-.208 1.342.536 1.755 2.391.72 3.272-.544.463-1.203.692-1.991.535-.821-.164-1.173-.673-1.343-1.309" fill="#1E7DA7"/>
            <path d="M109.175 371.11c.152-.683.416-1.312.836-1.855.554-.717 1.261-1.057 2.145-.926.716.105 1.36.404 1.964.814.791.537 1.488 1.192 2.125 1.923 1.501 1.723 2.668 3.687 3.66 5.78.058.124.068.3.278.301.01-.366.022-.732.031-1.098.04-1.469.1-2.936.377-4.382.228-1.193.586-2.338 1.15-3.401.405-.764.92-1.424 1.656-1.851.746-.434 1.525-.554 2.339-.233a4.314 4.314 0 0 1 1.74 1.261c.919 1.094 1.32 2.416 1.465 3.838.129 1.273.025 2.547-.103 3.815-.22 2.193-.594 4.361-.94 6.534-.752 4.723-1.907 9.329-3.513 13.804-.152.423-.316.842-.482 1.26-.045.114-.116.217-.165.306-.216.008-.272-.142-.35-.262-.558-.849-1.103-1.706-1.675-2.543-1.635-2.392-3.327-4.735-5.155-6.965a77.703 77.703 0 0 1-2.238-2.901c-1.399-1.88-2.674-3.853-3.763-5.958-.708-1.368-1.273-2.797-1.473-4.364-.124-.971-.124-1.938.09-2.898" fill="#E86748"/>
            <path d="M111.65 377.671c-.718-1.354-1.291-2.769-1.495-4.32-.125-.962-.125-1.918.093-2.868.154-.676.422-1.3.848-1.835.562-.71 1.28-1.047 2.176-.918.727.105 1.38.4 1.993.807.802.531 1.51 1.18 2.155 1.903 1.523 1.706 2.708 3.65 3.713 5.72.06.123.07.299.282.3.011-.363.023-.725.032-1.087.04-1.454.101-2.907.382-4.339.231-1.18.595-2.314 1.167-3.366.412-.756.934-1.41 1.68-1.832.757-.43 1.547-.549 2.373-.23.687.264 1.275.679 1.765 1.248.933 1.082 1.34 2.39 1.487 3.798.13 1.26.025 2.521-.105 3.777-.224 2.17-.602 4.317-.954 6.468-.762 4.675-1.934 9.234-3.564 13.664-.154.42-.32.834-.489 1.248-.046.113-.117.214-.166.302-.22.009-.276-.14-.357-.26-.565-.839-1.118-1.688-1.699-2.516-1.658-2.368-3.374-4.687-5.23-6.894a77.661 77.661 0 0 1-2.27-2.873c-1.419-1.86-2.712-3.814-3.817-5.897m-9.65-12.47c.096.393.183.789.295 1.177.43 1.496.872 2.988 1.304 4.483.555 1.925 1.085 3.86 1.662 5.778.508 1.694 1.04 3.38 1.687 5.026 1.092 2.778 2.565 5.306 4.508 7.528 1.099 1.256 2.362 2.315 3.68 3.306 1.533 1.153 3.127 2.21 4.718 3.273a98.193 98.193 0 0 1 2.98 2.053 15.36 15.36 0 0 1 2.256 1.987c.055.06.122.107.217.188.087-.105.177-.187.238-.29.442-.746.884-1.493 1.317-2.246.727-1.267 1.439-2.544 2.173-3.807.78-1.338 1.509-2.7 2.124-4.129.909-2.113 1.4-4.334 1.611-6.628.213-2.302.25-4.612.222-6.922-.026-2.075-.07-4.15-.133-6.223-.056-1.818-.235-3.627-.435-5.434-.214-1.937-.548-3.852-.944-5.754-.217-1.044-.567-2.057-.97-3.042-.8-1.956-1.82-3.784-2.991-5.522-.067-.1-.146-.192-.224-.296-.047.06-.091.092-.089.12.084 1.194.188 2.387.258 3.582.15 2.583.245 5.169.225 7.759-.002.15-.003.3-.015.448-.012.14-.082.263-.22.261-.084-.001-.184-.078-.244-.15-.064-.077-.094-.188-.131-.287-.226-.604-.557-1.143-.928-1.657-1.057-1.466-2.274-2.756-3.772-3.741-.694-.458-1.38-.93-2.07-1.395a16.82 16.82 0 0 1-2.729-2.291c-1.092-1.134-2.109-2.339-3.13-3.54-.748-.88-1.53-1.73-2.302-2.589-.079-.089-.18-.156-.266-.227-.14.1-.088.209-.07.306.428 2.42.846 4.84 1.296 7.255.16.86.371 1.712.607 2.552.35 1.253.744 2.492 1.115 3.738.043.142.076.29.083.437.004.07-.048.185-.102.208a.382.382 0 0 1-.285-.001c-.087-.042-.15-.142-.215-.225-.141-.183-.276-.373-.415-.558-1.219-1.62-2.55-3.134-4.034-4.495a76.868 76.868 0 0 0-3.01-2.653c-1.327-1.096-2.53-2.312-3.58-3.696-.175-.233-.365-.453-.55-.68-.154.097-.073.21-.046.289.2.584.4 1.169.618 1.746.696 1.852 1.404 3.7 1.994 5.594.389 1.247.589 2.536.774 3.827.293 2.034.377 4.088.58 6.13.104 1.042.261 2.078.415 3.114.093.634.232 1.26.337 1.892.027.164.022.34-.007.504a.294.294 0 0 1-.44.193 1.327 1.327 0 0 1-.321-.292c-.157-.198-.294-.412-.436-.621a80.08 80.08 0 0 0-3.727-5.027c-.117-.146-.243-.285-.397-.464-.05.095-.069.114-.066.127" fill="#F6981E"/>
            <path d="m83.612 360.175-.003-.056c-.073.008-.152.007-.216.03-.024.01-.018.08-.007.12.002.01.07.011.13.02l-.071-.133.167.02m-.462 1.586c.27-.043.27-.043.232-.158l-.245.076.013.082m.089-1.19-.027-.23c-.133-.066-.144.049-.21.118l.237.112m-.525-.523c.078.02.181.024.2.057.067.118.167.073.264.065l.012-.05-.271-.028.373-.18c-.09-.023-.162-.063-.2-.049-.135.054-.26.126-.378.185m-.129 1.507-.03.02-.108-.048-.047.157-.307-.155-.016.209c.396-.014.572-.098.677-.312l-.239.024.07.105m-2.266-4.063c-.113.016-.196.01-.202-.113-.005-.091-.105-.137-.228-.146-.147-.01-.158.1-.236.15l.164.11c.022.015.042.032.067.041.121.047.213.143.367.137.037-.001.072-.01.109-.016-.017-.026-.04-.05-.047-.076-.007-.026.003-.055.006-.087m-.945-.317c.151-.109.009-.185-.056-.282l-.117.14.178.144-.225.107.022.05.234.017-.036-.176m-.962 1.802c-.114-.046-.31.001-.318-.165-.001-.034.018-.068.031-.115l-.094-.122.396-.041c-.156-.037-.362.01-.396-.19l.097-.052a11.07 11.07 0 0 1-.116-.025c-.02-.178-.027-.35.084-.51.003-.003.012-.008.011-.01-.175-.218.239-.329.14-.514l.263-.018.061.096c.144-.122-.039-.136-.112-.198l.13-.22.077.124c.191-.082.163-.195.076-.318.157-.03.306-.06.455-.086a.103.103 0 0 1 .061.012c.12.078.205.053.284-.043.02-.024.081-.028.13-.027l.222-.106-.182-.026.018-.115-.093.097a2.887 2.887 0 0 1-.034-.016c.047-.056.112-.109.134-.17.022-.061-.001-.131-.006-.22.054.02.095.041.139.05.048.01.104.02.15.01.136-.028.19.003.207.12.004.029.047.053.072.079l.047-.028-.05-.152c.166-.048.313.031.355.166a.661.661 0 0 0 .122.209c.08.098.188.184.252.287.056.088.068.193.101.294.17.008.2.051.16.286l.09-.083c.164.1.33.193.483.3.05.033.076.096.09.148.027.097.135.157.202.134.076.04.127.088.182.09.116.005.147.043.116.12-.032.08.003.119.098.159.065.027.095.101.149.149.076.07.16.135.251.21.012-.01-.01.006-.022.015.06.04.12.08.178.123.017.012.046.03.043.04-.044.142.158.182.2.294.057.16.16.31.24.464.051.102.095.206.142.308l-.29.11.018.04c.087-.014.2-.06.254-.032.08.038.117.128.173.197h-.063c-.069.05-.137.101-.193.144l.373.155c-.105.025-.159.032-.207.05-.045.015-.083.042-.124.063l.327.087-.041.1c-.038-.023-.066-.039-.133-.076.052.093.098.151.116.214.015.056-.001.116-.003.174l-.114-.1c-.014-.01-.035-.017-.073-.037l.011.139-.171-.006-.086.204c.133-.084.23-.038.284.05.048.076-.071.184-.196.218-.054.015-.092.064-.153.11l.2.024c-.035.116-.095.144-.552.251l.04.085c-.218-.01-.433-.023-.648-.024-.05 0-.099.045-.146.068-.168-.025-.344-.077-.516-.071-.234.007-.27-.151-.414-.233-.016.014-.032.037-.056.049a.13.13 0 0 1-.075.012c-.014-.002-.035-.034-.029-.04.1-.117-.082-.085-.111-.145l.025-.12c-.121-.057-.255.156-.348-.007l-.183.065c-.126-.109.058-.268-.162-.342l.02.238-.324-.103c-.022-.082.274-.178.011-.289l-.129.069.005-.1-.145.068-.328-.196.122-.112c-.036-.063-.102-.139.08-.177a11.085 11.085 0 0 0-.136-.087l-.215.102c-.048-.06-.126-.12-.13-.183-.002-.034.122-.073.199-.114l-.14-.052-.137.137c-.145-.113-.282-.216-.41-.325-.02-.017-.007-.065.006-.095.059-.13-.01-.26-.172-.313l.104-.117-.038-.023-.091.058c-.038-.026-.089-.077-.106-.07-.13.047-.126-.02-.137-.084-.007-.038-.023-.074-.04-.123l.38-.032.112-.1c-.133-.178-.194-.204-.35-.142l-.008-.216-.053.001c-.05.06-.113.12 0 .19M87.71 356.319l-.099-.093c.001-.08.097-.195-.092-.294-.064-.034-.041-.164-.059-.253l-.127.024c.194.175.09.296-.148.428.045-.21-.262-.348-.078-.555-.207-.288-.099-.674.198-.729.026-.142.05-.28.068-.372.131-.084.229-.14.313-.206.012-.01-.038-.066-.066-.112l.201.02a9.935 9.935 0 0 0-.026-.06c.104-.033.21-.067.316-.098.08-.024.152-.043.186.056.008.023.148.042.212.026.188-.046.384.01.467.144.032.051.084.095.144.162l.08-.132c.007.003.016.004.016.006.026.166.17.267.328.366.1.062.176.145.26.22.123.107.249.213.365.324.08.074.147.157.23.248l.172-.042a10.12 10.12 0 0 1-.096.077c.09.03.294-.03.194.14.277.041.393.215.33.534.035-.038.049-.056.066-.072.018-.016.036-.038.06-.043.029-.007.064 0 .117.003-.096.106-.123.188.064.23.03.007.04.07.06.106.015.027.026.068.052.076.161.049.148.155.16.256.005.033.025.07.053.097.064.057.185.103.2.164.052.234.269.403.368.615.048.1.052.214.09.318.032.085.058.193.138.24.173.1.056.264.204.375l-.139-.001-.006.025.182.042c.05.116.063.226.139.298.113.106.05.152-.084.22l.174-.021c.03.088.057.173.09.276l-.142-.032c.026.128.321.24.022.369.033.026.058.042.076.061.014.015.032.04.024.051-.01.016-.042.027-.066.031-.058.011-.118.017-.171.03-.139.005.03-.196-.197-.154l.038-.182.136-.008-.073-.122c-.034.018-.074.031-.1.054a.068.068 0 0 0-.02.064c.027.105-.043.157-.124.172l-.026.176.166-.032-.043.169c-.305.013-.548-.073-.796-.177-.092-.038-.252.018-.414.034l.02-.154a.65.65 0 0 0-.379-.113c-.075 0-.158-.055-.222-.097-.088-.06-.162-.13-.243-.196l.035-.025.168.1.074-.184-.535-.003c.038-.14.095-.234.246-.283.022-.007.018-.06.022-.073l-.543.103c-.122-.135-.255-.29-.399-.44-.04-.04-.111-.063-.169-.092l-.358-.184c.065-.114.143-.182.316-.124.051-.031-.052-.177.192-.087l-.149-.162c-.135.237-.188-.017-.303-.004l-.008.141c-.167-.14-.365-.17-.532-.28-.19-.127-.206-.345-.452-.421-.022-.007-.043-.063-.03-.076.02-.02.07-.023.07-.023.163-.156.168-.322.123-.5l-.118.01.075.115-.034.017a26.14 26.14 0 0 0-.175-.124l-.1.139.004-.004-.212-.05.076-.143.286-.074a.47.47 0 0 0-.012-.024l-.665-.105a.748.748 0 0 0 .008-.035l.361-.08.062.102.129-.107.037.116c.121-.017.265-.01.212-.139-.08-.015-.16-.016-.217-.044-.17-.084-.167-.088-.229.07M92.575 338.89l-.067-.03-.38.336.217.008.23-.314m2.293-.682.071-.16a32.594 32.594 0 0 0-.148-.06c-.091.016-.019.143-.179.079l-.092.108c.05.015.099.04.152.044.068.005.14-.007.196-.01m-.793 5.29c-.03-.064-.06-.123-.087-.183l-.241.058c.042.08.056.207.122.22a.452.452 0 0 0 .453-.155l-.247.06m.042-4.011-.185.099-.022-.133-.155.17.034.24c.135-.123.504-.126.328-.376m-2.955 2.853.282-.243-.222-.028.07-.012c-.006-.04.009-.088-.02-.12-.08-.097-.044-.165.119-.222l-.265-.191-.088.168c-.068-.247-.068-.247.2-.332-.349-.055-.136-.18-.106-.283.19-.047.06.23.288.118.059-.028.035-.126.05-.203l-.373.008c.038-.069.077-.12.095-.173.026-.077.055-.156.05-.233-.012-.156.125-.249.305-.329l.15-.068-.258-.006c.021-.165.025-.329.07-.488.014-.048.142-.083.225-.128-.108-.096-.154-.18.096-.237.062-.014.074-.118.063-.187l.18-.132a6.972 6.972 0 0 1-.078-.048l-.374.236-.068-.034c.153-.115.088-.293.314-.393.018-.008-.053-.097-.098-.175l.26-.092c-.13-.182.012-.333.164-.495a8.507 8.507 0 0 1-.11-.029c.092-.102.152-.227.281-.3a.74.74 0 0 0 .25-.23c.033-.046.028-.103.05-.186l.336.07.1-.263c.074.002.149.018.176.002.315-.188.65.005.972-.02.05-.004.13.046.159.083.016.02-.046.066-.08.108.071.173.315.269.527.39.268.153.288.358.136.57l.144-.011.26.276-.209-.037v.15c.18-.056.294-.053.264.095-.006.03.05.066.074.1.093.13.19.26.271.393.019.03-.02.073-.036.12l.145.08-.211.155.045.025.14-.09c.173.223-.153.325-.264.473l.387.16c-.097.03-.15.045-.21.062.027.069.073.14.075.21 0 .042-.06.089-.107.128-.03.025-.092.033-.125.057-.046.032-.079.073-.117.11.042.016.091.05.124.044.063-.01.116-.044.18-.07.106.06.119.194.032.285-.068.07-.223.14-.082.262l-.229-.057-.183.107.007.04.425-.006c-.007.134.01.246-.025.352-.04.127-.116.252-.193.373-.043.066-.13.12-.176.186-.019.025.021.067.039.112-.026.026-.09.064-.105.11-.103.31.015.248-.457.316l.346.048-.083.121-.07-.013.05.125c-.26.222-.485.438-.751.633-.145.106-.245.256-.511.285-.055.006-.097.064-.116.077-.209-.04-.404-.073-.596-.115-.081-.019-.152-.058-.229-.086-.03-.01-.083-.03-.091-.024-.105.069-.208.052-.268-.017-.04-.047-.024-.113-.033-.173l-.374.06c-.23-.034-.492-.073-.382-.319-.111.03-.167.044-.23.06.02-.173.046-.33.392-.377-.079-.074-.136-.13-.194-.183l-.065.028c.024.028.076.06.067.083-.012.036-.064.066-.1.099-.027-.024-.07-.047-.078-.074-.037-.118-.088-.235.17-.294.067-.015.096-.098.125-.163-.197.04-.38.14-.581-.027l.449-.059-.556-.083-.002.005M96.071 354.52c.014-.158-.033-.182-.23-.16l.23.16zm-2.146-1.945c.067.19.085.203.197.16l-.093-.168c-.02 0-.061.005-.104.008zm.819.256-.19.01-.088.006c.018.025.029.065.055.073.073.021.152.03.238.044-.004.009.006-.004.005-.015-.005-.04-.014-.079-.02-.118zm.726-.541.36.038.08-.184-.44.146zm-2.149-2.317-.161.032a.932.932 0 0 0 .346-.041c.013-.004-.013-.09-.018-.123l-.318.043c-.205.028-.205.028-.182.104.044-.07.263-.083.333-.015zm.367-.74c-.016-.105-.12-.12-.234-.087-.178.051-.249.155-.172.266l.126-.141.13.07.15-.108zm.195 4.151.155-.003c.025.146.025.146.23.142l-.017-.275c-.119.032-.285-.034-.368.136zm2.769 1.494c-.022.005-.063.01-.064.017-.011.137-.129.105-.235.092l-.073-.005.208-.14-.032-.038-.248.101c-.017-.006-.07-.04-.126-.044-.134-.012-.135-.006-.14-.113a22.45 22.45 0 0 0-.141-.011l-.014.074-.3.06c.208-.105.052-.219.027-.327a4.52 4.52 0 0 0-.079.062l-.203-.235.029-.041.271.037c-.045-.047-.006-.173-.197-.097-.066.026-.186-.033-.317-.06a7.774 7.774 0 0 0-.108.032c-.003-.038.002-.08-.013-.114-.015-.032-.053-.057-.086-.091l.126-.093c-.152.022-.344-.006-.354.182 0 .018-.124.042-.191.044a.4.4 0 0 1-.17-.035c-.064-.029-.078-.065.018-.078.02-.003.037-.01.08-.023l-.147-.08c.035-.011.063-.022.092-.032l-.077-.143.162-.098c-.17.055-.165.056-.207.192-.013.044-.062.081-.098.125l-.159-.497a.166.166 0 0 1-.09-.222c.01-.023-.02-.057-.044-.114l.163-.131-.34-.206.203-.04-.178-.31-.183.002.069-.179-.38.075-.168-.235c-.008-.011-.032-.028-.028-.031.141-.156.038-.162-.134-.144-.02.002-.083-.084-.073-.12.017-.056.079-.105.131-.17l-.103-.124-.115.062-.114-.1c.059-.097.157-.188.157-.277 0-.08-.11-.159-.173-.238l-.061-.002.193-.13-.077-.105a49.03 49.03 0 0 0-.144.02l.032-.104.051-.183c-.12-.03-.228-.059-.338-.083-.092-.02-.155-.048-.14-.137.014-.075.002-.152.018-.226.007-.035.053-.064.083-.096.016.035.035.07.05.106.005.012.003.025.004.038l.048.013c.02-.042.059-.083.06-.126.001-.147-.01-.294-.016-.442 0-.012-.011-.032-.004-.038l.333-.237c.078.068.142.157.18.15.186-.033.06-.15.07-.238l.153-.024.002-.027-.305-.037c.242-.17.924-.093 1.342.148l-.143-.009-.01.034.229.046-.056.095.31.183.002-.11c.018.006.033.006.037.012.155.207.312.414.461.624.032.045.036.103.055.167.247.038.286.231.401.379-.284.083-.366.04-.355-.169a71.447 71.447 0 0 0-.203-.108c-.024.079.004.134.104.203.09.062.114.184.165.275l.159.013c-.02.099.084.226-.127.28l.02.04c.107-.003.214-.016.318-.004.1.01.197.047.291.072-.083.097-.202.176-.19.24.012.067.15.12.238.183l.118-.064c.027.04.055.075.073.112.026.054.046.11.039.178a38.245 38.245 0 0 1-.157-.192l.025.35.222-.03.177.198c-.074.043-.146.075-.199.12-.017.015.016.065.026.1l.1-.05a4.34 4.34 0 0 1 .11-.05l.124.387c.065.104.11.17.149.239.055.098.108.196.157.297.019.038.05.1.028.119-.084.073-.08.15-.073.24.004.042-.052.087-.08.131-.019.032-.034.064-.063.12l.25-.092c-.012-.016-.038-.034-.041-.055a.13.13 0 0 1 .016-.085c.008-.013.066-.022.07-.017a.2.2 0 0 1 .038.074l.165.519-.26-.014c-.007.062-.016.125-.024.184l-.202.084a1.2 1.2 0 0 0 .017.04c.16-.073.32-.146.468.019l-.1-.015c-.034.134-.16.202-.303.19l.052.16.004-.004zM87.603 347.325a68.48 68.48 0 0 0-.246.022c-.126.166.1.11.194.138l.052-.16m-2.73-1.83.084.003c-.004-.037-.02-.105-.01-.108.264-.062.012-.149.044-.22a3.362 3.362 0 0 1-.073-.005l-.046.33m.167 3.798.24.15.05-.016c-.03-.087-.058-.175-.097-.293l-.193.159m-.71-4.124c.08-.09.153-.17.225-.248l-.075-.047-.295.215.145.08m1.372 3.904.438-.03-.239-.187-.199.217m.207-.455.233.039.127-.192c-.203-.058-.242.067-.36.153m.831.733a54.615 54.615 0 0 1-.004-.343l-.23.192.192.044-.238.168.037.031.243-.092m-1.443-4.11.43.113c-.03-.053-.12-.1-.113-.11.084-.122-.019-.067-.1-.1-.179-.076-.118.1-.217.097m.043-.624c.115.079.115.079.48-.165-.08-.04-.16-.081-.278-.143.068.16.019.266-.202.308m2.254 3.534.064-.042c-.073-.083-.147-.165-.218-.25a.608.608 0 0 1-.078-.116c-.01-.019.008-.048-.004-.064-.009-.011-.064-.017-.071-.01-.02.02-.048.058-.036.074.051.073.115.142.185.224l-.048.156.206.028m-1.318-.41.205-.145-.056-.236c-.246.128-.265.187-.15.382m1.02 1.692.035-.056c-.225.01-.338-.072-.38-.212-.044.016-.126.036-.124.048.014.08.045.158.067.226l.401-.006m-1.718-2.56c-.11.053-.197.097-.27.133l-.179-.124c.043.13.08.217.098.306.016.07.01.143.014.214l.199-.108c-.047-.052-.123-.106-.11-.128.057-.09.14-.172.248-.294m-.935-.463c-.224-.04-.423-.07-.44-.286l-.195.194-.05-.026a.675.675 0 0 0-.021.025l.539.198.167-.105m1.135-.274-.342.064.117.152-.046.026-.163-.12c-.058.089-.024.173.066.18.137.008.276.01.467.016-.05-.074-.092-.134-.139-.2.223.049.223.049.263-.058-.112.02-.242.062-.223-.06m1.157 2.646c.073.064.134.158.189.156a.499.499 0 0 0 .266-.11c.088-.07.145-.163.222-.254l-.173-.099c-.02.044-.03.058-.033.074-.007.036-.012.073-.017.11-.038-.019-.073-.044-.113-.051a.326.326 0 0 0-.153 0c-.115.044-.222.1-.332.15a.37.37 0 0 0 .005.028l.14-.004m-1.133-3.179c-.051-.052-.082-.104.06-.152.071-.024.12-.084.18-.128l-.046-.062c-.173.115-.35.205-.592.073.19.152.097.3.031.445l.06.013.184-.154c.024.157-.113.218-.225.284.07.13.171.167.285.07l.355-.458-.292.07m-1.323 3.967c-.03-.11-.02-.173.173-.136.073.014.169-.042.264-.07l-.062-.145-.181.104-.27-.16c.042-.045.042-.045.418.007l-.014-.071.165-.008c-.01-.05-.018-.102-.027-.153l-.056.007.009.057-.526.038.146-.494.088.002c.01.032.024.064.03.096.006.03.003.059.004.088l.065-.004-.058-.303c-.233.12-.415.044-.587-.064.095-.07.189-.143.307-.232-.042-.007-.108-.029-.124-.017-.083.069-.145.13-.255.014-.022-.023-.148.01-.23.052l.185.04a37.69 37.69 0 0 1-.19.103c-.04-.049-.091-.094-.118-.147-.011-.022.04-.058.043-.089.005-.07-.004-.138-.008-.236l.174-.033.006.25.228-.043-.154-.162.117-.124-.417.052-.156-.216-.156.127.217.126-.171.332a33.11 33.11 0 0 1-.201-.24c.022-.025.1-.077.086-.102-.023-.044-.1-.072-.156-.107l.026-.217a.64.64 0 0 0 .556-.145c.099-.087.074-.156-.043-.21a2.05 2.05 0 0 1-.023.067l-.176-.12.27-.025c-.01-.047-.017-.09-.027-.145-.158.003-.246.04-.28.194-.025.117-.166.219-.256.328l-.07-.028.085-.218-.024.004c-.002-.087-.032-.183.008-.256.025-.044.16-.07.246-.073.17-.006.341.01.524.019l.107-.196-.222.091-.786-.505.207-.154a.775.775 0 0 1 .037.024l.185-.296-.069-.028-.143.17a109.76 109.76 0 0 0-.092-.145l.231-.098-.044-.072.05-.029.18.187.363-.069c-.142-.072-.1-.12.007-.174l-.281-.014c-.004-.076-.033-.14.139-.129.104.007.215-.049.341-.082.002.042.027.112.004.17-.024.057-.096.103-.183.19l.34-.05.076.178-.414-.069-.038.048.333.207.272-.102-.14-.424.124-.023c-.022-.024-.037-.052-.065-.069-.175-.105-.309-.218-.265-.41.012-.05-.057-.11-.1-.181l.122.01.229-.259c.083-.006.163-.02.242-.014.036.002.072.04.1.067.064.06.121.123.181.184l.035-.03c-.02-.076-.062-.154-.047-.227.006-.028.142-.04.242-.064-.055-.022-.101-.038-.145-.057-.045-.02-.088-.044-.134-.066-.048.028-.091.071-.146.083-.167.035-.238-.012-.222-.144.008-.067.027-.134.037-.178l.275-.102.478.134-.011.05.156-.096.098.111c.043-.036.12-.075.114-.1-.049-.18.069-.136.205-.104.17.038.347.054.512.1.038.01.04.098.058.151-.205.152-.142-.118-.305-.085-.158.095.1.17.046.273l.343-.104-.09-.086c.032.009.068.015.097.028.071.032.14.067.209.1l-.182.118.13.08.04-.139.145.036c.006.064.022.13.014.192-.016.114.027.214.17.241.288.055.27.247.344.399.013.027.007.072.03.082.2.09.238.201.053.351l.256.074-.044.014c.048.1.104.199.144.3.025.063.024.132.039.197.02.092.024.19.07.274.097.18.053.265-.186.333-.054.015-.088.071-.17.141.153-.013.235-.02.31-.025l-.026-.097.061-.007c.09.105.09.212.001.322-.035-.012-.086-.04-.102-.03-.05.028-.088.07-.134.11l.043.179-.284.189c.037.02.079.064.114.061.045-.004.106-.039.123-.07.03-.057.03-.122.041-.183l.227-.242c.014.109.041.219.036.327-.002.058-.062.114-.112.198l-.114-.132c-.062.16.373.224.11.391l-.148-.082c-.012.017-.04.048-.035.051.042.028.087.065.138.073.178.025.21.084.076.189l.04-.148-.27.16.25.1c-.006.053-.011.115-.019.204l-.132-.092c-.198.126.015.147.085.195l-.088.38c-.038.01-.109.029-.18.05-.057.017-.114.036-.191.061.222.101.226.158.084.283-.104.091-.183.198-.274.3-.185-.074-.45.03-.58-.184l-.109.37-.216-.025-.444-.1.315-.251-.046-.04c-.093.05-.232-.005-.307.122-.031.055-.202.063-.312.093l-.067-.123-.194.101c-.02-.106-.04-.205-.065-.342l-.237.283c-.02-.032-.041-.056-.053-.082-.036-.087-.037-.05-.16-.055-.08-.002-.171-.001-.258-.006a.022.022 0 0 0-.007-.004M72.739 344.626c.086-.034.219-.057.29-.125.058-.055.041-.164.058-.249a11.538 11.538 0 0 1-.064-.01l-.16.085.005-.147-.215.162.086.284zm2.717-2.547c-.122.097-.238.18-.4.06-.02-.014-.147.072-.224.11l-.001.07.812.158-.09.118.408.296-.13.148.309.077-.051.026c.057.128.128.254.165.386.035.122.02.252.05.375.014.054.075.113.134.145.168.088.227.22.15.379-.021.045-.03.093-.047.146.309.006.34.043.283.269-.012.046.027.101.042.153l.064-.004-.157.198.227.03c-.1.225-.192.435-.281.64-.163-.13-.347-.035-.546.052l-.093-.152-.092.241-.451-.384.044-.039c-.047.009-.113.037-.138.022-.301-.196-.668-.07-.986-.15-.147-.037-.279-.14-.393-.235-.151-.126-.392-.157-.537-.043-.025.02-.066.058-.059.07.112.172-.046.219-.239.3l.114-.3c-.132-.006-.246.016-.293-.02-.07-.055-.093-.152-.108-.247-.115-.08-.38.035-.406-.203-.007-.057.002-.116.005-.202-.174-.08-.162-.201-.008-.29-.115-.075-.232-.125-.296-.204-.02-.025.102-.128.175-.216-.06-.067-.106-.166.085-.21-.08-.105-.076-.097-.21-.048-.046.017-.118-.015-.117-.042-.018-.11.009-.247-.061-.324-.148-.165-.15-.384.026-.532.053-.045.09-.156.06-.205-.114-.19.016-.191.135-.18l.279-.273c-.06-.136-.043-.279.258-.27l-.022-.2.183.1a.605.605 0 0 1 .033-.024l-.176-.19c.094-.076.109-.154-.077-.246.078-.024.155-.048.23-.074.015-.005.023-.022.034-.033.043-.038.11-.114.124-.108.153.07.338-.02.497.105.122.095.34.105.517.15.019.005.045 0 .064-.008.086-.037.094-.244.275-.076.069.063.205.077.268.143.086.09.132.207.213.341a97.171 97.171 0 0 0-.245-.035l.071.323c.115-.086.205-.151.277-.204.051.08.1.16.153.236.012.016.05.032.07.028.14-.024.169.044.19.136.017.07.061.136.101.221l-.378-.03.245-.194-.058-.057zM78 339.53l.215-.162.2.097c.052-.097.105-.194.159-.29l.256.116c.01-.019.021-.036.033-.054l-.418-.358.196-.18c-.15.008-.236.02-.173-.137.056-.139.054-.298.082-.447.009-.049.032-.095.021-.14l.03-.256.056.002.109.403.027.005c.03-.182.06-.365.088-.548.005-.031-.004-.076.015-.093.112-.098.007-.117-.125-.179l.23-.073.03.048.033-.114c.08.015.16.03.277.05l-.096-.211c.258-.048.451.122.692.116.079-.134.158-.141.48-.01-.014.043-.025.089-.044.131-.018.041-.045.08-.064.113l-.324-.136c.088.14.147.252.223.351.081.104.163.219.274.288.08.05.213.025.316.053.038.01.072.074.082.118.017.071-.011.158.023.217.129.222.368.393.348.68.248.144.097.405.204.588.025.043.092.064.143.096.016.133-.055.294.133.386.023.011.024.127-.001.141-.054.033-.131.03-.22.045.051.024.092.042.145.068l-.119.141.324-.074c-.006-.004.004 0 .003.002-.061.291.144.545.125.839-.012.178.068.358-.074.523-.085.1-.137.25-.247.302-.086.041-.238-.026-.357-.055-.043-.01-.076-.053-.139-.1l.09-.057-.042-.034c-.034.017-.081.026-.1.053-.166.243-.41.195-.649.145-.092-.019-.176-.073-.267-.099-.046-.013-.109.016-.153-.001-.136-.053-.156-.151-.08-.296-.158.065-.288.131-.428.17-.056.015-.13-.032-.197-.052l.02-.065.12.022c.025-.112-.03-.152-.138-.13-.14.03-.173-.018-.17-.143 0-.07-.068-.14-.096-.212-.025-.069-.077-.16-.048-.21.077-.135-.034-.198-.109-.233-.186-.089-.195-.088-.028-.278l-.405.051c.006-.06.001-.1.015-.135.057-.136-.027-.197-.145-.239-.157-.055-.153-.052-.116-.194.013-.05-.006-.108-.01-.164l-.192-.025-.04-.183-.003.007zM78.682 347.875c-.11-.03-.163-.042-.211-.061-.036-.014-.062-.038-.091-.059 0 .032-.01.065.003.095.024.062.059.122.101.207l.198-.182m.44 3.425-.059-.225c-.007-.027-.01-.067-.033-.075a.182.182 0 0 0-.118.013c-.053.036-.09.081-.156.142.182.006.18.224.367.145m1.032-.087c.14.02.235.018.249.039.037.059.04.128.059.201l.227-.013-.27-.43-.265.203m-.193-.213c.22.013.3-.019.29-.108-.015-.164-.04-.327-.064-.497-.24.094-.265.155-.141.291.14.154.126.244-.085.314m1.055-.292-.157-.206-.592.1c.341.114.341.114.112.248l.284.104c.03-.065.083-.121.072-.17-.011-.045-.09-.084-.138-.125l.045-.042.374.091m-.148.675c.218.044.382.108.306.297-.01.024.068.064.113.104-.006.005-.026.021-.039.04-.15.203-.16.205-.508.133a.28.28 0 0 0-.145.005c-.129.057-.262.032-.386.011-.133-.022-.258-.065-.386-.099l.026-.037-.227.058-.01-.132c-.117.002-.251-.022-.325.012-.234.11-.308-.008-.388-.109-.16-.204-.307-.413-.436-.587l.346-.212-.14-.212-.158.26-.053.003-.116-.314.376-.051-.013-.233.077-.04-.403-.12-.037.055.21.063-.24.055c-.104-.089-.165-.165.084-.216.08-.016.133-.092.209-.148l-.305-.178-.14.177c-.169-.15 0-.26.01-.367.132-.054.275.111.403-.027l-.187-.06c.024-.05.09-.121.063-.146-.118-.112-.11-.2.047-.287.018-.01.011-.04.01-.04l-.384-.013c.223-.175.237-.335.062-.53-.073-.082.012-.227.026-.357l-.211.036.046-.268c.084.022.151.04.233.06l-.025-.332-.236.065.147-.317.4.003-.317.194.023.026c.137-.037.347-.051.39-.116.054-.081.167-.226-.081-.304l.22-.188c.122.164.215.302.33.432.03.035.12.05.188.062.012.002.047-.055.072-.085.021-.024.045-.047.105-.111l-.006.167c.06-.023.14-.04.187-.075.085-.063.115-.094.188.016.102.153.248.293.382.436.02.02.08.025.143.043.13.215.281.461.437.715l.425.025-.016.184.357-.106.148.402-.232-.072-.041.232.132-.114c.14.111.302.21.237.382-.009.023.05.058.08.086.035.031.072.06.074.107a13.924 13.924 0 0 1-.135-.083l-.268.215.16-.017.038.03c-.08.044-.152.097-.24.128-.096.032-.212.037-.31.067-.026.007-.023.06-.044.125l.285-.094-.037.14.433-.215c.232.157.153.274-.275.385l.253.056c-.074.053-.116.108-.179.122-.036.008-.104-.05-.183-.093-.048.146-.106.29-.136.435-.008.038.072.084.141.157l-.393.009-.012.069-.184-.069-.035.291c-.076.227-.204.272-.41.147-.172.259-.172.259-.02.309.023-.038.046-.075.07-.111l.206.079.167-.054-.088-.118.044-.015.261.162.037-.028-.267-.372M74.903 351.545c-.172.185-.172.185-.03.249l.03-.249m.187.64-.242-.22-.134.04.125.256.251-.076m.298.155.23.242.215-.122.167.196c-.186.015-.344 0-.46.05-.088.037-.12.158-.178.241l.056.05c.099-.016.197-.03.296-.044l-.012-.047.218.081-.01.143-.283-.035c.046.24-.179.08-.251.13-.166.118-.322.03-.483.017-.064-.006-.127-.02-.198-.002.12.009.154.195.312.1.023.026.074.061.065.076-.096.17.045.158.21.139l-.144.445-.637-.137.027-.133c-.164.284-.397-.033-.577.058l-.047-.191c-.096.217-.249.192-.41.125l.168-.334-.517.206.073-.116c-.165-.043-.182-.098-.052-.177.051-.032.11-.056.173-.088-.027-.046-.05-.086-.073-.13l.177-.028c-.13-.077-.218-.149-.323-.185-.109-.039-.302.12-.367.289l-.35-.305.126-.05-.088-.106c-.02-.025-.04-.049-.062-.073.038-.01.074-.025.112-.03.082-.013.164-.021.235-.03l-.448-.263c-.018.022-.06.07-.134.161-.023-.225-.055-.395.16-.451l.07-.44-.255-.001-.049-.294.23.051c-.365-.315-.21-.642-.125-.965-.169-.037-.224-.226-.128-.436.063.046.12.116.192.13.076.014.167-.027.241-.076-.063-.01-.137-.006-.188-.032-.06-.031-.104-.084-.146-.134-.003-.005.065-.045.095-.074.026-.025.07-.061.062-.083-.08-.236.147-.195.341-.23l-.184-.124.072-.201.05.006c0 .054.003.107.004.144.135-.06.278-.126.439-.2-.056-.01-.097-.016-.171-.03.219-.078.24.065.333.15l.22-.173c.098.064.22.157.358.227.052.026.144.002.224 0-.025.049.26.128.054.212.022.082.017.179.072.24.067.075.183.12.265.17l.118-.08c-.005.044-.01.088-.014.139l.685.819c-.164.227-.208.27-.336.337-.034-.16-.142-.11-.216-.035-.068.068-.1.16-.123.2l.344-.172c.197.217.307.224.503.016l.135.234-.19.19a4.027 4.027 0 0 0-.068-.053c-.08.054-.052.071.33.208a10.85 10.85 0 0 0-.083-.096c.18.034.243.121.226.33l-.16-.013-.19.358.047.11M84.218 338.361c-.443-.35-.147-1.265.32-1.453l-.313-.045c-.015-.182.189-.377.502-.488l-.345-.014.21-.344.421.105c.03-.037.047-.052.044-.055-.165-.104-.139-.276-.32-.384-.062-.036-.028-.229-.002-.232.319-.043.291-.179.22-.343-.095.016-.347-.08-.163.127.023.025-.023.076-.036.115h-.073l-.047-.326.293-.024.052-.249-.224-.144.039-.036.207.017c-.196-.186.067-.322.071-.47.246-.04.486-.083.728-.117.041-.006.126.017.137.039.044.086.238.137.142.26-.005.008.101.054.155.083l.092-.05c.102.172.206.342.304.514.016.028.026.078.003.093-.307.19.053.178.163.242l-.078.18-.203-.004c.023.045.043.09.07.133l.323.497c-.2.09-.056.222-.105.335.424.058 0 .247.158.35l-.3.06.101.267.143-.042c.204.14-.015.264-.005.436l-.166-.177c-.157.144-.128.257.04.35-.068.067-.128.117-.17.173-.024.03-.041.092-.02.103.382.197-.035.365-.048.546-.004.055-.125.121-.231.017-.022-.02-.146-.028-.158-.015-.112.128-.333.23-.247.412.013.025.03.058.015.079-.026.04-.074.071-.112.106l-.148-.149c-.01.043 0 .084-.027.103-.04.028-.14.065-.153.057-.09-.061-.27-.059-.3-.081-.193-.14-.339-.011-.509.016l.143-.397c-.12.04-.235.086-.36.112-.083.017-.18.005-.273.005.018-.042.034-.085.054-.127.017-.035.037-.069.05-.094l.231.073c.015-.023.048-.065.044-.067-.1-.04-.202-.077-.304-.114l-.035.036" fill="#1E7DA7"/>
            <path d="m80.844 349-.172-.173c-.006.024-.022.072-.038.125-.032-.005-.063-.004-.081-.014-.062-.035-.115-.08-.18-.11-.255-.122-.343-.31-.288-.528.02-.077-.052-.166-.085-.255.163-.08.434-.055.522.08.174.268.321.544.478.816l-.156.059" fill="#1E7DA7"/>
            <path d="m80.951 349-.456-.285.069-.277-.559-.152c-.03-.162.08-.34.225-.27.148.071.326.058.434.28.104.212.223.41.336.614l-.049.09" fill="#1E7DA7"/>
            <path d="M80.838 348.032c-.057.148-.18.306-.153.441.032.172.186.325.315.527a40.977 40.977 0 0 0-.35-.018l.092-.22c-.145.012-.394.29-.297-.218l-.339.322a27.672 27.672 0 0 1-.106-.051l.235-.418c.06.016.142.065.195.046a.388.388 0 0 0 .184-.162c.048-.085.06-.187.088-.281l.136.032M75.217 352.72a13.463 13.463 0 0 0-.065-.184l.554-.407c.044.11.141.248.142.386.001.125-.1.354-.16.355-.156.004-.314-.093-.471-.15" fill="#1E7DA7"/>
            <path d="m80.23 348.106.62.625c-.174.186-.32.218-.514.064-.237-.188-.127-.429-.187-.642.027-.016.054-.03.081-.047M91.47 341l.208 1c-.238-.013-.397-.044-.347-.329.033-.18-.006-.37.006-.554.003-.042.086-.078.133-.117zM75.08 353.709l.227-.483.121.358.492-.123c-.067.139-.11.31-.158.313-.217.006-.434-.036-.683-.065M78.7 338.772l-.336.084-.026-.055.186-.177a5.34 5.34 0 0 0-.038-.062l-.43.148.496-.444-.023-.122.415.255-.066.101-.264-.183.08.466.005-.011M94.792 353.783l-.401-.11c-.054-.13-.118-.288-.184-.453.457-.037.435.347.585.563M91.381 342.228l.376.07-.36.474a30.468 30.468 0 0 1-.155-.053l.14-.491M72.71 352.562c.073.342-.178.196-.351.241l-.082-.606c.303-.015.006.546.434.365M86.412 338.548l.167.153-.153.113-.195-.249.533-.38c.018.341.018.341-.352.363M84.423 349.298a.029.029 0 0 1 .01.006l.316.305-.374.139-.124-.496.172.046M84.791 348.715l-.148.093-.435-.287.03-.329c.11.126.181.219.264.298.084.078.18.141.29.225M87.524 357.204l.184.56a2.982 2.982 0 0 0-.08.04 125.9 125.9 0 0 0-.337-.428l.24-.18-.007.008M91.544 340.834l-.183-.272.025-.397c.04.004.105.012.125.013.047.154.087.279.124.403l.003-.012c-.03.089-.063.176-.095.265h.001zM96.328 354.401c.026-.014.05-.04.077-.04.087-.003.174 0 .259.015.008.002.018.14-.007.153-.091.051-.196.076-.296.111-.01-.083-.018-.166-.026-.249l-.007.01M92.306 349.25l.388.302-.329.198-.059-.5M85.775 344.629c-.083-.297-.565.115-.563-.258.12.009.241.041.354.022.194-.032.25.043.21.236M84.575 346.369l.178.262-.507-.056c0-.032 0-.063.002-.094l.326-.112" fill="#1E7DA7"/>
            <path d="M101 421.62c.082.037.132.07.185.083.129.032.259.062.39.082.868.142 1.736.286 2.606.416.273.041.553.043.83.063.036.002.072.002.108.005.152.014.347-.025.408.157.067.205-.13.284-.261.378-.273.195-.55.385-.832.568-.402.26-.812.511-1.216.77-.17.11-.342.22-.51.387.072.036.117.07.167.082.094.021.19.034.287.041 1.278.1 2.555.12 3.827-.088a4.6 4.6 0 0 1 .467-.05.902.902 0 0 1 .251.02c.16.036.252.16.216.316a1.014 1.014 0 0 1-.138.323c-.269.407-.545.81-.822 1.211-.27.392-.544.781-.814 1.173-.053.078-.096.162-.136.23.057.115.145.117.228.117.375-.004.75.004 1.122-.021.677-.046 1.337-.19 1.988-.376.138-.04.28-.075.424-.086.242-.02.37.118.322.348-.03.137-.079.274-.14.402-.407.858-.82 1.713-1.325 2.522-.057.091-.105.187-.152.282-.009.017.002.043.007.09.062.008.13.026.198.025.33-.008.648-.075.953-.195.246-.097.487-.207.73-.313.165-.072.327-.153.494-.22a2.73 2.73 0 0 1 .412-.133c.336-.075.478.064.415.404a1.787 1.787 0 0 1-.074.274c-.102.291-.206.58-.312.87a13.793 13.793 0 0 0-.562 2.017c-.081.393-.172.784-.264 1.206.121-.045.188-.119.256-.192.46-.5.927-.997 1.38-1.503.406-.453.808-.91 1.195-1.379.77-.933 1.334-1.968 1.576-3.156.21-1.032.123-2.05-.158-3.056a3.253 3.253 0 0 0-.26-.622 12.81 12.81 0 0 0-1.223-1.883c-.358-.464-.79-.862-1.234-1.243a8.365 8.365 0 0 0-1.154-.856c-.663-.394-1.346-.739-2.104-.93a6.18 6.18 0 0 0-2.155-.145c-1.694.171-3.327.571-4.887 1.247-.177.076-.354.152-.53.23-.052.024-.1.06-.179.107" fill="#E86748"/>
            <path d="m113 422.484.342.516c.073-.039.14-.066.197-.106.73-.508 1.52-.914 2.348-1.265a38.846 38.846 0 0 1 4.615-1.606 28.582 28.582 0 0 0 5.077-1.96c1.375-.694 2.622-1.56 3.808-2.51a23.95 23.95 0 0 0 3.48-3.423 16.4 16.4 0 0 0 2.053-3.111c.26-.52.523-1.04.773-1.566.403-.845.693-1.729.93-2.626.327-1.234.633-2.472.955-3.707a18.05 18.05 0 0 1 1.232-3.326c.164-.337.365-.659.562-.981.462-.76.975-1.49 1.506-2.21.747-1.015 1.494-2.032 2.11-3.126.334-.592.623-1.208.929-1.814.037-.075.053-.16.083-.252-.216-.193-.49-.285-.72-.411-.126.042-.143.13-.181.202-.338.646-.662 1.297-1.014 1.936a29.133 29.133 0 0 1-.949 1.603c-.347.544-.726 1.071-1.092 1.604-.615.896-1.291 1.755-1.853 2.684a16.395 16.395 0 0 0-1.015 2.015c-.58 1.348-1 2.744-1.355 4.159a25.995 25.995 0 0 1-1.154 3.54c-.206.503-.445.996-.696 1.48-.24.463-.504.916-.78 1.36-.45.727-.966 1.412-1.528 2.065a28.19 28.19 0 0 1-4.134 3.924c-1.598 1.234-3.351 2.217-5.309 2.854-.937.306-1.887.578-2.828.875-.687.218-1.376.433-2.05.684a15.703 15.703 0 0 0-4.27 2.41c-.018.015-.03.037-.072.089" fill="#1E7DA7"/>
            <path d="M129 418.384c-.838-.524-1.58-1.21-2.34-1.842-1.043-.867-2.155-1.37-3.346-1.49-1.656-.168-3.28.058-4.851.905-.876.473-1.715 1.18-2.463 2.246.06.013.105.042.144.03 1.829-.605 3.66-.531 5.495-.056.622.161 1.246.315 1.87.46 1.15.268 2.305.419 3.471.344a5.124 5.124 0 0 0 1.824-.47c.068-.032.131-.084.196-.127" fill="#1E7DA7"/>
            <path d="M126.05 425c.039-.025.08-.047.115-.077 1.148-.966 2.163-2.063 2.965-3.365.28-.454.529-.929.777-1.404.167-.319.317-.65.46-.983a19.068 19.068 0 0 0 1.28-4.399c.134-.806.228-1.62.34-2.43a.944.944 0 0 0-.005-.342c-.07.166-.125.276-.162.392-.177.563-.418 1.097-.666 1.63-.406.873-.878 1.706-1.355 2.536-.59 1.024-1.196 2.037-1.705 3.109a30.737 30.737 0 0 0-1.357 3.294c-.197.581-.423 1.152-.636 1.727l-.101.279c.017.01.034.022.05.033M140.314 406c.188-.075.217-.211.289-.322.568-.884.958-1.821 1.292-2.779.53-1.517.878-3.06 1.019-4.633.177-1.973.086-3.94-.319-5.893-.023-.114-.062-.225-.095-.337-.003-.01-.024-.016-.058-.036-.086.095-.075.21-.108.314-.033.1-.066.2-.095.3-.418 1.455-.822 2.913-1.256 4.365-.759 2.545-1.146 5.118-.918 7.74.031.359.101.715.16 1.073.011.07.056.134.089.208M129 405.979c.07.054.132-.01.195-.036 1.521-.621 2.928-1.648 4.241-3.008.467-.483.936-.962 1.353-1.554.078-.109.175-.197.211-.375-.925-.076-2.414.584-3.607 1.632-.927.815-2.095 2.438-2.393 3.34" fill="#1E7DA7"/>
            <path d="M49.296 379c.023.087.03.145.053.195.056.118.116.235.183.347.44.75.879 1.5 1.33 2.243.141.233.317.446.477.668.02.029.044.056.063.085.086.125.24.247.138.41-.114.185-.301.086-.456.048-.322-.08-.644-.166-.963-.26-.455-.136-.907-.284-1.363-.422-.19-.057-.384-.117-.62-.136.018.078.02.135.044.18.043.085.093.166.149.244.732 1.032 1.524 2.012 2.49 2.839.117.1.228.209.334.32.057.06.106.131.143.204.075.145.037.294-.106.368-.102.054-.22.09-.335.105-.483.06-.968.112-1.452.163-.473.05-.946.095-1.418.145-.093.01-.185.031-.262.045-.053.118 0 .187.054.249.239.28.47.57.725.835.464.483.992.89 1.548 1.26.118.08.235.165.335.266.169.17.143.357-.064.469-.125.067-.261.119-.397.155-.918.248-1.838.49-2.78.632-.105.016-.21.042-.313.067-.018.005-.032.03-.065.064.033.052.063.116.107.166.214.244.467.442.752.595.23.124.468.235.703.35.16.078.325.148.482.231.126.067.25.14.363.226.271.205.253.403-.048.576-.082.048-.17.087-.258.121-.288.112-.577.221-.867.328-.659.242-1.291.545-1.907.882-.353.193-.712.378-1.095.581a.617.617 0 0 0 .31.07c.677.024 1.354.055 2.03.07a44.19 44.19 0 0 0 1.817.01c1.205-.021 2.358-.264 3.426-.852.926-.51 1.654-1.236 2.25-2.1a3.29 3.29 0 0 0 .314-.6c.291-.694.508-1.414.675-2.146.13-.572.163-1.157.175-1.74.01-.477.001-.955-.072-1.428-.117-.756-.284-1.498-.616-2.195a5.99 5.99 0 0 0-1.253-1.725c-1.204-1.17-2.545-2.148-4.052-2.89-.17-.084-.341-.17-.513-.252-.051-.024-.108-.037-.195-.066" fill="#E86748"/>
            <path d="m57.186 390.005-.186.525c.073.025.134.053.2.068.825.182 1.61.463 2.375.8a36.09 36.09 0 0 1 4 2.088 26.805 26.805 0 0 0 4.549 2.183c1.355.497 2.765.808 4.2 1.032 1.556.243 3.123.335 4.698.286a17.872 17.872 0 0 0 3.602-.468c.553-.131 1.106-.263 1.656-.405.886-.228 1.732-.552 2.557-.92 1.134-.504 2.26-1.025 3.393-1.533 1.05-.47 2.141-.847 3.27-1.13.354-.09.72-.145 1.084-.204a32.82 32.82 0 0 1 2.586-.3c1.223-.102 2.445-.206 3.647-.439.652-.126 1.294-.295 1.94-.448.079-.019.152-.058.241-.093.017-.253-.078-.486-.122-.71-.107-.058-.184-.019-.262-.001-.694.155-1.385.321-2.083.463-.592.12-1.19.226-1.789.312-.623.09-1.252.148-1.878.22-1.052.118-2.111.176-3.156.349-.729.12-1.44.301-2.142.508-1.375.406-2.69.944-3.978 1.535a28.361 28.361 0 0 1-3.387 1.306c-.506.158-1.024.289-1.544.406-.496.112-1 .204-1.504.282a18.03 18.03 0 0 1-2.489.2 29.614 29.614 0 0 1-5.472-.422c-1.901-.326-3.705-.903-5.368-1.814-.797-.436-1.576-.9-2.368-1.343-.58-.323-1.158-.649-1.755-.944a15.43 15.43 0 0 0-4.404-1.393c-.022-.003-.046.001-.11.004" fill="#1E7DA7"/>
            <path d="M70 396c-.229-.777-.335-1.552-.475-2.317a7.305 7.305 0 0 0-1.176-2.873c-.83-1.203-1.812-2.231-3.035-2.983A5.625 5.625 0 0 0 63 387c.027.046.039.088.066.11 1.258 1.024 2.223 2.31 3.016 3.754.269.49.541.976.818 1.46.51.894 1.074 1.746 1.741 2.519.357.412.756.768 1.198 1.071.05.034.107.058.161.086M63.009 400.534c.045.019.09.043.137.055 1.518.389 3.049.534 4.591.294a18.016 18.016 0 0 0 1.603-.35c.359-.089.714-.205 1.065-.33 1.49-.532 2.904-1.299 4.242-2.282.708-.521 1.396-1.09 2.093-1.638A.985.985 0 0 0 77 396c-.175.065-.297.097-.41.154-.554.278-1.126.467-1.703.648-.944.297-1.903.493-2.863.68-1.185.233-2.374.44-3.54.792-1.167.352-2.32.77-3.446 1.299-.58.272-1.17.506-1.756.758-.094.04-.188.083-.282.124l.009.08M86 397.977c.144.054.256 0 .37-.021.904-.167 1.76-.448 2.603-.765a22.853 22.853 0 0 0 3.792-1.826c1.49-.903 2.845-1.93 4.04-3.105.069-.068.13-.142.193-.214.005-.006 0-.02-.003-.046-.109.006-.186.069-.276.104-.086.035-.173.069-.259.105-1.238.526-2.472 1.06-3.716 1.577-2.179.907-4.198 2.006-5.953 3.43-.24.194-.46.406-.686.614-.044.04-.068.095-.105.147M80 391.06c.021.114.1.147.16.204a14.654 14.654 0 0 0 4.674 3.074c.596.245 1.192.496 1.812.616.114.023.232.082.354.014-.624-1.12-2.051-2.442-3.475-3.183-1.106-.575-2.823-.934-3.525-.725" fill="#1E7DA7"/>
            <path d="M45 260.32c.09-.064.145-.11.204-.147.488-.306 1.024-.46 1.578-.559.603-.108 1.204-.229 1.81-.313.41-.057.825-.078 1.239-.083.748-.008 1.49-.083 2.232-.165.474-.054.951-.071 1.424-.129.755-.093 1.48-.316 2.192-.593.267-.104.4-.303.449-.584.125-.753.253-1.505.38-2.257.264-1.56.469-3.135.923-4.654.29-.973.597-1.942.89-2.913.092-.304.169-.615.295-.923.046.298.092.596.14.893.214 1.314.53 2.603.832 3.895.343 1.467.648 2.944.97 4.415.012.056.015.114.033.167.08.233.289.322.499.21.071-.038.132-.1.202-.142.227-.132.445-.291.687-.383.871-.332 1.746-.653 2.658-.855 1.998-.445 3.99-.923 5.989-1.36.578-.128 1.175-.168 1.763-.246.051-.006.103.005.192.01-.057.086-.09.152-.137.2-.355.377-.712.751-1.071 1.123-.206.213-.427.41-.622.632-.76.865-1.609 1.626-2.47 2.375-.837.731-1.666 1.474-2.498 2.212a3.089 3.089 0 0 0-.18.173c-.194.2-.165.402.077.547.517.309 1.028.629 1.553.922.72.404 1.378.893 1.988 1.461.578.54 1.204 1.03 1.745 1.608 1.12 1.194 2.128 2.49 2.953 3.934.046.08.087.164.144.27-.137.006-.22-.07-.309-.119-1.022-.562-2.06-1.078-3.162-1.46a31.047 31.047 0 0 1-2.243-.906c-.565-.246-1.111-.54-1.667-.81-.941-.458-1.938-.696-2.963-.825-.884-.111-1.768-.23-2.65-.35-.302-.04-.412.01-.515.313-.171.498-.299 1.012-.492 1.5a121.878 121.878 0 0 1-1.48 3.62c-.804 1.864-1.767 3.637-2.806 5.367-.501.831-1.001 1.663-1.567 2.448a.519.519 0 0 1-.171.161c.016-.226.03-.453.05-.679.05-.59.105-1.181.158-1.773.083-.939.168-1.877.245-2.816.036-.432.064-.866.077-1.3.022-.68.035-1.36.037-2.041.001-.492-.025-.982-.032-1.474-.025-1.46.13-2.902.446-4.324.045-.201.072-.408.107-.612.057-.334-.058-.502-.379-.54-.178-.022-.358-.029-.537-.047-.752-.075-1.507-.126-2.254-.235-.686-.101-1.364-.255-2.042-.403-.925-.202-1.858-.37-2.76-.673-.584-.196-1.17-.385-1.752-.583-.126-.043-.246-.11-.402-.18M222.394 350c-.047-.078-.083-.127-.108-.183-.297-.65-.606-1.294-.885-1.954-.302-.716-.49-1.479-.652-2.248-.024-.115-.048-.23-.077-.345-.055-.227-.16-.292-.369-.283-.348.014-.677.14-1.018.19-.266.039-.533.068-.8.09-.22.016-.44.023-.66.02a5.237 5.237 0 0 1-1.171-.12 1.843 1.843 0 0 1-.654-.32c.036-.02.062-.031.085-.048.694-.529 1.37-1.089 2.105-1.547.226-.14.465-.254.692-.394.416-.256.826-.522 1.24-.784.123-.078.171-.2.19-.356.09-.775.1-1.553.095-2.332-.006-.742.042-1.482.114-2.219.039-.39.132-.766.248-1.167.03.06.053.099.068.14l.232.642c.126.356.29.69.46 1.02.185.353.33.728.456 1.112.018.055.035.111.058.165.055.13.11.137.206.039.358-.37.744-.697 1.176-.95.314-.182.642-.336.965-.5.332-.168.664-.335.999-.496.195-.095.401-.138.63-.14l-.043.104c-.155.333-.312.665-.465 1-.253.556-.552 1.082-.842 1.614-.22.403-.424.818-.632 1.23-.091.181-.068.28.096.38a6.458 6.458 0 0 1 1.639 1.479c.459.603.832 1.273 1.15 1.98.024.051.043.104.078.192a776.75 776.75 0 0 0-.728-.182c-.304-.074-.607-.158-.912-.22-.188-.038-.38-.043-.571-.062l-1.158-.113c-.077-.007-.153-.017-.23-.02-.144-.004-.212.043-.262.197a.893.893 0 0 0-.053.265c-.002.376.006.752.008 1.129.001.188.002.376-.004.563-.006.194-.018.386-.03.579-.032.485-.146.95-.267 1.415-.1.381-.195.764-.295 1.145-.023.09-.061.175-.104.293" fill="#FBD905"/>
        </g>
    </g>
</svg>
