<svg width="123" height="97" viewBox="0 0 123 97" xmlns="http://www.w3.org/2000/svg">
    <g fill="none" fill-rule="evenodd">
        <path d="M28.02 67.576c-3.131-.24-6.876-1.381-8.145-2.535a52.891 52.891 0 0 1 3.18-1.714c2.92-1.426 5.99-2.139 9.258-2.052 3.383.09 6.64.752 9.831 1.795.131.043.258.096.393.157a15.929 15.929 0 0 1-.926-3.37c-.32-2.01-.672-4.013-.995-6.021a26.88 26.88 0 0 0-1.063-4.351c-.64-1.892-1.66-3.527-3.273-4.762-.192-.147-.36-.322-.583-.523.24-.428.461-.818.677-1.2.577.099.925.478 1.292.797 2.402 2.082 4.057 4.632 4.69 7.756.288 1.42.415 2.873.592 4.314.168 1.359.229 2.736.468 4.08.816 4.589 3.185 8.16 7.267 10.53 2.984 1.73 6.244 2.616 9.694 2.77 3.525.156 6.823-.788 9.965-2.316 2.599-1.264 4.825-3.044 6.845-5.077 1.21-1.217 2.362-2.492 3.526-3.753 2.335-2.53 4.826-4.885 7.658-6.876 6.375-4.482 13.437-6.81 21.248-6.837 2.444-.008 4.853.34 7.268.627.184.023.362.092.608.156-.22.377-.378.667-.557.944-.089.138-.219.249-.315.356-.113.013-.199.043-.278.03-3.003-.454-6.027-.38-9.047-.227-2.979.15-5.808.843-8.542 1.847.461 1.497.649 2.962.75 4.44.179 2.626-.008 5.229-.8 7.753-.714 2.272-1.82 4.368-3.176 6.344-1.784 2.597-4.068 4.732-6.334 6.887-.055.052-.183.027-.315.042.041-2.835.105-5.59.115-8.345.01-2.846.481-5.587 1.713-8.188 1.492-3.153 3.516-5.889 6.121-8.171-.926.392-1.843.814-2.752 1.257-2.472 1.204-4.624 2.9-6.591 4.801-1.476 1.426-2.892 2.914-4.301 4.404-2.104 2.224-4.288 4.357-6.684 6.28-4.086 3.278-8.722 5.136-13.955 5.522-3.995.296-7.79-.326-11.271-2.343-2.29-1.326-4.406-2.873-6.051-4.972-.972-1.24-1.786-2.55-2.41-3.945-4.275 2.68-9.893 4.064-14.796 3.689" fill="#1E7DA7"/>
        <path d="M29.232 44.781c1.279.419 2.449.598 3.636.482 1.773-.172 3.208-.96 4.18-2.521.745-1.195.759-2.433.13-3.698-.522-1.048-1.353-1.775-2.34-2.331-1.717-.966-3.577-1.321-5.494-1.413-.59-.027-1.18 0-1.77.004-.21.002-.422.029-.632.013-.763-.056-1.057-.52-.747-1.248.285-.669.645-1.303.96-1.958.806-1.669 1.024-3.445.827-5.294-.159-1.487-.827-2.73-1.856-3.769-1.048-1.059-2.312-1.424-3.734-1.092-1.466.342-2.58 1.19-3.367 2.5-1.198 1.99-1.739 4.178-1.817 6.511-.016.475-.025.955-.102 1.42-.1.61-.612.843-1.143.53a7.911 7.911 0 0 1-1.038-.755c-1.462-1.222-3.16-1.843-4.982-2.152-1.412-.239-2.789-.026-4.098.473-1.581.601-2.646 1.784-3.196 3.415-.409 1.212-.194 2.395.4 3.51.649 1.223 1.61 2.121 2.818 2.75a9.84 9.84 0 0 0 3.259 1.044c.586.078 1.174.141 1.76.222.375.053.604.254.645.523.046.306-.152.479-.34.642-.223.194-.47.358-.707.537-1.702 1.28-2.96 2.908-3.6 4.992-.61 1.993-.63 3.999.198 5.964.825 1.96 2.085 2.476 3.991 1.645 1.09-.475 2.062-1.159 2.927-1.98.768-.727 1.486-1.51 2.23-2.264.238-.24.47-.495.742-.689.345-.248.79-.057.893.38.08.334.115.683.126 1.027.048 1.554.793 2.722 1.966 3.634 1.1.856 2.35 1.202 3.706.977 1.812-.301 3.316-1.193 4.513-2.6.778-.917 1.077-2.03 1.068-3.233-.007-1.191-.32-2.313-.893-3.357-.333-.607-.685-1.203-1.026-1.807-.197-.35-.346-.723-.094-1.093.264-.388.657-.31 1.035-.21.37.097.736.205.966.27" fill="#FBCCC2"/>
        <path d="M20.365 39.094a3.925 3.925 0 0 0-1.828-.218c-1.48.177-2.403 1.388-2.285 2.941.184 2.445 3.014 4.731 5.73 3.24 1.952-1.07 2.016-3.412.565-4.808a4.298 4.298 0 0 0-2.182-1.155" fill="#F6981E"/>
    </g>
</svg>
