<svg width="77" height="90" viewBox="0 0 77 90" xmlns="http://www.w3.org/2000/svg">
    <g fill="none" fill-rule="evenodd">
        <path d="M44.77 37.476c.143-.679.152-1.364-.031-2.048-.243-.904-.8-1.548-1.736-1.862-.758-.255-1.528-.303-2.307-.233-1.02.092-1.997.334-2.947.672-2.238.797-4.249 1.97-6.139 3.34-.112.083-.198.234-.408.133l.443-.987c.595-1.32 1.17-2.65 1.519-4.064.288-1.168.426-2.356.324-3.57-.074-.874-.302-1.709-.85-2.444-.555-.747-1.278-1.232-2.227-1.342a4.792 4.792 0 0 0-2.278.272c-1.387.522-2.358 1.498-3.116 2.687-.678 1.065-1.125 2.243-1.546 3.429-.727 2.05-1.292 4.15-1.886 6.242a68.465 68.465 0 0 0-2.465 13.932c-.031.449-.049.9-.064 1.35-.004.123.022.248.031.35.212.113.332.007.463-.061.921-.481 1.835-.975 2.766-1.44 2.66-1.324 5.357-2.577 8.14-3.664a78.975 78.975 0 0 0 3.481-1.483c2.205-.986 4.327-2.114 6.32-3.449 1.296-.868 2.476-1.859 3.352-3.15.543-.8.96-1.656 1.161-2.61" fill="#E86748"/>
        <path d="M40.555 43.211c-2.172 1.522-4.478 2.817-6.87 3.956-1.249.594-2.5 1.184-3.775 1.718-3.017 1.263-5.944 2.71-8.833 4.234-1.011.533-2.004 1.1-3.005 1.653-.142.078-.274.198-.499.077-.008-.113-.034-.25-.027-.387.027-.5.055-1 .098-1.498.459-5.265 1.46-10.426 2.944-15.494.684-2.332 1.336-4.673 2.16-6.96.478-1.324.984-2.639 1.736-3.834.84-1.334 1.905-2.436 3.408-3.043a5.091 5.091 0 0 1 2.455-.35c1.018.103 1.786.625 2.368 1.44.574.804.8 1.724.862 2.69.084 1.346-.089 2.666-.424 3.965-.405 1.576-1.05 3.061-1.718 4.538-.167.367-.332.735-.498 1.104.224.107.32-.063.442-.156 2.062-1.56 4.249-2.902 6.673-3.832 1.029-.395 2.085-.684 3.183-.807.84-.094 1.666-.057 2.477.21 1 .327 1.586 1.03 1.827 2.027.183.754.16 1.514-.009 2.27-.236 1.061-.703 2.019-1.304 2.917-.97 1.45-2.26 2.573-3.671 3.562M57.04 35.5c.01-.011-.001-.04-.007-.161-.248.1-.447.175-.64.262a89.353 89.353 0 0 0-6.339 3.123c-.25.136-.498.28-.757.398a1.52 1.52 0 0 1-.478.128c-.225.022-.424-.201-.365-.417.049-.178.13-.357.238-.506.417-.578.867-1.133 1.274-1.719.664-.956 1.333-1.91 1.949-2.898 1.207-1.936 2.295-3.945 3.591-5.826.823-1.196 1.66-2.381 2.673-3.428 1.538-1.591 3.177-3.077 4.806-4.572a62.58 62.58 0 0 0 1.495-1.429c.067-.065.206-.137.093-.313-.304.134-.61.257-.906.4-1.77.848-3.617 1.45-5.537 1.869-1.488.325-2.964.715-4.434 1.117-2.211.604-4.338 1.437-6.4 2.435-.235.114-.468.235-.705.346-.107.05-.223.118-.333.115a.463.463 0 0 1-.298-.143c-.046-.051-.044-.192-.006-.26.08-.143.186-.275.3-.394.995-1.056 2.009-2.093 2.984-3.166a31.572 31.572 0 0 0 1.877-2.24c1.646-2.182 3.261-4.387 4.887-6.584.065-.089.174-.171.076-.342-.124.028-.263.043-.39.09-1.222.467-2.453.916-3.663 1.414-1.65.68-3.299 1.366-4.99 1.942-1.292.44-2.613.737-3.966.899-.946.113-1.892.237-2.839.34-2.043.22-3.942.889-5.759 1.815-.638.325-1.247.694-1.776 1.183-.087.08-.172.175-.277.22-.097.042-.24.067-.326.026-.146-.07-.16-.228-.104-.373.06-.155.132-.305.203-.456 1.24-2.596 2.598-5.13 4.014-7.634.655-1.157 1.344-2.296 2.014-3.445.016-.027-.015-.081-.034-.165-.132.063-.26.115-.379.181-2.068 1.14-4.023 2.446-5.81 3.992-.902.779-1.76 1.612-2.495 2.544-1.34 1.698-2.621 3.441-3.788 5.266-1.089 1.703-2.157 3.418-3.101 5.205a374.187 374.187 0 0 0-3.17 6.147c-1.154 2.292-2.241 4.618-3.14 7.025-.896 2.4-1.466 4.868-1.546 7.44-.055 1.74.044 3.472.205 5.204.152 1.635.272 3.273.414 4.909.085.972.182 1.943.28 2.914.014.133.068.261.108.41.138-.033.232-.046.318-.077 1.08-.389 2.191-.664 3.322-.837 1.365-.208 2.738-.374 4.11-.532 2.179-.252 4.357-.496 6.52-.867 1.858-.319 3.693-.733 5.45-1.428 3.11-1.23 5.88-3.005 8.373-5.223 1.476-1.314 2.853-2.728 4.21-4.161 1.535-1.622 3.03-3.284 4.548-4.923 1.179-1.274 2.367-2.539 3.544-3.813.307-.331.59-.683.882-1.027" fill="#F6981E"/>
        <path d="M46.917 81.35c-.049-.048-.093-.1-.146-.143-.24-.195-.478-.392-.723-.58a25.818 25.818 0 0 0-.932-.682c-.403-.278-.804-.561-1.225-.811a12.079 12.079 0 0 0-1.857-.88c-.258-.098-.512-.207-.772-.3-.16-.057-.243-.23-.1-.402.263-.314.537-.619.836-.9.191-.182.379-.367.566-.552.262-.26.523-.52.782-.783a20.5 20.5 0 0 0 1.188-1.325c.01-.01.015-.024.035-.059-.077.02-.135.034-.191.05-.581.171-1.165.331-1.763.436-.592.102-1.183.207-1.775.315-.156.029-.309.07-.464.104-.055.011-.112.024-.168.026-.108.005-.176-.071-.14-.171.144-.41.093-.82.01-1.227-.176-.863-.444-1.7-.729-2.53-.132-.385-.268-.767-.401-1.151-.011-.031-.024-.06-.042-.11-.016.044-.03.072-.036.1l-.657 2.626a22.988 22.988 0 0 1-.597 1.959c-.16.46-.295.929-.442 1.394l-.052.162c-.05.144-.131.187-.273.134a3.224 3.224 0 0 1-.314-.133c-.536-.266-1.098-.467-1.66-.666-.364-.128-.725-.267-1.095-.372-.43-.121-.868-.21-1.303-.313-.011-.003-.023 0-.053 0 .093.112.172.218.263.314.182.194.368.387.559.575.266.26.54.513.805.775.27.265.55.517.84.758.214.176.423.356.636.532.078.064.159.127.243.183.152.099.147.247-.03.335a7.655 7.655 0 0 0-1.05.636c-.42.3-.826.619-1.187.988-.216.22-.435.439-.607.698-.063.095-.143.178-.211.269-.21.28-.41.565-.624.84-.182.235-.377.46-.564.69-.074.091-.142.187-.203.3.044-.013.09-.024.132-.04.57-.206 1.14-.408 1.708-.62a37.076 37.076 0 0 1 2.452-.812c.258-.076.508-.174.763-.258.108-.035.219-.067.33-.085.184-.03.259.033.267.218.005.122-.007.245.006.366.039.355.078.71.131 1.063.14.927.375 1.832.625 2.733.132.472.3.936.452 1.403l.218.686c.01.034.023.068.043.128.03-.07.053-.116.07-.164.306-.846.57-1.704.716-2.593.16-.97.315-1.942.465-2.915.038-.24.05-.485.074-.728.018-.2.065-.392.13-.581a.296.296 0 0 1 .245-.212c.104-.015.21-.023.315-.021.429.005.849.083 1.262.195.915.248 1.847.408 2.782.556.313.05.626.103.938.16.32.056.63.157.937.261.18.061.363.116.544.174l.018-.023" fill="#FBD905"/>
    </g>
</svg>
