<svg width="160" height="184" viewBox="0 0 160 184" xmlns="http://www.w3.org/2000/svg">
    <g fill="none" fill-rule="evenodd">
        <path d="M131.485 77.515c-.45-1.806-1.23-3.47-2.467-4.904-1.635-1.896-3.72-2.796-6.327-2.45-2.114.277-4.013 1.067-5.796 2.153-2.333 1.42-4.389 3.153-6.268 5.089-4.428 4.556-7.872 9.751-10.795 15.285-.172.328-.202.795-.821.798-.032-.97-.065-1.937-.093-2.904-.117-3.886-.293-7.767-1.11-11.592-.673-3.156-1.73-6.185-3.393-8.996-1.197-2.021-2.715-3.766-4.885-4.897-2.202-1.147-4.5-1.465-6.9-.615-1.998.707-3.707 1.815-5.134 3.338-2.711 2.89-3.897 6.387-4.322 10.149-.38 3.368-.075 6.736.303 10.092.652 5.8 1.753 11.536 2.772 17.282 2.22 12.495 5.627 24.678 10.366 36.515.448 1.12.933 2.228 1.422 3.333.133.302.342.574.485.808.638.023.802-.374 1.036-.692 1.643-2.245 3.252-4.512 4.94-6.727 4.822-6.327 9.813-12.525 15.207-18.422 2.279-2.491 4.446-5.08 6.6-7.675 4.128-4.975 7.89-10.193 11.101-15.759 2.09-3.62 3.756-7.398 4.347-11.544.366-2.57.364-5.127-.268-7.665" fill="#E86748"/>
        <path d="M128.865 96.42c-3.497 6.301-7.594 12.209-12.088 17.84-2.346 2.937-4.706 5.868-7.187 8.69-5.874 6.676-11.309 13.694-16.56 20.856-1.837 2.506-3.588 5.075-5.378 7.614-.254.36-.435.811-1.129.784-.155-.265-.382-.571-.527-.913a118.43 118.43 0 0 1-1.549-3.776c-5.16-13.401-8.87-27.193-11.287-41.338-1.11-6.506-2.308-13-3.018-19.567-.412-3.8-.743-7.613-.33-11.426.463-4.259 1.754-8.218 4.706-11.49a13.86 13.86 0 0 1 5.59-3.778c2.615-.962 5.116-.602 7.513.697 2.364 1.278 4.016 3.256 5.32 5.542 1.81 3.184 2.962 6.613 3.694 10.185.89 4.33 1.081 8.726 1.21 13.126.03 1.095.066 2.19.1 3.288.674-.004.705-.534.895-.906 3.183-6.265 6.932-12.145 11.754-17.305 2.046-2.19 4.284-4.151 6.825-5.76 1.942-1.229 4.01-2.123 6.311-2.44 2.838-.388 5.109.628 6.89 2.777 1.347 1.622 2.196 3.505 2.686 5.552.688 2.873.69 5.767.292 8.677-.644 4.692-2.459 8.971-4.733 13.07m31.134-38.463c.01-.039-.05-.096-.208-.385-.486.542-.885.96-1.255 1.403-4.114 4.914-8.069 9.949-11.782 15.173-.448.63-.883 1.277-1.377 1.874-.282.343-.638.65-1.016.882-.525.32-1.279.014-1.391-.582a4.387 4.387 0 0 1-.02-1.521c.33-1.908.768-3.8 1.065-5.713.484-3.126.98-6.254 1.309-9.399.644-6.164.909-12.365 1.834-18.502.587-3.898 1.22-7.79 2.448-11.553 1.865-5.716 4.102-11.295 6.305-16.886a169.785 169.785 0 0 0 1.952-5.27c.085-.24.34-.58-.145-.875-.585.688-1.185 1.353-1.74 2.054-3.317 4.18-7.122 7.848-11.317 11.158-3.255 2.566-6.4 5.276-9.517 8.01-4.688 4.107-8.897 8.674-12.752 13.565-.44.56-.864 1.132-1.312 1.685-.201.25-.404.554-.677.678-.256.117-.638.11-.902.005-.172-.07-.334-.415-.324-.629.024-.443.128-.89.263-1.318 1.174-3.762 2.419-7.502 3.525-11.283.745-2.538 1.414-5.11 1.92-7.704 1.422-7.289 2.743-14.596 4.098-21.897.055-.295.222-.626-.223-.926-.27.215-.592.417-.842.685-2.436 2.595-4.912 5.157-7.278 7.815-3.227 3.626-6.44 7.263-9.893 10.684a52.735 52.735 0 0 1-8.63 6.917c-2.18 1.403-4.345 2.831-6.541 4.21-4.735 2.974-8.582 6.867-11.924 11.292-1.173 1.554-2.223 3.18-2.934 5.002-.117.3-.213.635-.416.869-.187.219-.504.448-.767.451-.438.005-.661-.365-.697-.787-.038-.45-.043-.902-.048-1.354-.065-7.816.234-15.622.711-23.421.222-3.606.549-7.207.815-10.81.007-.085-.133-.18-.28-.361-.247.31-.496.588-.709.892-3.703 5.245-6.925 10.764-9.455 16.667-1.275 2.975-2.38 6.032-3.067 9.182-1.251 5.741-2.306 11.524-2.985 17.369-.63 5.455-1.198 10.915-1.374 16.404-.198 6.26-.337 12.52-.42 18.782-.09 6.973.026 13.947.7 20.894.67 6.926 2.221 13.631 5.095 20.009 1.944 4.313 4.25 8.423 6.712 12.462 2.322 3.811 4.573 7.667 6.872 11.492a551.753 551.753 0 0 0 4.164 6.781c.19.31.475.559.751.874.299-.246.512-.388.686-.567a47.936 47.936 0 0 1 7.13-6c3.092-2.135 6.252-4.173 9.422-6.195 5.029-3.21 10.068-6.399 14.915-9.88 4.167-2.991 8.161-6.189 11.634-9.98 6.142-6.705 10.8-14.338 14.252-22.722 2.044-4.967 3.725-10.059 5.333-15.173 1.822-5.79 3.498-11.628 5.254-17.439 1.364-4.513 2.762-9.017 4.122-13.53.355-1.174.627-2.37.93-3.558" fill="#F6981E"/>
        <path d="M42.5 159.827c-.17-.058-.336-.13-.51-.171-.79-.184-1.578-.375-2.373-.533a67.772 67.772 0 0 0-2.982-.539c-1.272-.193-2.543-.4-3.824-.505-1.795-.15-3.597-.093-5.394.063-.722.063-1.446.1-2.166.18-.442.049-.84-.265-.7-.834.258-1.044.555-2.078.936-3.087.243-.648.473-1.3.702-1.952.319-.916.634-1.83.944-2.748.501-1.475.906-2.98 1.277-4.491.01-.038.008-.077.015-.18-.16.135-.278.233-.393.337-1.173 1.072-2.367 2.122-3.657 3.056a557.97 557.97 0 0 0-3.825 2.787c-.336.247-.65.52-.977.778-.117.09-.235.186-.365.256-.25.136-.498.034-.53-.243-.13-1.133-.721-2.042-1.386-2.907-1.409-1.832-3.003-3.498-4.63-5.129-.754-.756-1.515-1.503-2.273-2.255-.06-.06-.124-.115-.224-.21.013.123.013.202.03.279l1.471 6.95c.373 1.756.63 3.528.845 5.308.154 1.27.373 2.532.562 3.797.023.148.045.295.063.444.047.397-.094.59-.488.63-.297.03-.596.048-.894.046-1.57-.01-3.128.161-4.683.34-1.006.115-2.018.204-3.011.382-1.154.209-2.292.502-3.436.76-.03.006-.053.028-.124.063.347.156.657.314.98.437.655.249 1.314.49 1.98.713.929.31 1.868.59 2.794.903.94.316 1.891.585 2.855.82.705.172 1.407.354 2.112.525.258.061.52.117.783.15.472.06.63.415.316.825a20.093 20.093 0 0 0-1.749 2.712c-.646 1.19-1.236 2.41-1.663 3.695-.256.767-.52 1.536-.627 2.346-.04.295-.134.583-.19.877-.17.9-.317 1.805-.504 2.703-.158.761-.36 1.515-.537 2.275-.068.3-.119.604-.135.94.089-.082.183-.16.267-.247 1.106-1.14 2.22-2.274 3.315-3.427a97.326 97.326 0 0 1 4.852-4.739c.52-.475.998-.994 1.503-1.484.214-.208.438-.41.68-.582.399-.284.65-.22.881.209.152.28.266.585.436.854.5.793 1 1.586 1.534 2.36 1.394 2.024 2.99 3.889 4.618 5.726.853.964 1.785 1.863 2.68 2.792.436.453.868.912 1.303 1.367.065.069.133.134.25.251-.009-.197-.009-.333-.024-.466-.252-2.348-.616-4.676-1.295-6.942a740.362 740.362 0 0 0-2.255-7.412c-.188-.611-.44-1.204-.665-1.802a6.41 6.41 0 0 1-.36-1.523c-.039-.329.069-.596.334-.78a5.08 5.08 0 0 1 .717-.412c1.019-.482 2.099-.78 3.201-.992 2.445-.469 4.83-1.163 7.206-1.89.796-.241 1.594-.477 2.394-.704.822-.234 1.667-.353 2.513-.46.496-.063.99-.143 1.483-.216l.017-.074" fill="#FBD905"/>
    </g>
</svg>
