<svg width="85" height="139" viewBox="0 0 85 139" xmlns="http://www.w3.org/2000/svg">
    <g fill="none" fill-rule="evenodd">
        <path d="M46.65 52.23c-.304-1.234-.833-2.37-1.671-3.35-1.11-1.294-2.523-1.909-4.29-1.673-1.433.19-2.72.73-3.93 1.47-1.582.97-2.975 2.154-4.249 3.476-3.002 3.111-5.337 6.66-7.319 10.439-.116.224-.137.543-.557.545-.02-.662-.043-1.323-.062-1.983-.08-2.654-.2-5.305-.753-7.917-.456-2.155-1.173-4.224-2.3-6.144-.812-1.38-1.841-2.572-3.312-3.344-1.493-.783-3.05-1-4.678-.42a8.64 8.64 0 0 0-3.48 2.28c-1.839 1.974-2.643 4.362-2.93 6.93-.258 2.3-.052 4.601.204 6.893.443 3.961 1.189 7.878 1.88 11.802 1.504 8.533 3.815 16.853 7.027 24.937.304.765.633 1.522.965 2.277.09.206.231.391.328.551.433.016.544-.255.703-.472 1.114-1.533 2.205-3.082 3.349-4.595 3.269-4.32 6.653-8.553 10.31-12.58 1.545-1.701 3.014-3.47 4.475-5.241 2.798-3.398 5.348-6.961 7.526-10.763 1.416-2.472 2.546-5.053 2.947-7.884.247-1.754.246-3.5-.182-5.234" fill="#E86748"/>
        <path d="M44.349 65.068c-2.32 4.253-5.036 8.24-8.017 12.04-1.556 1.982-3.121 3.96-4.767 5.864-3.896 4.506-7.5 9.242-10.983 14.075-1.219 1.691-2.381 3.425-3.568 5.139-.169.243-.289.547-.748.528-.104-.179-.254-.385-.35-.616a80.72 80.72 0 0 1-1.028-2.548C11.466 90.506 9.005 81.2 7.402 71.653c-.736-4.39-1.53-8.773-2.002-13.205-.273-2.564-.493-5.137-.219-7.71.307-2.874 1.164-5.546 3.122-7.755a9.187 9.187 0 0 1 3.708-2.549c1.734-.65 3.393-.406 4.983.47 1.567.863 2.663 2.198 3.528 3.74 1.201 2.15 1.965 4.463 2.45 6.874.59 2.922.717 5.889.802 8.858.02.739.044 1.478.067 2.219.447-.003.468-.36.594-.612 2.11-4.228 4.598-8.196 7.796-11.678 1.357-1.478 2.841-2.801 4.527-3.887 1.287-.83 2.659-1.433 4.185-1.646 1.883-.263 3.389.423 4.57 1.873.894 1.095 1.457 2.366 1.782 3.747.456 1.94.457 3.892.193 5.856-.427 3.166-1.63 6.054-3.139 8.82m20.65-25.956c.007-.027-.033-.066-.138-.26-.322.365-.587.648-.832.947-2.728 3.316-5.352 6.713-7.814 10.239-.298.426-.586.862-.914 1.265a2.756 2.756 0 0 1-.674.595c-.348.216-.848.01-.923-.393a3.011 3.011 0 0 1-.013-1.027c.22-1.287.51-2.564.706-3.855.322-2.11.65-4.22.869-6.343.427-4.16.603-8.344 1.217-12.486.388-2.63.808-5.256 1.623-7.796 1.237-3.858 2.72-7.623 4.182-11.396.455-1.175.877-2.366 1.294-3.556.057-.162.227-.392-.096-.59-.388.464-.786.913-1.154 1.385-2.2 2.82-4.723 5.297-7.506 7.53-2.159 1.732-4.245 3.561-6.312 5.405-3.11 2.773-5.901 5.854-8.458 9.156-.292.377-.573.763-.87 1.136-.134.17-.268.375-.45.458a.823.823 0 0 1-.598.004c-.114-.047-.221-.28-.214-.425.015-.299.084-.601.174-.89.779-2.538 1.604-5.063 2.338-7.614.494-1.712.938-3.448 1.273-5.2.943-4.918 1.82-9.85 2.719-14.776.036-.2.147-.422-.148-.625-.18.145-.393.282-.56.462-1.615 1.752-3.257 3.48-4.826 5.274-2.14 2.447-4.272 4.902-6.562 7.21a35.09 35.09 0 0 1-5.724 4.668c-1.446.947-2.882 1.911-4.338 2.842-3.14 2.006-5.693 4.633-7.909 7.62-.778 1.048-1.474 2.146-1.946 3.375-.078.203-.141.429-.276.587-.124.147-.334.302-.509.304-.29.003-.438-.246-.462-.531-.025-.303-.028-.61-.032-.914-.043-5.274.155-10.542.472-15.805.147-2.434.364-4.864.54-7.296.005-.057-.088-.12-.185-.243-.164.21-.33.397-.47.602-2.456 3.54-4.594 7.264-6.272 11.247-.845 2.008-1.578 4.071-2.034 6.197-.83 3.874-1.53 7.777-1.98 11.721C.79 41.002.412 44.686.296 48.39a696.547 696.547 0 0 0-.278 12.676c-.06 4.706.017 9.411.463 14.1.445 4.674 1.474 9.199 3.38 13.503 1.29 2.91 2.82 5.684 4.452 8.41 1.54 2.572 3.033 5.174 4.558 7.755a373.571 373.571 0 0 0 2.761 4.576c.127.209.316.377.499.59.198-.166.34-.262.454-.382a31.936 31.936 0 0 1 4.73-4.05c2.05-1.44 4.147-2.816 6.249-4.18 3.335-2.166 6.678-4.318 9.893-6.667 2.763-2.02 5.412-4.177 7.716-6.736 4.074-4.525 7.163-9.676 9.453-15.334 1.356-3.352 2.47-6.788 3.537-10.24 1.209-3.907 2.32-7.846 3.485-11.768.904-3.046 1.832-6.085 2.734-9.13.235-.793.416-1.6.617-2.401" fill="#F6981E"/>
        <path d="M85 122.654c-.118-.04-.232-.09-.352-.118-.545-.127-1.09-.259-1.638-.368a46.793 46.793 0 0 0-2.06-.372c-.878-.133-1.756-.276-2.64-.349-1.24-.104-2.484-.064-3.724.044-.499.044-.999.07-1.496.124-.305.034-.58-.183-.483-.576.178-.72.383-1.435.646-2.131.168-.448.327-.898.484-1.348.22-.633.439-1.264.653-1.897.346-1.019.625-2.058.881-3.102.007-.025.006-.052.01-.124-.11.094-.192.162-.271.233-.81.74-1.634 1.465-2.525 2.11-.883.638-1.763 1.28-2.641 1.924-.232.17-.449.36-.674.538-.081.063-.163.128-.253.177-.173.093-.343.023-.365-.168-.09-.783-.499-1.41-.957-2.008-.973-1.264-2.074-2.415-3.198-3.541-.52-.522-1.046-1.038-1.569-1.557-.042-.041-.086-.08-.155-.145.01.085.01.14.02.192l1.017 4.8c.258 1.212.435 2.436.583 3.664.107.878.258 1.749.389 2.622.015.103.03.204.043.307.032.274-.065.407-.337.434-.205.02-.411.034-.618.032-1.084-.006-2.16.112-3.233.235-.695.08-1.393.141-2.079.264-.797.144-1.583.347-2.372.525-.02.004-.037.02-.086.044.24.107.454.216.677.301.452.172.907.339 1.367.493.64.214 1.29.406 1.929.623.648.218 1.306.404 1.971.566.487.119.972.245 1.459.363.178.042.358.08.54.103.326.041.435.286.218.57-.455.59-.852 1.217-1.207 1.873-.446.822-.854 1.663-1.148 2.55-.177.53-.36 1.061-.434 1.62-.026.205-.092.403-.13.606-.118.622-.22 1.247-.349 1.866-.109.526-.248 1.047-.37 1.571a3.664 3.664 0 0 0-.094.65c.062-.057.127-.11.185-.171.764-.788 1.533-1.57 2.289-2.367a67.2 67.2 0 0 1 3.35-3.272c.359-.328.69-.686 1.038-1.024.147-.144.302-.284.469-.402.275-.196.449-.152.609.144.105.193.183.404.3.59.346.548.692 1.095 1.06 1.629.962 1.398 2.064 2.686 3.188 3.954.59.666 1.233 1.287 1.85 1.928.302.313.6.63.9.944.045.047.093.092.173.173-.006-.136-.006-.23-.016-.322-.175-1.621-.426-3.228-.895-4.793-.51-1.709-1.029-3.414-1.557-5.118-.13-.422-.304-.83-.459-1.244a4.426 4.426 0 0 1-.248-1.052.536.536 0 0 1 .23-.538c.157-.108.323-.204.495-.285.704-.332 1.45-.539 2.21-.685 1.689-.323 3.335-.803 4.976-1.304.55-.167 1.1-.33 1.653-.487.568-.161 1.151-.243 1.735-.318.343-.043.684-.098 1.024-.148l.012-.052" fill="#FBD905"/>
    </g>
</svg>
