<svg width="140" height="56" viewBox="0 0 140 56" xmlns="http://www.w3.org/2000/svg" xmlns:xlink="http://www.w3.org/1999/xlink">
    <defs>
        <path id="jkjd48syoa" d="M0 56h140V0H0z"/>
    </defs>
    <g fill="none" fill-rule="evenodd">
        <path d="M14.354 11.293a6.05 6.05 0 0 0-.915-.911 1.965 1.965 0 0 0-2.482-.082 1.282 1.282 0 0 0-.43.436c-.107.178-.17.378-.183.584a2.48 2.48 0 0 0 0 .265c0 1.986 2.17 5.221 4.047 7.454 1.83-2.223 3.983-5.468 3.983-7.427a2.637 2.637 0 0 0 0-.273 1.318 1.318 0 0 0-.623-1.039 1.735 1.735 0 0 0-2.4 0c-.38.283-.72.615-1.016.984m.092 9.842s-8.514-9.032-4.193-11.983a2.913 2.913 0 0 1 3.257-.274c.339.19.635.443.871.746a2.929 2.929 0 0 1 1.957-1.09c.382-.043.77-.011 1.14.094.37.107.714.283 1.014.524 4.386 2.951-4.046 11.983-4.046 11.983" fill="#FFF"/>
        <mask id="wnnalhcwxb" fill="#fff">
            <use xlink:href="#jkjd48syoa"/>
        </mask>
        <path stroke="#FFF" stroke-width="1.481" mask="url(#wnnalhcwxb)" d="M.74 28.107h27.466V.77H.74z"/>
        <path stroke="#FFF" stroke-width="1.481" mask="url(#wnnalhcwxb)" d="M28.068 28.078h111.191V.74H28.068zM28.114 55.26h75.816V28.087H28.114z"/>
        <path fill="#FFF" mask="url(#wnnalhcwxb)" d="M45.491 21.125h-1.978V9.753h-3.167v11.372h-1.978V8.058h7.123zM53.456 10.555c0-.748-.715-1.021-1.318-1.021-.605 0-1.336.255-1.336 1.02v8.056c0 .747.731 1.02 1.336 1.02.603 0 1.318-.273 1.318-1.02v-8.055zm-4.632 0c0-2.004 1.775-2.734 3.314-2.734 1.538 0 3.296.71 3.296 2.734v8.055c0 1.987-1.776 2.733-3.296 2.733-1.52 0-3.314-.71-3.314-2.733v-8.055zM63.335 16.569a1.235 1.235 0 0 0-.384-.97 1.26 1.26 0 0 0-.99-.343h-1.546v4.21h1.574a1.238 1.238 0 0 0 1.275-.802c.063-.168.086-.348.07-.528v-1.567zm-.32-5.723a.971.971 0 0 0-.05-.432 1 1 0 0 0-1.031-.662h-1.519v3.792h1.483a1.008 1.008 0 0 0 1.026-.665.98.98 0 0 0 .053-.43l.037-1.603zm-4.578 10.279V8.057H62.1a2.63 2.63 0 0 1 2.016.652 2.615 2.615 0 0 1 .877 1.919v1.603a2.648 2.648 0 0 1-1.116 2.06 2.352 2.352 0 0 1 1.464 2.278v1.603a2.804 2.804 0 0 1-.837 2.146 2.848 2.848 0 0 1-2.166.807h-3.9zM74.184 21.125H68.38V8.058h5.804v1.695h-3.826v3.772h3.166v1.695h-3.166v4.174h3.826zM82.094 11.284a1.385 1.385 0 0 0-.071-.585 1.389 1.389 0 0 0-.305-.505 1.413 1.413 0 0 0-1.07-.44h-1.41v4.664h1.41a1.434 1.434 0 0 0 1.052-.431 1.409 1.409 0 0 0 .394-1.062v-1.641zm-4.834 9.841V8.058h3.388c2.087 0 3.424 1.13 3.424 3.226v1.64c0 2.078-1.337 3.208-3.424 3.208h-1.41v4.993H77.26zM93.795 21.125h-1.978V15.22H88.65v5.905h-1.978V8.058h1.978v5.467h3.167V8.058h1.978zM102.547 21.125v-8.2l-3.314 8.2h-1.831V8.058h1.977v8.202l3.315-8.202h1.83v13.067zM112.49 16.569h1.977v2.06c0 1.986-1.775 2.733-3.295 2.733s-3.314-.71-3.314-2.734v-8.074c0-2.004 1.776-2.733 3.314-2.733 1.539 0 3.295.71 3.295 2.733v2.06h-1.977v-2.06c0-.746-.714-1.02-1.318-1.02-.605 0-1.337.255-1.337 1.02v8.056c0 .747.732 1.02 1.337 1.02.604 0 1.318-.273 1.318-1.02V16.57zM121.06 19.394a1.403 1.403 0 0 0 1.372-.932c.066-.186.09-.384.075-.58v-1.604a1.496 1.496 0 0 0-.096-.573 1.521 1.521 0 0 0-.31-.491 1.514 1.514 0 0 0-1.043-.468h-1.407v4.648h1.408zm3.425-1.513c0 2.114-1.338 3.225-3.426 3.225h-3.386V8.058h1.978v4.994h1.408c2.088 0 3.426 1.111 3.426 3.226v1.603zM48.687 48.461l-2.903-5.923h-.494v5.923h-1.978v-5.923h-.476l-2.912 5.923h-1.958v-.364l3.002-6.305-2.857-6.088v-.328h1.978l2.655 5.467h.568v-5.467h1.978v5.467h.586l2.637-5.467h2.005v.328l-2.82 6.088 2.984 6.305v.364zM58.18 48.461v-8.2l-3.314 8.2h-1.83V35.376h1.977v8.202l3.314-8.202h1.831v13.085zM68.38 43.888a1.238 1.238 0 0 0-.372-1 1.267 1.267 0 0 0-1.01-.35l-1.602.001v4.21h1.601a1.244 1.244 0 0 0 .99-.328 1.224 1.224 0 0 0 .383-.965l.01-1.568zm-.385-5.704a.994.994 0 0 0-1.08-1.094h-1.52v3.79h1.483c.146.006.292-.022.427-.076a1.006 1.006 0 0 0 .607-1.053l.083-1.567zm-4.577 10.277V35.376h3.662a2.65 2.65 0 0 1 2.015.651c.272.242.49.537.641.868.152.33.232.689.237 1.05v1.606a2.659 2.659 0 0 1-1.145 2.059 2.345 2.345 0 0 1 1.493 2.297v1.603a2.804 2.804 0 0 1-.837 2.146 2.83 2.83 0 0 1-2.166.805h-3.9zM78.12 48.461v-8.2l-3.314 8.2h-1.831V35.376h1.978v8.202l3.314-8.202h1.83v13.085zM90.59 48.461v-8.948l-2.636 5.213-2.646-5.213v8.948h-1.95V35.376h1.832l2.746 5.578 2.801-5.578h1.776v13.085z"/>
    </g>
</svg>
