<svg width="200" height="80" viewBox="0 0 200 80" xmlns="http://www.w3.org/2000/svg" xmlns:xlink="http://www.w3.org/1999/xlink">
    <defs>
        <path id="8jnpqrqv2a" d="M0 80h200V0H0z"/>
    </defs>
    <g fill="none" fill-rule="evenodd">
        <path d="M20.506 16.132a8.642 8.642 0 0 0-1.307-1.3 2.807 2.807 0 0 0-3.546-.117 1.832 1.832 0 0 0-.614.622c-.154.254-.243.54-.262.834a3.542 3.542 0 0 0 0 .38c0 2.837 3.1 7.458 5.781 10.647 2.616-3.176 5.69-7.81 5.69-10.609.007-.132.007-.26 0-.39a1.883 1.883 0 0 0-.266-.85 1.866 1.866 0 0 0-.623-.635 2.478 2.478 0 0 0-3.428 0 7.94 7.94 0 0 0-1.452 1.406m.132 14.06S8.447 17.277 14.62 13.06a4.161 4.161 0 0 1 3.092-.895 4.168 4.168 0 0 1 2.806 1.57 4.184 4.184 0 0 1 2.795-1.556 4.198 4.198 0 0 1 1.628.133c.53.153 1.021.405 1.449.748 6.266 4.217-5.78 17.118-5.78 17.118" fill="#666564"/>
        <mask id="ge8m8vr98b" fill="#fff">
            <use xlink:href="#8jnpqrqv2a"/>
        </mask>
        <path stroke="#666564" stroke-width="2.115" mask="url(#ge8m8vr98b)" d="M1.057 40.153h39.238V1.1H1.057z"/>
        <path stroke="#666564" stroke-width="2.115" mask="url(#ge8m8vr98b)" d="M40.097 40.11h158.845V1.059H40.097zM40.163 78.942h108.308V40.124H40.163z"/>
        <path fill="#666564" mask="url(#ge8m8vr98b)" d="M64.988 30.179h-2.826V13.932h-4.525V30.18h-2.825V11.51h10.176zM76.366 15.078c0-1.068-1.021-1.458-1.883-1.458-.864 0-1.91.365-1.91 1.458v11.507c0 1.068 1.046 1.459 1.91 1.459.862 0 1.883-.39 1.883-1.459V15.078zm-6.618 0c0-2.863 2.536-3.905 4.735-3.905 2.198 0 4.709 1.015 4.709 3.905v11.507c0 2.84-2.538 3.906-4.71 3.906-2.17 0-4.734-1.016-4.734-3.906V15.078zM90.478 23.67a1.788 1.788 0 0 0-1.961-1.875h-2.21v6.015h2.249a1.768 1.768 0 0 0 1.821-1.145c.09-.243.123-.5.101-.757v-2.239zm-.458-8.176a1.387 1.387 0 0 0-.07-.616 1.429 1.429 0 0 0-1.474-.946h-2.169v5.416h2.119a1.44 1.44 0 0 0 1.466-.95 1.4 1.4 0 0 0 .076-.613l.052-2.291zm-6.538 14.685V11.51h5.231a3.756 3.756 0 0 1 1.537.164 3.755 3.755 0 0 1 2.26 2.005c.216.472.329.983.336 1.502v2.291a3.783 3.783 0 0 1-.455 1.655c-.278.511-.666.95-1.14 1.288a3.36 3.36 0 0 1 2.092 3.253v2.291a4.005 4.005 0 0 1-1.196 3.066 4.08 4.08 0 0 1-1.423.906 4.07 4.07 0 0 1-1.671.247h-5.571zM105.978 30.179h-8.292V11.51h8.292v2.421h-5.467v5.39h4.523v2.42h-4.523v5.963h5.467zM117.277 16.12a1.979 1.979 0 0 0-.101-.836 1.984 1.984 0 0 0-.437-.72 2.018 2.018 0 0 0-1.529-.63h-2.013v6.663h2.014c.279.007.556-.046.816-.15.26-.107.493-.266.687-.466a2.012 2.012 0 0 0 .563-1.518V16.12zm-6.905 14.059V11.51h4.839c2.982 0 4.891 1.614 4.891 4.609v2.343c0 2.968-1.909 4.582-4.891 4.582h-2.014v7.134h-2.825zM133.992 30.179h-2.825v-8.436h-4.525v8.436h-2.825V11.51h2.825v7.81h4.525v-7.81h2.825zM146.495 30.179V18.463l-4.734 11.716h-2.616V11.51h2.826v11.717l4.734-11.717h2.616v18.668zM160.7 23.67h2.825v2.942c0 2.837-2.537 3.905-4.708 3.905-2.17 0-4.734-1.015-4.734-3.905V15.077c0-2.863 2.536-3.905 4.734-3.905 2.199 0 4.708 1.015 4.708 3.905v2.943h-2.826v-2.943c0-1.066-1.02-1.456-1.882-1.456-.864 0-1.91.363-1.91 1.456v11.51c0 1.065 1.046 1.456 1.91 1.456.863 0 1.882-.39 1.882-1.457V23.67zM172.942 27.705a2.005 2.005 0 0 0 1.961-1.331c.095-.266.129-.548.107-.83v-2.29a2.137 2.137 0 0 0-.137-.818c-.102-.26-.25-.499-.442-.702a2.163 2.163 0 0 0-1.49-.668h-2.011v6.64h2.012zm4.893-2.16c0 3.02-1.91 4.607-4.893 4.607h-4.838v-18.64h2.826v7.134h2.012c2.982 0 4.893 1.587 4.893 4.608v2.29zM69.552 69.23l-4.146-8.461H64.7v8.462h-2.826v-8.462h-.68l-4.16 8.462h-2.797v-.521l4.29-9.007-4.082-8.697v-.469h2.825l3.793 7.81h.811v-7.81H64.7v7.81h.837l3.767-7.81h2.864v.469l-4.028 8.697 4.263 9.007v.52zM83.115 69.23V57.516L78.38 69.231h-2.615V50.537h2.825v11.718l4.734-11.718h2.616v18.694zM97.685 62.697a1.768 1.768 0 0 0-.53-1.428 1.835 1.835 0 0 0-.667-.41 1.81 1.81 0 0 0-.778-.089h-2.287v6.014h2.287a1.778 1.778 0 0 0 1.414-.469 1.748 1.748 0 0 0 .548-1.379l.013-2.239zm-.55-8.148a1.42 1.42 0 0 0-.4-1.144 1.428 1.428 0 0 0-1.143-.42h-2.17v5.416h2.118c.21.007.417-.032.61-.11a1.436 1.436 0 0 0 .867-1.504l.119-2.238zM90.598 69.23V50.537h5.232a3.759 3.759 0 0 1 3.794 2.17c.216.473.331.984.338 1.501v2.293a3.798 3.798 0 0 1-1.635 2.94 3.38 3.38 0 0 1 1.595 1.302c.382.587.57 1.28.537 1.98v2.29a4.005 4.005 0 0 1-1.195 3.067 4.044 4.044 0 0 1-3.094 1.15h-5.572zM111.6 69.23V57.516l-4.734 11.716h-2.616V50.537h2.825v11.718l4.735-11.718h2.616v18.694zM129.415 69.23V56.449l-3.767 7.446-3.78-7.446V69.23h-2.784V50.537h2.616l3.923 7.968 4.002-7.968h2.536v18.694z"/>
    </g>
</svg>
