<svg width="40" height="40" viewBox="0 0 40 40" xmlns="http://www.w3.org/2000/svg">
    <defs>
        <filter x="-135%" y="-135%" width="370%" height="370%" filterUnits="objectBoundingBox" id="csm5h4m6ga">
            <feOffset dy="2" in="SourceAlpha" result="shadowOffsetOuter1"/>
            <feGaussianBlur stdDeviation="13" in="shadowOffsetOuter1" result="shadowBlurOuter1"/>
            <feComposite in="shadowBlurOuter1" in2="SourceAlpha" operator="out" result="shadowBlurOuter1"/>
            <feColorMatrix values="0 0 0 0 0.406382388 0 0 0 0 0.466357377 0 0 0 0 0.591305272 0 0 0 0.127660779 0" in="shadowBlurOuter1" result="shadowMatrixOuter1"/>
            <feMerge>
                <feMergeNode in="shadowMatrixOuter1"/>
                <feMergeNode in="SourceGraphic"/>
            </feMerge>
        </filter>
    </defs>
    <g filter="url(#csm5h4m6ga)" fill="#FFF" fill-rule="evenodd">
        <path d="M33.263 11.484c-.952.05-1.368-.046-1.49-.247-.22-.36.496-1.056.76-1.851a11.019 11.019 0 0 1-3.464 1.286A5.499 5.499 0 0 0 25.103 9c-3.003 0-5.44 2.375-5.44 5.301 0 .419.05.82.14 1.208-4.527-.222-8.532-2.328-11.22-5.54a5.161 5.161 0 0 0-.738 2.668c0 1.838.964 3.464 2.42 4.41a5.464 5.464 0 0 1-2.459-.663v.064c0 2.571 1.877 4.716 4.362 5.207a5.751 5.751 0 0 1-2.46.087c.697 2.106 2.702 3.635 5.083 3.684a11.12 11.12 0 0 1-6.76 2.264c-.436 0-.865-.025-1.294-.071A15.693 15.693 0 0 0 15.082 30c10.004 0 15.477-8.078 15.477-15.082l-.017-.687c1.07-.75 1.992-1.68 2.721-2.747z"/>
    </g>
</svg>
