<?xml version="1.0" encoding="UTF-8"?>
<svg width="29px" height="29px" viewBox="0 0 29 29" version="1.1" xmlns="http://www.w3.org/2000/svg" xmlns:xlink="http://www.w3.org/1999/xlink">
    <title>A0362B27-F5C6-419C-A8D5-457CCD02602E</title>
    <g id="Page-2" stroke="none" stroke-width="1" fill="none" fill-rule="evenodd">
        <g id="Desktop-HD" transform="translate(-879.000000, -5183.000000)" fill="#FBD905">
            <g id="Group-15" transform="translate(376.000000, 4922.000000)">
                <path d="M532,273.654312 C531.882093,273.614551 531.768031,273.564529 531.647561,273.536311 C531.102881,273.409332 530.558202,273.277222 530.009678,273.1682 C529.325305,273.032242 528.63965,272.901415 527.95015,272.796241 C527.072256,272.662848 526.194361,272.520478 525.310058,272.447368 C524.070753,272.343476 522.826321,272.383238 521.585734,272.490977 C521.087193,272.534586 520.58737,272.560239 520.09011,272.615391 C519.785089,272.648739 519.509546,272.431977 519.606947,272.039496 C519.785089,271.318664 519.990145,270.604246 520.252873,269.907784 C520.420762,269.46015 520.57968,269.009951 520.737317,268.559752 C520.957751,267.927421 521.175623,267.296373 521.38965,266.66276 C521.735681,265.644361 522.01507,264.60544 522.271389,263.561389 C522.277797,263.535736 522.276516,263.508801 522.281642,263.436975 C522.171425,263.530606 522.089403,263.598585 522.009943,263.670411 C521.199973,264.410482 520.375906,265.135161 519.485195,265.780318 C518.602174,266.41778 517.721716,267.059089 516.843822,267.704246 C516.611853,267.874834 516.395263,268.063379 516.169701,268.241663 C516.088961,268.304511 516.006938,268.369925 515.917226,268.418664 C515.744211,268.512295 515.573758,268.441751 515.551971,268.250641 C515.462259,267.468244 515.053429,266.841044 514.594617,266.243344 C513.621884,264.978682 512.520992,263.828173 511.39703,262.702034 C510.876701,262.180009 510.351246,261.664396 509.828354,261.144936 C509.786062,261.103892 509.742487,261.065414 509.673281,261 C509.682252,261.084653 509.682252,261.139805 509.693786,261.192393 C510.032128,262.791818 510.37047,264.392525 510.710094,265.99195 C510.967695,267.204025 511.144555,268.427643 511.293221,269.656391 C511.399593,270.533702 511.550822,271.4046 511.681545,272.278063 C511.696924,272.380672 511.712303,272.481999 511.725119,272.584609 C511.757159,272.859089 511.659758,272.992481 511.388059,273.019416 C511.183003,273.039938 510.976666,273.052764 510.770329,273.051482 C509.686097,273.045069 508.610836,273.163069 507.536857,273.286201 C506.842231,273.365723 506.14376,273.427289 505.458105,273.55042 C504.660951,273.694073 503.875331,273.896727 503.085867,274.075011 C503.065361,274.078859 503.048701,274.09425 503,274.11862 C503.239659,274.22636 503.453686,274.335383 503.676684,274.420035 C504.129088,274.591906 504.584055,274.758647 505.044149,274.912561 C505.684948,275.126758 506.333436,275.319151 506.972954,275.535913 C507.621442,275.753958 508.278902,275.939938 508.944052,276.101548 C509.431059,276.220831 509.915503,276.346528 510.40251,276.464529 C510.580652,276.506855 510.761358,276.545334 510.943345,276.568421 C511.26887,276.609465 511.377806,276.854445 511.161216,277.137904 C510.706249,277.727908 510.308954,278.355108 509.953951,279.010526 C509.507955,279.832685 509.100407,280.674082 508.805639,281.561654 C508.628779,282.091375 508.446792,282.622379 508.372459,283.181601 C508.345545,283.385537 508.280184,283.584343 508.241736,283.786997 C508.123829,284.409067 508.022583,285.033702 507.893141,285.653207 C507.784205,286.17908 507.644511,286.699823 507.522759,287.224414 C507.47534,287.430916 507.440737,287.641265 507.429203,287.873419 C507.490719,287.816984 507.556081,287.763114 507.613753,287.702831 C508.377585,286.915303 509.146544,286.132906 509.902687,285.3364 C510.979229,284.203848 512.100628,283.118753 513.252784,282.064441 C513.611632,281.73609 513.942284,281.37824 514.290879,281.039628 C514.438262,280.895975 514.593336,280.75617 514.759943,280.638169 C515.035487,280.441928 515.208503,280.485537 515.368702,280.781822 C515.473794,280.975498 515.551971,281.185847 515.669878,281.371827 C516.014628,281.919505 516.360659,282.467183 516.728478,283.000752 C517.690958,284.398806 518.793132,285.686555 519.917094,286.955064 C520.506629,287.620743 521.149991,288.24153 521.767721,288.882839 C522.068897,289.195798 522.367509,289.512605 522.667403,289.826847 C522.712259,289.874303 522.759678,289.919195 522.840419,290 C522.834011,289.864042 522.834011,289.770411 522.823758,289.678063 C522.649461,288.056833 522.398268,286.449713 521.929203,284.884918 C521.419127,283.176471 520.90008,281.470588 520.372061,279.767271 C520.24262,279.34529 520.068322,278.936134 519.913249,278.523131 C519.785089,278.183238 519.706912,277.8318 519.664619,277.471384 C519.637705,277.244361 519.712038,277.059664 519.895307,276.932685 C520.051662,276.824945 520.218269,276.728748 520.390004,276.647943 C521.093601,276.315745 521.839491,276.109244 522.60076,275.963025 C524.288625,275.639805 525.935478,275.160106 527.575924,274.658602 C528.125729,274.491862 528.676816,274.328969 529.229185,274.17249 C529.796933,274.01088 530.38006,273.928793 530.964469,273.854401 C531.306655,273.810792 531.647561,273.755639 531.988466,273.705617 C531.99231,273.688943 531.996155,273.670986 532,273.654312" id="Fill-110"></path>
            </g>
        </g>
    </g>
</svg>