<?xml version="1.0" encoding="UTF-8"?>
<svg width="25px" height="22px" viewBox="0 0 25 22" version="1.1" xmlns="http://www.w3.org/2000/svg" xmlns:xlink="http://www.w3.org/1999/xlink">
    <title>922D530A-3018-47F7-89D1-2EAE497823AC</title>
    <g id="Page-2" stroke="none" stroke-width="1" fill="none" fill-rule="evenodd">
        <g id="Desktop-HD" transform="translate(-473.000000, -5273.000000)" fill="#FBD905">
            <g id="Group-15" transform="translate(376.000000, 4922.000000)">
                <path d="M122.584936,361.387598 C122.487358,361.354692 122.392962,361.313294 122.293262,361.289942 C121.842493,361.184856 121.391725,361.075523 120.937774,360.985298 C120.371396,360.872781 119.803957,360.764511 119.233337,360.67747 C118.506803,360.567076 117.78027,360.449252 117.048433,360.388748 C116.022801,360.302768 114.992927,360.335674 113.966234,360.424838 C113.553648,360.460928 113.140001,360.482158 112.728475,360.527801 C112.476045,360.5554 112.248009,360.37601 112.328617,360.051198 C112.476045,359.454648 112.645746,358.863405 112.863176,358.287023 C113.002119,357.916567 113.133637,357.543989 113.264095,357.17141 C113.446524,356.648102 113.626831,356.125855 113.803957,355.601485 C114.090328,354.758673 114.321546,353.898876 114.533673,353.034834 C114.538976,353.013604 114.537915,352.991313 114.542158,352.93187 C114.450943,353.009358 114.383063,353.065616 114.317303,353.125059 C113.646984,353.737531 112.964997,354.337266 112.227857,354.871189 C111.497081,355.398743 110.768426,355.929482 110.041892,356.463405 C109.849918,356.604581 109.670671,356.760619 109.484,356.908164 C109.41718,356.960176 109.349299,357.014312 109.275055,357.054648 C109.131869,357.132136 108.990805,357.073754 108.972775,356.915594 C108.89853,356.268093 108.560188,355.749031 108.180482,355.254382 C107.375462,354.207766 106.464378,353.255621 105.534203,352.323644 C105.103586,351.891623 104.668726,351.464909 104.235988,351.03501 C104.200987,351.001043 104.164926,350.969199 104.107652,350.915064 C104.115076,350.985121 104.115076,351.030765 104.124622,351.074285 C104.404629,352.397947 104.684636,353.722671 104.965704,355.046333 C105.178891,356.049429 105.325258,357.062078 105.448292,358.078973 C105.536324,358.805024 105.661479,359.525767 105.769663,360.248633 C105.782391,360.333551 105.795119,360.417408 105.805725,360.502326 C105.832241,360.729482 105.751633,360.839876 105.526778,360.862167 C105.357077,360.87915 105.186315,360.889765 105.015553,360.888703 C104.118258,360.883396 103.228387,360.981052 102.339577,361.082954 C101.764714,361.148765 101.186669,361.199716 100.61923,361.301618 C99.9595167,361.420504 99.3093487,361.588217 98.6559989,361.735762 C98.6390288,361.738947 98.6252405,361.751684 98.5849365,361.771853 C98.7832748,361.861017 98.9604005,361.951242 99.1449506,362.0213 C99.519354,362.163538 99.8958787,362.30153 100.276646,362.428907 C100.806962,362.606174 101.343643,362.765395 101.872898,362.944785 C102.409579,363.125236 102.953683,363.27915 103.504152,363.412896 C103.907192,363.511614 104.308111,363.615638 104.711152,363.713294 C104.85858,363.748323 105.008129,363.780167 105.158739,363.799274 C105.42814,363.833241 105.518293,364.035983 105.339046,364.27057 C104.962522,364.758849 104.633726,365.277912 104.33993,365.820327 C103.97083,366.500734 103.633549,367.197063 103.389603,367.931605 C103.243236,368.369995 103.092626,368.809447 103.031109,369.272251 C103.008836,369.441025 102.954744,369.605554 102.922925,369.773268 C102.825347,370.288084 102.741557,370.805024 102.634433,371.317717 C102.544279,371.752923 102.42867,372.183883 102.32791,372.618027 C102.288666,372.788925 102.260029,372.963007 102.250484,373.155134 C102.301394,373.108429 102.355486,373.063847 102.403215,373.013958 C103.035352,372.362211 103.671732,371.71471 104.297505,371.055532 C105.188437,370.118248 106.11649,369.220238 107.069999,368.347704 C107.366976,368.075966 107.64062,367.779814 107.929112,367.499584 C108.051085,367.380698 108.179421,367.264997 108.317303,367.167341 C108.54534,367.004935 108.688525,367.041025 108.821104,367.286227 C108.908076,367.44651 108.972775,367.620592 109.070353,367.774506 C109.355663,368.227757 109.642034,368.681008 109.946436,369.122582 C110.742971,370.279592 111.655115,371.345316 112.58529,372.395117 C113.073181,372.946023 113.605619,373.459778 114.116844,373.990517 C114.366093,374.249517 114.61322,374.511702 114.861408,374.771764 C114.89853,374.811039 114.937774,374.84819 115.004594,374.915064 C114.99929,374.802547 114.99929,374.725059 114.990805,374.648633 C114.846559,373.306926 114.638675,371.976895 114.250484,370.681892 C113.828352,369.268005 113.398795,367.85624 112.961815,366.446598 C112.854691,366.097372 112.710445,365.758761 112.582108,365.416965 C112.476045,365.135674 112.411346,364.844829 112.376345,364.546554 C112.354072,364.358673 112.415589,364.20582 112.567259,364.100734 C112.696656,364.011569 112.834539,363.931959 112.976664,363.865086 C113.558951,363.590163 114.176239,363.419265 114.806255,363.298257 C116.203109,363.030765 117.566022,362.633772 118.923632,362.218734 C119.378643,362.080742 119.834716,361.945935 120.291848,361.816435 C120.761709,361.682688 121.244297,361.614754 121.727945,361.553188 C122.011134,361.517098 122.293262,361.471454 122.575391,361.430057 C122.578573,361.416258 122.581755,361.401397 122.584936,361.387598" id="Fill-110-Copy-2" transform="translate(110.584936, 362.915064) rotate(60.000000) translate(-110.584936, -362.915064) "></path>
            </g>
        </g>
    </g>
</svg>